<?xml version="1.0" encoding="UTF-8"?>
<svg id="_레이어_1" data-name="레이어_1" xmlns="http://www.w3.org/2000/svg" version="1.1" viewBox="0 0 800 800">
  <!-- Generator: Adobe Illustrator 30.0.0, SVG Export Plug-In . SVG Version: 2.1.1 Build 123)  -->
  <defs>
    <style>
      .st0 {
        fill: #19232e;
      }

      .st1 {
        fill: #dab482;
      }

      .st2 {
        fill: #4b3c31;
      }

      .st3 {
        fill: #7ea05b;
      }

      .st4 {
        fill: #fdfefd;
      }

      .st5 {
        fill: #b6d2bb;
      }

      .st6 {
        fill: #98be70;
      }

      .st7 {
        fill: #92b86e;
      }

      .st8 {
        fill: #a8825d;
      }

      .st9 {
        fill: #f5e3ca;
      }

      .st10 {
        fill: #578240;
      }

      .st11 {
        fill: #272c31;
      }

      .st12 {
        fill: #2e4767;
      }

      .st13 {
        fill: #1b251d;
      }

      .st14 {
        fill: #496151;
      }

      .st15 {
        fill: #9b8d4d;
      }
    </style>
  </defs>
  <path class="st8" d="M584.52,233.84c.76,6.82,2.07,15.54,4,22,1.53,5.13,3.2,3.82,3.84,5.54,1.48,3.99,1.4,11.49,4.02,15.09,2.1,2.89,7.27,2.35,9.96,6.55s1.62,10.43,4.01,15.98c4.84,11.23,30.31,20.71,10.3,31.98-27.97,15.76-27.52-10.92-32.35-29.5-.51-1.96-3.65-3.11-3.79-3.65-2.5-9.29,3.62-14.5,3.86-18.95.18-3.25-4.66-14.55-5.86-19.05-1.07-4-3.82-7.29-4-8-.79-3.1-2.12-14.67-2-18,.03-.96,1.64-2.77,2-4,.52.28,1.48-.28,2,0,1.42.77,2.74,3.33,4,4ZM600.51,295.83c3.31-13.2-12.74-12.12-9.97-3.01,1.01,3.33,7.03,3.36,9.97,3.01ZM596.53,301.85c-1.8,1.74,4.47,22.95,7.98,25.13,2.94,1.83,15.96-4.25,15.97-6.14-5.14-2.9-18.23-24.51-23.95-18.99Z"/>
  <path class="st9" d="M584.52,297.84h-4c-.38-12.62.27-25.37,0-38h2c1.21,4.5,6.05,15.8,5.86,19.05-.25,4.45-6.36,9.65-3.86,18.95Z"/>
  <path class="st1" d="M600.51,295.83c-2.94.35-8.95.31-9.97-3.01-2.77-9.1,13.27-10.19,9.97,3.01Z"/>
  <g>
    <path class="st2" d="M580.52,259.84c.27,12.63-.38,25.38,0,38,.14,4.58-.44,9.55,0,14-8.19,1.67-5.2-2.92-6-4v-46c1.11-.24,3.46-2.97,6-2Z"/>
    <path class="st11" d="M584.52,233.84c15.42,8.2,41.76,14.92,4,22-1.93-6.46-3.24-15.18-4-22Z"/>
    <path class="st8" d="M574.52,261.84v46c-3.3-4.43-8.17-9.94-12-14v-30c4.33-1.18,8.17-1.19,12-2Z"/>
    <path class="st2" d="M562.52,263.84v30c-1.73-1.84-4.15-4.2-6-6v-22c2.03-.66,3.89-1.42,6-2Z"/>
    <g>
      <path class="st2" d="M580.52,229.84c-.52-.28-1.48.28-2,0-5.79-3.13-3.71-3.79-4-4-3.39-18.11,10.17-69.89-15.11-73.89l-413.98-.21c-12.08-.3-19.07,9.51-18.98,21.02l-.02,282.17c-.42,8.01,5.71,7.26,12.1,6.9V172.84c0-2.42,6.96-10.5,10.9-9.1l401.96.23c18.95,2.98,8.46,41.81,11.13,55.87-2.56-1.36-5.32-2.58-8-4,3.31-2.07,2-7.59,2.03-10.97.06-6.31,2.09-35.03-5.03-35.03H147.52c-.21,0-3,2.79-3,3v289c14.64.05,29.36-.06,44,0,19.3.09,38.7,0,58,0h38c.1.7,1.62,5.21,2,6H121.52c-8.2,1.36-4.49,13.36-4.78,19.79l187.78.21c1.94,2.57,4.18,4.02,4,8-58.25-6.19-129.33,6.79-187.05.05-19.41-2.27-18.22-33.61-.84-35.17l-.19-291.95c-.06-9.25,4.44-17.27,12.93-21.07,142.91-4.23,286.77-.79,430.03-1.74,27.64,4.38,13.81,64.36,17.11,83.89Z"/>
      <path class="st8" d="M286.52,467.84c2.65,5.48,13.33,13.8,18,20l-187.78-.21c.29-6.43-3.43-18.43,4.78-19.79h165Z"/>
      <path class="st14" d="M554.52,215.84c-23.39-12.36-47.89-22.8-70.62-36.49l-5.89-1.16-118.59,41.55c-2.22,2.93-.87,4.71,1.15,7.06,6.56,7.64,36.02,18.64,45.81,25.21.98,3.02-.79,5.29-1.86,7.83-4.28,10.17-16.7,12.67-25.82,19.18-54.29,38.77-75.15,125.35-32.22,179.84-12.64-1.45-15.25-18.38-24.02-23.96-5.67-3.61-11.13-1.95-16.11-5.89-9.26-7.31-11.57-37.37-28.84-23.18-13.52,11.11,6.84,25.36,8.45,35.29.67,4.12-2.39,13.86-1.44,20.71h-38c-.85-3.07,2.76-7.63-2.94-8.02-15.13-1.03-37-1.03-52.13,0-5.7.39-2.09,4.95-2.94,8.02-14.64-.06-29.36.05-44,0V172.84c0-.21,2.79-3,3-3h404c7.12,0,5.1,28.72,5.03,35.03-.03,3.38,1.28,8.9-2.03,10.97Z"/>
      <path class="st8" d="M574.52,225.84c-.56-.4-9.35-4.59-12-6-2.68-14.05,7.82-52.89-11.13-55.87l-401.96-.23c-3.94-1.41-10.9,6.67-10.9,9.1v289c-6.38.36-12.52,1.11-12.1-6.9l.02-282.17c-.08-11.51,6.9-21.32,18.98-21.02l413.98.21c25.28,4,11.72,55.78,15.11,73.89Z"/>
      <path class="st4" d="M188.52,461.84c.85-3.07-2.76-7.63,2.94-8.02,15.13-1.03,37-1.03,52.13,0,5.7.39,2.09,4.95,2.94,8.02-19.3,0-38.7.09-58,0Z"/>
    </g>
    <path class="st1" d="M596.53,301.85c5.72-5.52,18.81,16.09,23.95,18.99-.01,1.89-13.03,7.98-15.97,6.14-3.51-2.19-9.78-23.4-7.98-25.13Z"/>
    <g>
      <path class="st13" d="M410.52,259.84c.57.7-1.36,5.46,1.08,6.13,4.34,1.2,14.84-.56,21.4.38,12.12,1.75,25.42,9.89,36.68,11.3,14.53,1.83,34.21-3.1,50.84-1.82-1.2,5.84,2.89,3.61,6.33,4.55,7.56,2.06,12.74,4.9,19.67-.55,1.1,4.08,8.2,6.25,10,8s4.27,4.16,6,6c3.83,4.06,8.7,9.57,12,14,.8,1.08-2.19,5.67,6,4,1.38,14.02,11.71,28.67,15.4,43.6,8.94,36.13,5.13,73.29-17.45,103.36-2.83,3.76-10.49,8.79-11.59,12.48-1.02,3.44,3.14,29.04,4.69,32.51.69,1.53,13.43,16.2,15.04,16.96,10.77,5.12,39.66,12.26,51.26,12.49,5.66.11,11.03-4.07,19.61-3.45,37.71,2.72,39.63,48.5,12.04,70.05-21.63,16.89-70.71,45.94-98.02,47.96-9.4.7-18.62-2.42-25.75-1.91s-17.61,5.17-26.26,5.92c-57.05,4.93-148.66-25.91-156.41-91.53-1-8.49.7-35.09-2.96-40.02-.89-1.2-22.84-8.93-27.63-11.39-9.18-4.72-13.28-11.9-23.97-13.03.18-3.98-2.06-5.43-4-8-4.67-6.2-15.35-14.52-18-20-.38-.79-1.9-5.3-2-6-.95-6.85,2.11-16.59,1.44-20.71-1.61-9.93-21.97-24.19-8.45-35.29,17.27-14.19,19.58,15.86,28.84,23.18,4.98,3.94,10.44,2.28,16.11,5.89,8.77,5.58,11.38,22.51,24.02,23.96-42.93-54.49-22.07-141.07,32.22-179.84,9.12-6.51,21.54-9.01,25.82-19.18,1.46.26,5.69-.38,6,0ZM536.52,483.84c5.17-4.46,5.15-4.59,11.9-9.11,49.96-33.43,55.08-95.64,29.19-146.99-18.85-37.41-42.27-48.84-84.06-45.88-7.81.55-15.83,4.62-23.79,3.88-12.94-1.2-29.58-13.05-46.18-13.99-56.67-3.19-97.12,77.53-93.04,127.04,2.99,36.24,19.25,55.52,48.09,73.97,3.53,2.26,4.99.9,3.88,7.06-1.52-.5-4.53.51-6,0-9.45-3.31-29.26-9.62-36.68-14.32-10.63-6.75-15.37-19.68-26.35-25.63,2.32,10.71,13.94,18.21-.46,25.47s-13.22-6.73-22.5-13.51c7.73,30.95,44.25,53.8,73.98,60,.79.16,2.45,2.12,4,2-.45,8.94,1.51,17.2,2,26,.11,1.98-.18,4.03,0,6,3.07,32.76,3.91,37.5,28,60,7.44,6.95,9.11,8.47,18,14,31.19,19.42,67.69,27.36,104.97,23.97,9.91-.9,19.43-5.81,29.03-5.97,1.99-.03,4.01-.06,6,0,21.63.64,25.63,2.61,46.67-8.32,3.5-1.82,5.56-5.96,9.33-7.68.83-.38,4.68-.69,8-2,21.89-8.65,15.57-7.56,32-20,1.12-.85,4.46-1.18,8-4,2.54-2.02,5.93-2.76,9.09-5.91,18.1-18.06,14.74-51.46-14.16-52.26-5.21-.14-6.92,1.88-8.93,2.17-2.13.31-4.98,1.96-6,2-3.5.14-20.47-3.18-26-4-1.88-.28-4.2.34-6,0-4.02-.75-9.14-4.21-14-6-3.58-1.32-6.17-1.35-8-2-2.97-1.05-5.58-1.61-8-4-.63-.62-4.5-6.09-6-8-.59-.75-1.41-1.29-2-2-.62-.74,1.22-3.54-1.02-4.01-4.79-1.02-2.22,1.95-2.98,4.01-9.68,26.14-21.48,33.06-48,38-3.55.66-8.46-.67-12,0-17.79-2.25-65.34,1.66-55.11-30.11,3.59-11.16,14.34-10.75,18.65-14.37,3.44-2.89.62-12.12,15-9.19,8.94,1.82,7.35,11.15,22.48,9.74,12.39-1.16,11.34-8.96,15.49-11.63,1.98-1.27,4.66-.04,5.49-.45,1.29,14.57-18.69,22.27-30.57,19.59-7.74-1.75-10.17-11.9-19.43-9.6,1.59,11.98-2.23,6.31-10.11,8.9-13.02,4.29-14.67,21.19.11,26.04,7.92,2.6,46.08,4.1,55,3.08,30.51-3.5,45.19-37.3,36.62-64.63-2.29-7.29-7.61.02-11.62,1.65-2.85,1.15-8.42,2.01-10,2.97l-2-2ZM288.28,410.1c-7.83-1.47-8.72,3.25-6.86,9.79.94,3.31,18.91,34.17,21.36,36.68,6,6.17,11.41,2.85,8.89-4.82-3.89-11.81-19.34-28.47-23.39-41.66ZM349.52,459.84v2c1.3-.67,1.3-1.33,0-2Z"/>
      <path class="st6" d="M536.52,483.84c-8.91,7.67-65.53,14.43-79.09,14.07-29.49-.77-48.52-9.36-74.91-18.07,1.12-6.16-.34-4.81-3.88-7.06-28.84-18.45-45.11-37.72-48.09-73.97-4.08-49.51,36.37-130.23,93.04-127.04,16.6.93,33.24,12.79,46.18,13.99,7.96.74,15.98-3.33,23.79-3.88,41.79-2.97,65.2,8.47,84.06,45.88,25.88,51.35,20.77,113.55-29.19,146.99-6.75,4.51-6.72,4.65-11.9,9.11ZM356.52,395.84c-22.61,26.94,31.19,40.71,40,16,16.53-.86,35.08-11.53,42.41-26.59,6.24-12.83.36-24.29,20.69-21.49,12.08,1.66,7.3,9.16,10.26,17.73,7.31,21.17,21.67,35.15,44.64,36.36,4.04,29.35,64.02,16.68,40-14,47.6-44.67-26.32-121.6-73.02-68.02-5.58,6.4-10.03,21.27-11.01,22.03-.47.37-8.34-3.36-11.48-3.53-5.24-.28-10.88,2.65-16.49,1.52-1.4-32.35-34.4-50.68-64.43-41.44-32.83,10.1-44.72,55.93-21.57,81.43ZM437.79,400.4c-13.64,1.41-6.28,24.7,1.71,31.45,16.55,13.98,38.47,1.28,39.14-19.11.53-16.32-13.93-8.09-25.1-8.93-5.14-.39-11.74-3.83-15.75-3.41Z"/>
      <path class="st6" d="M570.52,515.84c.59.71,1.41,1.25,2,2-4.1,7.89-1.02,17.12-2.88,26.12-4.56,22.07-35.65,49.14-55.03,58.97-37.15,18.85-77.96,17.98-116.08,2.92-24.09-22.5-24.93-27.24-28-60,18.71,12.29,41,19.06,63.25,21.75,28.52,3.45,51.83.77,78.81-8.78,3.19-1.13,7.1.44,5.93-4.96,26.52-4.94,38.32-11.86,48-38h4Z"/>
      <path class="st3" d="M382.52,479.84c26.39,8.71,45.41,17.31,74.91,18.07,13.56.35,70.19-6.4,79.09-14.07l2,2c-3.8,2.32-3.57,8.9-10,12-.84.4-3.51-.83-5.49.45-4.15,2.67-3.1,10.47-15.49,11.63-15.13,1.41-13.54-7.92-22.48-9.74-14.37-2.93-11.55,6.3-15,9.19-4.31,3.61-15.05,3.21-18.65,14.37-10.22,31.77,37.32,27.86,55.11,30.11-41.12,7.74-62.62,13.49-105.03.03-11.97-3.8-19.75-9.97-30.97-14.03-.49-8.8-2.45-17.06-2-26,.08-1.67,5.55-8.94,0-12,2.38-6.66,1.59-18.17,8-22,1.47.51,4.48-.5,6,0Z"/>
      <path class="st3" d="M586.52,529.84c10.61,28.36,7.79,58.37-10,83l-26,25c-9.6.16-19.12,5.07-29.03,5.97-37.28,3.39-73.78-4.54-104.97-23.97,65.27,16.47,157.08-19.11,162-94,2.42,2.39,5.03,2.95,8,4Z"/>
      <path class="st12" d="M410.52,259.84c8.71-6.58,7.58-22.3,17.42-27.58,21.95-11.78,65.07-5.62,87.63,3.53,25.22,10.23,20.54,18.97,24.94,44.04-6.66-1.13-13.2-3.47-19.99-3.99-16.63-1.28-36.3,3.65-50.84,1.82-11.26-1.42-24.56-9.55-36.68-11.3-6.56-.95-17.05.81-21.4-.38-2.44-.67-.51-5.43-1.08-6.13Z"/>
      <path class="st7" d="M538.52,485.84c1.58-.96,7.15-1.82,10-2.97,4.01-1.62,9.34-8.93,11.62-1.65,8.57,27.32-6.11,61.13-36.62,64.63-8.92,1.02-47.08-.48-55-3.08-14.78-4.85-13.12-21.75-.11-26.04,7.87-2.59,11.7,3.08,10.11-8.9,9.25-2.3,11.68,7.86,19.43,9.6,11.88,2.68,31.85-5.02,30.57-19.59,6.43-3.1,6.2-9.68,10-12Z"/>
      <path class="st0" d="M554.52,215.84c2.68,1.42,5.44,2.64,8,4s11.44,5.6,12,6c.29.21-1.79.87,4,4-.36,1.23-1.97,3.04-2,4-4.13.54-6.57-1.42-9.84-3.14-28.93-15.23-57.57-31.1-87.28-44.8l-108.86,36.94c6.01,4.88,35.31,24.06,40.79,23.17,6.04-11.74,6.41-17.82,20.09-22.27,25.95-8.43,82.07-3.23,103.84,14.38,7.53,6.09,5.44,22.05,10.5,23.61l32.77-9.88c.18.71,2.93,4,4,8h-2c-2.54-.97-4.89,1.76-6,2-3.83.81-7.67.82-12,2-2.11.58-3.97,1.34-6,2-8.38,2.71-13.55.85-10,14-6.93,5.45-12.11,2.6-19.67.55-3.44-.94-7.53,1.29-6.33-4.55,6.79.52,13.32,2.86,19.99,3.99-4.4-25.07.28-33.81-24.94-44.04-22.56-9.16-65.67-15.32-87.63-3.53-9.84,5.28-8.71,21-17.42,27.58-.31-.38-4.54.26-6,0,1.07-2.54,2.83-4.81,1.86-7.83-9.79-6.57-39.25-17.58-45.81-25.21-2.01-2.35-3.36-4.14-1.15-7.06l118.59-41.55,5.89,1.16c22.73,13.7,47.23,24.13,70.62,36.49Z"/>
      <path class="st3" d="M608.52,537.84c1.83,6.98,8.19,11.23,10.99,18.01,9.8,23.75,3.08,44.05-6.99,65.99-3.78,1.71-5.84,5.86-9.33,7.68-21.03,10.94-25.03,8.97-46.67,8.32,36.94-20.06,50.09-66.93,38-106,4.86,1.79,9.98,5.25,14,6Z"/>
      <path class="st7" d="M376.52,479.84c-6.41,3.83-5.62,15.34-8,22-.72,2.02-5.62,5.27-4,10-29.73-6.2-66.25-29.05-73.98-60,9.28,6.78,7.73,20.96,22.5,13.51s2.77-14.75.46-25.47c10.97,5.96,15.71,18.88,26.35,25.63,7.41,4.71,27.23,11.01,36.68,14.32Z"/>
      <path class="st7" d="M640.52,541.84c13.22,18.92,17.03,35,12,58-16.43,12.44-10.11,11.35-32,20,14.36-27.57,14.27-57.57-6-82,5.53.82,22.5,4.14,26,4Z"/>
      <path class="st10" d="M578.52,525.84c-4.92,74.89-96.73,110.47-162,94-8.89-5.53-10.56-7.05-18-14,38.12,15.06,78.93,15.93,116.08-2.92,19.38-9.83,50.47-36.9,55.03-58.97,1.86-9-1.22-18.23,2.88-26.12,1.5,1.91,5.37,7.38,6,8Z"/>
      <path class="st3" d="M646.52,539.84c2.01-.3,3.72-2.32,8.93-2.17,28.9.8,32.26,34.2,14.16,52.26-3.16,3.15-6.55,3.89-9.09,5.91l-.48-28.52-13.52-27.48Z"/>
      <path class="st10" d="M506.52,553.84c3.54-.67,8.45.66,12,0,1.17,5.41-2.75,3.84-5.93,4.96-26.98,9.55-50.29,12.23-78.81,8.78-22.25-2.69-44.55-9.46-63.25-21.75-.18-1.97.11-4.02,0-6,11.22,4.06,19,10.23,30.97,14.03,42.42,13.46,63.91,7.71,105.03-.03Z"/>
      <path class="st10" d="M594.52,531.84c12.09,39.07-1.06,85.94-38,106-1.99-.06-4.01-.03-6,0l26-25c17.79-24.63,20.61-54.64,10-83,1.83.65,4.42.68,8,2Z"/>
      <path class="st10" d="M614.52,537.84c20.27,24.43,20.36,54.43,6,82-3.32,1.31-7.17,1.62-8,2,10.07-21.93,16.79-42.23,6.99-65.99-2.8-6.78-9.15-11.03-10.99-18.01,1.8.34,4.12-.28,6,0Z"/>
      <path class="st4" d="M288.28,410.1c4.05,13.19,19.5,29.85,23.39,41.66,2.52,7.67-2.89,10.99-8.89,4.82-2.45-2.52-20.42-33.37-21.36-36.68-1.86-6.54-.97-11.26,6.86-9.79Z"/>
      <path class="st10" d="M646.52,539.84l13.52,27.48.48,28.52c-3.54,2.82-6.88,3.15-8,4,5.03-23,1.22-39.08-12-58,1.02-.04,3.87-1.69,6-2Z"/>
      <path class="st14" d="M556.52,265.84v22c-1.8-1.75-8.9-3.92-10-8-3.55-13.15,1.62-11.29,10-14Z"/>
      <path class="st10" d="M368.52,513.84c-1.55.12-3.21-1.84-4-2-1.62-4.73,3.28-7.98,4-10,5.55,3.06.08,10.33,0,12Z"/>
      <path class="st3" d="M566.52,515.84c.76-2.06-1.81-5.03,2.98-4.01,2.24.48.4,3.27,1.02,4.01h-4Z"/>
      <path class="st14" d="M349.52,459.84c1.3.67,1.3,1.33,0,2v-2Z"/>
      <path class="st12" d="M576.52,233.84c-.12,3.33,1.21,14.9,2,18l-32.77,9.88c-5.07-1.56-2.98-17.52-10.5-23.61-21.77-17.61-77.88-22.81-103.84-14.38-13.68,4.44-14.05,10.52-20.09,22.27-5.48.9-34.78-18.29-40.79-23.17l108.86-36.94c29.72,13.7,58.36,29.57,87.28,44.8,3.28,1.73,5.71,3.68,9.84,3.14Z"/>
      <path class="st15" d="M356.52,395.84c-23.15-25.51-11.26-71.33,21.57-81.43,30.04-9.24,63.03,9.08,64.43,41.44,5.61,1.13,11.25-1.8,16.49-1.52,3.14.17,11,3.9,11.48,3.53.98-.76,5.43-15.64,11.01-22.03,46.7-53.58,120.62,23.35,73.02,68.02-11.53,10.82-24.46,14.82-40,14-22.98-1.21-37.33-15.19-44.64-36.36-2.96-8.57,1.82-16.07-10.26-17.73-20.33-2.8-14.45,8.67-20.69,21.49-7.32,15.06-25.88,25.74-42.41,26.59-12.9.67-31.25-6.36-40-16ZM364.05,390.28c7.87,8.47,18.93,13.25,30.49,13.16,19.48-.15,36.19-13.91,40.06-33s-6.16-38.28-24.04-46c-17.88-7.72-38.73-1.86-49.96,14.05-11.24,15.91-9.79,37.51,3.46,51.78ZM514.51,409.96c11.06,1.14,22.12-2.23,30.66-9.35,15.11-12.58,19.26-34.07,9.92-51.37-9.34-17.3-29.59-25.62-48.39-19.89-18.81,5.73-30.97,23.93-29.07,43.5s17.33,35.09,36.89,37.11Z"/>
      <path class="st1" d="M514.52,417.84c15.54.82,28.47-3.18,40-14,24.02,30.68-35.96,43.35-40,14Z"/>
      <path class="st1" d="M396.52,411.84c-8.81,24.71-62.61,10.94-40-16,8.75,9.64,27.1,16.67,40,16Z"/>
      <path class="st13" d="M437.79,400.4c4.01-.41,10.61,3.03,15.75,3.41,11.17.84,25.63-7.39,25.1,8.93-.67,20.39-22.59,33.1-39.14,19.11-7.99-6.75-15.35-30.05-1.71-31.45ZM472.52,407.84h-29c-1.02,0-4.19-3.17-6.99-1.99-1.91,33.66,36.24,35.5,35.99,1.99Z"/>
      <path class="st6" d="M545.17,400.61c-8.7-6.09-28.72-.94-30.66,9.35-19.56-2.01-34.99-17.53-36.89-37.11s10.26-37.77,29.07-43.5c18.81-5.73,39.05,2.59,48.39,19.89,9.34,17.3,5.19,38.79-9.92,51.37ZM496.52,363.84c-.49.45-3.43.23-4.92,2-7.47,8.92-2,24.17,10.07,25.92,26.33,3.82,26.79-32.46,3.65-33.8-9.55-.55-7.79,4.95-8.81,5.88Z"/>
      <path class="st6" d="M394.54,403.44c-2.72-13.89-19.91-16.83-30.49-13.16-13.25-14.27-14.7-35.88-3.46-51.78,11.24-15.91,32.08-21.77,49.96-14.05,17.88,7.72,27.91,26.91,24.04,46s-20.58,32.86-40.06,33ZM395.93,357.19c-6.86,6.29-7.33,16.96-1.03,23.82,6.29,6.86,16.96,7.33,23.82,1.03s7.33-16.96,1.03-23.82c-6.29-6.86-16.96-7.33-23.82-1.03Z"/>
      <path class="st1" d="M394.54,403.44c-11.56.09-22.62-4.69-30.49-13.16,10.57-3.67,27.77-.73,30.49,13.16Z"/>
      <path class="st1" d="M545.17,400.61c-8.55,7.12-19.6,10.49-30.66,9.35,1.94-10.29,21.96-15.44,30.66-9.35Z"/>
      <path class="st8" d="M472.52,407.84c.25,33.51-37.9,31.66-35.99-1.99,2.79-1.18,5.97,1.99,6.99,1.99h29Z"/>
      <path class="st2" d="M496.52,363.84c-1.26,1.27.05,11.1,4.97,9.99,7.68-1.74-.42-14.56-4.97-9.99,1.02-.94-.74-6.44,8.81-5.88,23.13,1.34,22.68,37.62-3.65,33.8-12.07-1.75-17.54-17-10.07-25.92,1.49-1.77,4.43-1.56,4.92-2Z"/>
      <path class="st2" d="M395.93,357.19c.28,3.59.27,9.61,3.62,10.62,9.1,2.77,10.2-13.26-3.62-10.62,6.86-6.29,17.53-5.83,23.82,1.03,6.29,6.86,5.83,17.53-1.03,23.82s-17.53,5.83-23.82-1.03c-6.29-6.86-5.83-17.53,1.03-23.82Z"/>
      <path class="st9" d="M496.52,363.84c4.55-4.57,12.65,8.25,4.97,9.99-4.92,1.11-6.23-8.72-4.97-9.99Z"/>
      <path class="st5" d="M395.93,357.19c13.81-2.64,12.72,13.4,3.62,10.62-3.34-1.02-3.34-7.03-3.62-10.62Z"/>
    </g>
  </g>
</svg>