<?xml version="1.0" encoding="UTF-8"?>
<svg id="_레이어_1" data-name="레이어_1" xmlns="http://www.w3.org/2000/svg" version="1.1" viewBox="0 0 800 800">
  <!-- Generator: Adobe Illustrator 30.0.0, SVG Export Plug-In . SVG Version: 2.1.1 Build 123)  -->
  <defs>
    <style>
      .st0 {
        fill: #19232e;
      }

      .st1 {
        fill: #dab482;
      }

      .st2 {
        fill: #7ea05b;
      }

      .st3 {
        fill: #fdfefd;
      }

      .st4 {
        fill: #b6d2bb;
      }

      .st5 {
        fill: #98be70;
      }

      .st6 {
        fill: #92b86e;
      }

      .st7 {
        fill: #a8825d;
      }

      .st8 {
        fill: #f5e3ca;
      }

      .st9 {
        fill: #578240;
      }

      .st10 {
        fill: #272c31;
      }

      .st11 {
        fill: #2e4767;
      }

      .st12 {
        fill: #1b251d;
      }

      .st13 {
        fill: #496151;
      }

      .st14 {
        fill: #9b8d4d;
      }
    </style>
  </defs>
  <path class="st14" d="M586.93,154.72c2.63,2.62,11.72,1.19,11.66,7.45-.04,5.02-7.45,5.43-9.13,8.95-1.84,3.85.24,10.83-2.89,13.11-5.41,3.94-8.32-4.69-13.1-5.12-4.17-.37-10.78,4.79-14.1.1-2.23-3.13,1.74-8.58,1.16-12.91-.46-3.38-4.46-5.84-4.19-10.1.46-7.15,8.16-4.02,12.73-5.48s6.83-9.24,12.28-7.52c3.86,1.22,3.37,9.31,5.58,11.51ZM580.48,149.15c-3.61-3.46-5.07,5.66-7.93,7.04-3.17,1.53-6.71.97-10.04.98,4.04,8.08,4.45,11.05,2.01,19.99,8.45-4.46,13.66-1.94,19.96,4-1.87-9.92,2.26-13.28,8.02-19.98-12.77,1.6-10.45-10.53-12.02-12.03Z"/>
  <path class="st1" d="M662.44,401.25c4.17,6.4-4.23,5.82-7.35,7.43-5.76,2.96-8.58,7.92-8.61,14.48-9.28-2.5-9.21-17.75-21.98-18.03-.96-6.5,7.48-4.31,12.08-8.89,2.82-2.81,5.07-9.09,5.94-13.07,5.54,2.09,5.67,10.66,9.02,13.94,2.97,2.9,10.58,3.67,10.9,4.15Z"/>
  <path class="st9" d="M178.99,202.65c2.79,2.65,16.75,3.43,15.5,9.47-2.8,5.18-12.63,6.08-15.38,9.64-3.66,4.74-1.25,16.25-11.32,13.48-2.02-.56-4.23-10.22-7.2-13.17-3.52-3.49-15.17-4.67-14.05-9.85,2.11-5.64,11.26-5.64,13.48-7.53,2.68-2.29,2.43-13.02,7.67-15.41,7.82-2.34,8.17,10.39,11.3,13.38ZM186.5,209.17c-.41-.43-7.36-.32-11.11-3.92-3.98-3.82-2.58-10.19-6.87-12.08-1.77,11.91-5.07,15.07-16.02,18.98,2.77,3.85,8.97,3.16,11.98,6.02s2.43,7.5,3.89,9.83c3.84,6.14,4.81-5.57,7.16-8.8,2.75-3.79,14.28-6.57,10.97-10.01Z"/>
  <circle class="st1" cx="242.26" cy="160.98" r="12"/>
  <path class="st7" d="M635.77,213.26c2.64-.76,10.55,3.98,11.73,5.91,7.57,12.41-22.27,38.18-32.7,18.7-7.43-13.88,5.71-8.58,12.52-12.89,4.23-2.68,4.88-10.68,8.45-11.71ZM620.7,238.96c6.22,4.97,26.94-7.63,22.9-15.77-5.21-10.5-8.18.98-12.04,4.03s-8.25,3.28-12.19,5.87c-.77.97,1.1,5.69,1.33,5.88Z"/>
  <path class="st7" d="M185.87,459.46c4.07-.4,9.18,8.77,10.61,12.57-3.47,4.28-9.68,4.53-12.96,9.15-4.15,5.85-.92,14.51-9.52,13.65-24.48-2.45-3.26-33.88,11.87-35.37ZM176.48,489.16c.4-.34.64-6.31,3.08-9.94,2.76-4.11,7.5-5.73,10.9-9.06-7.15-14.16-26.31,9.63-21.04,17.05,1.49,2.1,6.08,2.79,7.06,1.95Z"/>
  <path class="st13" d="M227.78,243.26c2.63-.78,10.58,4.01,11.75,5.91,6.6,10.65-18.78,31.36-29.06,25.02-2.03-1.25-6.67-11.35-5.9-13.85,1.19-3.83,9.01-2.75,13.04-5.08s7.51-11.22,10.17-12ZM229.83,264.48c4.99-4.71,8.61-17.48-.27-15.32-1.72.42-4.24,6.89-7.07,8.98-2.61,1.93-11.78,3.68-11.94,6-.03.52,3.55,6.37,5.16,6.77,2.45.6,11.94-4.37,14.12-6.43Z"/>
  <path class="st13" d="M602.43,449.19c1.16.84,6.27,22.13,18.06,19.99-6.17,33.76-41.7-4.6-32.03-15.02,1.56-1.69,12.15-6.3,13.97-4.97ZM598.47,455.16c-1.63-1.23-5.06,1.08-5.75,3.34-2.34,7.7,11.57,22.81,17.74,19.77,11.3-5.57-2.14-8.35-6.06-12.02-4.13-3.87-5.43-10.71-5.93-11.09Z"/>
  <path class="st7" d="M306.15,185.53c.99.58,8.68,12.12,8.46,14.53-.34,3.74-9.97,11.38-12.83,10.89-2.35-.4-14.36-12.65-13.17-16.53.86-2.79,13.39-11.31,17.54-8.88ZM299.9,191.37c-13.19,3.45,4.5,22.99,10.51,6.94-2.58-2.94-5.87-8.16-10.51-6.94Z"/>
  <circle class="st1" cx="142.06" cy="425.65" r="9.5"/>
  <path class="st13" d="M160.59,296.81c0,6.18-5.01,11.19-11.19,11.19s-11.19-5.01-11.19-11.19,5.01-11.19,11.19-11.19,11.19,5.01,11.19,11.19ZM156,296.59c0-3.58-2.9-6.48-6.48-6.48s-6.48,2.9-6.48,6.48,2.9,6.48,6.48,6.48,6.48-2.9,6.48-6.48Z"/>
  <path class="st9" d="M654.7,325.65c0,6.18-5.01,11.18-11.18,11.18s-11.18-5.01-11.18-11.18,5.01-11.18,11.18-11.18,11.18,5.01,11.18,11.18ZM641.89,319.37c-10.73,2.64-3.49,17.77,6.68,10.84,5.15-3.51-.68-12.32-6.68-10.84Z"/>
  <path class="st2" d="M606.02,296.66c-9.93,10.09-27.26-11.44-11.45-18.52,12.45-5.58,18.67,11.19,11.45,18.52ZM605.53,288.13c0-3.58-2.9-6.48-6.48-6.48s-6.48,2.9-6.48,6.48,2.9,6.48,6.48,6.48,6.48-2.9,6.48-6.48Z"/>
  <path class="st1" d="M580.48,149.15c1.57,1.5-.75,13.63,12.02,12.03-5.75,6.69-9.89,10.05-8.02,19.98-6.31-5.94-11.51-8.46-19.96-4,2.44-8.94,2.03-11.91-2.01-19.99,3.34,0,6.87.55,10.04-.98,2.85-1.37,4.31-10.49,7.93-7.04Z"/>
  <path class="st1" d="M186.5,209.17c3.31,3.45-8.22,6.22-10.97,10.01-2.35,3.24-3.32,14.94-7.16,8.8-1.46-2.33-.92-7.01-3.89-9.83s-9.21-2.17-11.98-6.02c10.95-3.91,14.25-7.06,16.02-18.98,4.29,1.9,2.89,8.26,6.87,12.08,3.75,3.61,10.7,3.5,11.11,3.92Z"/>
  <path class="st1" d="M620.7,238.96c-.24-.19-2.1-4.91-1.33-5.88,3.94-2.59,8.31-2.8,12.19-5.87s6.83-14.53,12.04-4.03c4.04,8.14-16.68,20.74-22.9,15.77Z"/>
  <path class="st1" d="M176.48,489.16c-.98.84-5.57.15-7.06-1.95-5.26-7.42,13.89-31.21,21.04-17.05-3.4,3.33-8.14,4.95-10.9,9.06-2.44,3.64-2.69,9.61-3.08,9.94Z"/>
  <path class="st4" d="M229.83,264.48c-2.18,2.06-11.68,7.02-14.12,6.43-1.61-.39-5.19-6.25-5.16-6.77.15-2.32,9.33-4.07,11.94-6,2.83-2.09,5.36-8.56,7.07-8.98,8.87-2.16,5.26,10.61.27,15.32Z"/>
  <path class="st4" d="M598.47,455.16c.5.38,1.8,7.22,5.93,11.09,3.92,3.67,17.35,6.44,6.06,12.02-6.17,3.04-20.08-12.06-17.74-19.77.69-2.26,4.12-4.57,5.75-3.34Z"/>
  <path class="st1" d="M299.9,191.37c4.64-1.21,7.93,4,10.51,6.94-6.01,16.05-23.7-3.49-10.51-6.94Z"/>
  <circle class="st4" cx="149.52" cy="296.59" r="6.48"/>
  <path class="st1" d="M641.89,319.37c6-1.48,11.83,7.33,6.68,10.84-10.17,6.93-17.41-8.2-6.68-10.84Z"/>
  <circle class="st4" cx="599.06" cy="288.13" r="6.48"/>
  <g>
    <path class="st12" d="M476.5,257.15c.38,6.02,5.66,5.27,10,10,36.43,39.7,50.79,98.09,36,150-.09.31-3.11.42-1.98,4,2.41.08,2.91-2.74,3.98-4,1.96-2.31,9.29-9.98,9.53-11.23,1-5.2-3.41-12.03.02-22.22,3.79-11.27,14.47-10.43,16.07-12.92,1.16-1.81,3.2-19.97,5.42-25.58,9.92-24.96,30.35-12.36,26.98,9.96,7.7-5.37,14.43-13.83,23.92-6.93,17.78,12.92-7.64,28.52-9.66,36.34-1.92,7.46,10.33,16.52-1.41,32.48-7.43,10.11-18.63,9.19-23.83,14.17-2.62,2.5-7.92,14.04-11.42,18.58-12.08,15.69-24.21,29.88-39.8,42.2-4.6,3.63-23.94,13.7-23.95,18.14,0,2.7,15.39,18.25,18.26,19.88,13.4,7.58,39.53,13.25,54.88,13.17,6.45-.03,11.57-4.44,19.87-4.09,35.43,1.51,42.22,46.21,18.88,68.84-4.13,4-34.53,25.76-39.71,28.29-14.91,7.3-51.82,23.53-67.11,24.89-64.2,5.73-126.89,16.63-180.99-28.94-27.51-23.17-38.57-41.73-42.16-78.03-.47-4.73,2.13-9.14,1.76-13.54-.71-8.51-7.41-21.31-6.58-31.45-29.28-16.82-50.9-38.4-70.25-65.75-2.51-3.54-5.82-12.46-7.22-13.77-3.87-3.62-14.93-2.18-22.41-10.6-14.34-16.14-1.66-27.72-3.94-35.96-2.05-7.41-22.82-21.49-10.29-34.03,11.51-11.52,22.63,6.78,25.1,4.09-.18-22.79,19.49-32.53,28.11-7.09,2.17,6.39,2.8,19.19,5.74,23.76,1.95,3.03,11.47,3.97,14.64,11.85,4.22,10.45-3.82,28.21,9.51,31.47-26.06-97.06,51.12-190.86,152.01-182.01-4.27-3.5-8.02-8.36-12-11.98l4-2c15.46,13.88,41.78,19.35,60.53,26.47,10,3.8,19.03,10.96,29.47,13.53ZM302.5,473.15c-3.92-.41-1.81,3.63-12-2-22.72-12.54-43.24-42.5-62.92-60.12-6.05-6.21,1.12-11.55.51-18.39-2.45-27.7-34.34-4.24-27.58,2.5,1.52,1.52,12.64-3.03,15.98-1.98,3.71,9.38-16.42,10.22-21.03,6.04-14.83-13.45,14.79-23.52,15.2-25.22,1.01-4.17-6.68-41.18-16.13-34.81-6.86,4.62,6.03,32.86-1.06,35.96l-19.07-18.88-9.89-3.09c-5.89,12.78,14.31,23.55,15.78,29.4s-11.75,14.02-2.69,28.49c7.56,12.07,17.61,7.3,22.52,10.47,1.02.66,9.28,17.36,11.92,21.08,16.72,23.6,39.23,47.81,66.46,58.54.05.75,3.59,1.53,4,3.44,1.09,5.16,5.68,32.07,6,36.56.16,2.25-2.07,5.33-2,6,4.02,40.27,4.69,44.72,34,72,2.75,2.56,4.33,4.99,8,8,32.66,26.74,75.07,35.7,116.97,31.97,11.11-.99,25.83-7.98,35.03-7.97.34,0,2.25,2.02,4,2,13.78-.17,23.13.44,36.44-4.56,9.38-3.52,14.92-10.56,21.56-13.44,1.08-.47,4.53-.61,8-2,10.88-4.36,26.07-6.61,32-20,2.88.85,4.27-1.24,6-2,7.99-3.53,14.8-7.71,19.68-15.32,16.03-25.02-.63-58.72-31.68-44.68-1.69.76-4.27.69-6,2-7.46-5.24-16.09-3.14-24-4-1.93-.21-4.22.33-6,0-5.33-.99-12.22-5.86-20-8-2.03-.56-4.46-3.41-8-2-.22-.36-4.33-3.95-6-6-3.07-3.75-5.17-5.1-8-8-1.22-1.25-2.75-2.84-4-4-1.92-1.78-5.87-3.66-6-4-.21-.52,2.5-4.22,1.99-5.99-1.49-1.31-10.38,4.67-11.94-1.11-.42-1.55,2.04-4.3,1.95-4.9,30.14-9.56,58.26-37.45,75.65-63.35,2.11-3.15,9.76-19.66,10.72-20.28,3.59-2.31,14.89.16,21.66-7.91,11.74-13.98-3.84-23.4-1.76-31.02,1.45-5.33,20.23-16.55,17.64-26.24-3.82-14.3-28.12,23.1-31.9,18.79-1.21-10.25,3.84-20.78,1.97-30.99-.6-3.3-2-6.22-6.03-4.06-7.45,4-9,26.25-12,33.92.18,1.98,16.86,4.19,18.05,16.33,2.01,20.63-31.33,10.45-23.99,2.82,1.48-1.54,14.5,3.52,15.98,1.98,7.19-7.46-24.72-28.02-26.12-2.94-.84,14.95,6.2,10.58-5.93,25.89-7.01,8.85-16.54,14.5-24.04,21.97-10.76,10.72-23.9,30.93-39.91,35.09-1.67.44-4.4-.46-6,0-1.1-6.13.31-4.81,3.87-7.07,49.31-31.37,61.03-76.15,46.69-132.5-31.96-125.66-213.2-129.44-259.53-12.4-22.77,57.54-10.04,108.53,41.01,142.92,2.91,1.96,6.26,2.13,5.96,7.05ZM185.5,355.15v2c1.3-.67,1.3-1.33,0-2ZM244.48,419.14c1.44-2.81-1.27-5.34-1.96-3.98-1.44,2.81,1.27,5.34,1.96,3.98Z"/>
    <path class="st6" d="M524.5,417.15c-1.07,1.26-1.57,4.07-3.98,4-1.13-3.58,1.89-3.69,1.98-4h2Z"/>
    <path class="st5" d="M302.5,473.15c.3-4.92-3.05-5.09-5.96-7.05-51.05-34.39-63.78-85.38-41.01-142.92,46.33-117.04,227.56-113.26,259.53,12.4,14.33,56.35,2.61,101.13-46.69,132.5-3.56,2.26-4.97.94-3.87,7.07-43.97,12.63-77.43,20.83-123.65,10.65-12.06-2.65-28.17-11.58-38.35-12.65ZM308.5,281.12c13.74,10.31,24.63-7.19,10.92-11.91-1.68-.58-12.33,10.08-10.92,11.91ZM300.53,273.17c.28,3.1-4.49,6.51-4.04,8.94,1.36,7.46,17.83.78,4.04-8.94ZM480.47,305.15c3.88-3.74.75-15.56-3.96-11.98-2.94,2.24-.63,16.4,3.96,11.98ZM274.5,383.15c-25.51,27.6,32.71,43.66,42,18,23.6-.22,40.76-17.74,48.63-38.37,3.52-9.23-1.08-15.75,14.36-15.8,18.39-.06,12.59,6.3,15.49,16.7,6.27,22.45,21.55,38.22,45.53,39.47,6.2,30.58,69.45,16.16,44-14,44.28-44.34-17.3-119.99-70.05-79.05-8.94,6.94-18.42,27.19-19.91,28.09-4.99,3.03-20.17-.23-26.73,1.05-10.73-34.84-43.35-55.87-78.67-38.45-29.67,14.63-36.11,58.75-14.64,82.36ZM355.85,389.37c-12.17,3.73-3.54,56.39,27.14,51.35,15.61-2.56,25.23-24.38,25.59-38.67.51-20.55-16.85-8.09-31.13-8.8-6.26-.31-17.46-5.15-21.6-3.88Z"/>
    <path class="st2" d="M302.5,473.15c10.18,1.07,26.29,9.99,38.35,12.65,46.22,10.18,79.68,1.98,123.65-10.65,1.6-.46,4.33.44,6,0,1.99,9.07,8.72,21.52,10,30,.09.59-2.37,3.35-1.95,4.9,1.57,5.78,10.45-.19,11.94,1.11.5,1.76-2.2,5.46-1.99,5.99-37.65,47.99-115.21,55.71-169.92,36.92-10.62-3.65-19.49-10.09-30.08-12.92-.32-4.49-4.91-31.4-6-36.56-.4-1.91-3.95-2.68-4-3.44-.29-4.38,11.8-23.26,12-30,10.19,5.63,8.08,1.59,12,2Z"/>
    <path class="st5" d="M498.5,525.15c2.35,47.58-39.54,84.79-82.44,96.56-32.74,8.98-63.19,5.94-95.56-2.56-29.31-27.28-29.98-31.73-34-72,64.35,33.89,158.65,33.21,208-26,1.25,1.16,2.78,2.75,4,4Z"/>
    <path class="st2" d="M512.5,539.15c15.8,25.78,11.08,60.85-6.34,84.66-7.81,10.67-20.19,16.24-25.66,27.34-9.2-.01-23.92,6.98-35.03,7.97-41.9,3.73-84.3-5.23-116.97-31.97,53.17,16.78,125.76,1.06,158.82-46.18,10.95-15.64,14.46-29.65,19.18-47.82,1.67,2.05,5.78,5.64,6,6Z"/>
    <path class="st6" d="M470.5,475.15c16.01-4.16,29.15-24.37,39.91-35.09,7.49-7.47,17.03-13.12,24.04-21.97,12.13-15.31,5.09-10.94,5.93-25.89,1.4-25.07,33.31-4.52,26.12,2.94-1.48,1.54-14.5-3.52-15.98-1.98-7.34,7.63,26,17.81,23.99-2.82-1.19-12.14-17.87-14.35-18.05-16.33,3-7.68,4.55-29.93,12-33.92,4.03-2.16,5.43.77,6.03,4.06,1.87,10.2-3.17,20.73-1.97,30.99,3.79,4.31,28.08-33.09,31.9-18.79,2.59,9.69-16.19,20.91-17.64,26.24-2.08,7.62,13.49,17.05,1.76,31.02-6.77,8.06-18.06,5.59-21.66,7.91-.96.62-8.61,17.13-10.72,20.28-17.39,25.9-45.5,53.79-75.65,63.35-1.28-8.48-8.01-20.93-10-30Z"/>
    <path class="st6" d="M278.5,501.15c-27.23-10.73-49.74-34.94-66.46-58.54-2.63-3.72-10.9-20.43-11.92-21.08-4.92-3.17-14.97,1.6-22.52-10.47-9.06-14.47,4.11-22.82,2.69-28.49s-21.67-16.62-15.78-29.4l9.89,3.09,19.07,18.88c7.09-3.11-5.8-31.34,1.06-35.96,9.45-6.37,17.14,30.64,16.13,34.81-.41,1.7-30.04,11.77-15.2,25.22,4.61,4.18,24.74,3.34,21.03-6.04-3.34-1.06-14.46,3.49-15.98,1.98-6.75-6.75,25.13-30.2,27.58-2.5.61,6.84-6.56,12.18-.51,18.39,19.68,17.63,40.2,47.58,62.92,60.12-.2,6.74-12.29,25.62-12,30Z"/>
    <path class="st2" d="M540.5,549.15c1.18,6.94,6.35,11.51,8.97,18.03,9.86,24.46,5.28,45.74-6.97,67.97-6.64,2.88-12.18,9.92-21.56,13.44-13.31,5-22.66,4.39-36.44,4.56,37.15-24.82,55.42-69.57,36-112,7.78,2.14,14.67,7.01,20,8Z"/>
    <path class="st5" d="M570.5,553.15c15.85,11.14,19.44,43.2,12,60-5.93,13.39-21.12,15.64-32,20,16.14-26.31,14.72-59.28-4-84,7.91.86,16.54-1.24,24,4Z"/>
    <path class="st9" d="M506.5,533.15c-4.72,18.17-8.23,32.18-19.18,47.82-33.06,47.24-105.65,62.96-158.82,46.18-3.67-3.01-5.25-5.44-8-8,32.37,8.5,62.82,11.54,95.56,2.56,42.9-11.77,84.79-48.98,82.44-96.56,2.83,2.9,4.93,4.25,8,8Z"/>
    <path class="st9" d="M494.5,521.15c-49.35,59.21-143.65,59.89-208,26-.07-.67,2.16-3.75,2-6,10.59,2.83,19.46,9.27,30.08,12.92,54.71,18.79,132.27,11.07,169.92-36.92.13.34,4.08,2.22,6,4Z"/>
    <path class="st2" d="M588.5,611.15c5.85-21.74,5.7-44.04-12-60,31.05-14.04,47.7,19.65,31.68,44.68-4.87,7.61-11.68,11.8-19.68,15.32Z"/>
    <path class="st9" d="M520.5,541.15c19.42,42.43,1.15,87.18-36,112-1.75.02-3.66-2-4-2,5.47-11.11,17.84-16.67,25.66-27.34,17.43-23.8,22.15-58.88,6.34-84.66,3.54-1.41,5.97,1.44,8,2Z"/>
    <path class="st9" d="M546.5,549.15c18.72,24.72,20.14,57.69,4,84-3.47,1.39-6.92,1.53-8,2,12.25-22.24,16.83-43.52,6.97-67.97-2.63-6.51-7.8-11.09-8.97-18.03,1.78.33,4.07-.21,6,0Z"/>
    <path class="st9" d="M576.5,551.15c17.7,15.96,17.85,38.26,12,60-1.73.76-3.12,2.85-6,2,7.44-16.8,3.85-48.86-12-60,1.73-1.31,4.31-1.24,6-2Z"/>
    <path class="st3" d="M244.48,419.14c-.69,1.36-3.4-1.17-1.96-3.98.69-1.36,3.4,1.17,1.96,3.98Z"/>
    <path class="st3" d="M185.5,355.15c1.3.67,1.3,1.33,0,2v-2Z"/>
    <g>
      <path class="st0" d="M556.5,221.15c-.67,1.31-3.9,1.8-4,2-1.11-.79-3.18-1.19-4-2-13.87-13.75-27.54-33.32-40.97-48.03-4.49-4.91-27.24-30.66-30.43-31.57l-124.6-6.38c5.14,4.87,29.63,37.2,33.28,37.83,2.74.47,10.04-8.75,14.61-10.96,16.57-8.03,53.5,6.09,69.46,14.77,8.75,4.76,38.41,25.65,42.77,33.23,5.16,8.98-2.32,23.53,1.8,26.2s25.05-.05,32.09,2.91h2c-.63,2.51-1.56,4.36-2,6l-32.67-2.11c-3.62.87-2.53,9.75-3.33,12.11-3.4-.2-4.68-.72-3.98,2.98l1.98,1.02c-5.17,12.06-9.91,7.37-22,8-4.34-4.73-9.62-3.98-10-10,7.14,1.75,14.62,2.43,22,1.98-5.53-7.28-18.23-12.87-26.92-16.06-11.42-4.2-30.33-5.85-39.64-10.36-15.15-7.34-31.77-29.76-52.56-33.46-2.91-.52-5.72-1.25-4.87,2.87,5.07,1.97,10.38,13.58,11.98,15.03l-4,2c-2.62-2.38-7.13-4.37-9.28-6.73-19.21-21.04,8.41-26.71,7.14-34-.54-3.07-37.83-39.03-41.85-46.3-2.16-9.68,29.81-3.19,35.01-2.99,35.64,1.34,71.35,2.08,106.94,5.06,25.37,26.65,50.2,54.01,74.13,81.95,1.49,1.74,1.46,4.5,1.91,5.01ZM504.49,251.14c-.63-10.62,5.41-28.2.97-37.95-3.83-8.44-36.76-29.41-46.25-33.75-12.96-5.92-45.47-17.47-57.82-10.4-1.39.8-20.3,19.77-20.87,21.14-1.5,3.57,1.51,2.59,2.76,3.15,16.3,7.27,25.35,11.25,40.18,21.87,3.92,2.81,7.28,8.76,11.19,10.81,8.23,4.31,29.25,6.71,40.88,11.12,10.26,3.89,19.11,9.49,28.96,14.02Z"/>
      <path class="st7" d="M558.5,223.15c-.32,3.21.47,6.92,0,10-.26,1.69-1.47,4.56-2,8-.29,1.88.25,4.09,0,6-.58,4.41-4.27,11.94-4.11,17.12.14,4.49,3.7,7.02,4.26,11.83.79,6.76-2.43,13.2-2.32,20.03.19,11.55,13.45,31.89-8.33,30.55-29.23-1.8-18.69-20.57-13.98-39,1.08-4.22-.29-9.06.87-13.12,1.5-5.25,8.54-5.98,10.25-9.9,2.41-5.52,1.87-14.01,3.34-19.51.44-1.64,1.37-3.49,2-6,1.05-4.16,2.59-13.25,4-16,.1-.2,3.33-.69,4-2,.61.7,1.38,1.28,2,2ZM551.05,279.16c0-3.29-2.67-5.96-5.96-5.96s-5.96,2.67-5.96,5.96,2.67,5.96,5.96,5.96,5.96-2.67,5.96-5.96ZM550.49,319.15c-1.01-5.13-1.25-25.29-3.85-27.13-8.53-6.04-12.5,8.85-13.35,15.11-1.74,12.72,6.98,11.55,17.2,12.02Z"/>
      <path class="st0" d="M556.5,247.15c.25-1.91-.29-4.12,0-6l10-.02-8-7.98c.47-3.08-.32-6.79,0-10,11.54,13.36,39.96,29.71-2,24Z"/>
      <path class="st12" d="M510.5,255.15c-.64,1.92-1.49,2.81-2,4l-1.98-1.02c-.7-3.7.58-3.18,3.98-2.98Z"/>
      <path class="st10" d="M386.5,217.15c-1.61-1.44-6.91-13.06-11.98-15.03-.85-4.12,1.96-3.39,4.87-2.87,20.78,3.7,37.4,26.12,52.56,33.46,9.31,4.51,28.22,6.16,39.64,10.36,8.69,3.2,21.39,8.78,26.92,16.06-7.38.45-14.86-.23-22-1.98-10.45-2.56-19.47-9.73-29.47-13.53-18.74-7.12-45.07-12.59-60.53-26.47Z"/>
      <path class="st11" d="M548.5,221.15l-2,18c-7.04-2.96-28-.26-32.09-2.91s3.36-17.22-1.8-26.2c-4.36-7.59-34.02-28.48-42.77-33.23-15.96-8.68-52.88-22.8-69.46-14.77-4.56,2.21-11.86,11.43-14.61,10.96-3.65-.63-28.14-32.96-33.28-37.83l124.6,6.38c3.19.91,25.94,26.66,30.43,31.57,13.43,14.71,27.1,34.28,40.97,48.03Z"/>
      <path class="st11" d="M504.49,251.14c-9.85-4.53-18.7-10.13-28.96-14.02-11.63-4.41-32.66-6.81-40.88-11.12-3.91-2.05-7.27-8-11.19-10.81-14.83-10.62-23.88-14.6-40.18-21.87-1.25-.56-4.26.42-2.76-3.15.58-1.37,19.48-20.34,20.87-21.14,12.35-7.08,44.86,4.47,57.82,10.4,9.49,4.34,42.42,25.31,46.25,33.75,4.43,9.75-1.61,27.33-.97,37.95Z"/>
      <path class="st13" d="M552.5,223.15c-1.41,2.75-2.95,11.84-4,16h-2l2-18c.82.81,2.89,1.21,4,2Z"/>
      <path class="st1" d="M550.49,319.15c-10.22-.47-18.94.7-17.2-12.02.86-6.26,4.82-21.14,13.35-15.11,2.6,1.84,2.84,22,3.85,27.13Z"/>
      <circle class="st1" cx="545.09" cy="279.16" r="5.96"/>
      <path class="st13" d="M558.5,233.15l8,7.98-10,.02c.53-3.44,1.74-6.31,2-8Z"/>
    </g>
    <path class="st14" d="M274.5,383.15c-21.46-23.61-15.03-67.73,14.64-82.36,35.33-17.42,67.94,3.61,78.67,38.45,6.56-1.28,21.73,1.98,26.73-1.05,1.48-.9,10.96-21.15,19.91-28.09,52.75-40.94,114.33,34.71,70.05,79.05-10.77,10.78-29.2,14.77-44,14-23.98-1.25-39.26-17.02-45.53-39.47-2.9-10.4,2.9-16.75-15.49-16.7-15.44.05-10.84,6.57-14.36,15.8-7.87,20.63-25.03,38.15-48.63,38.37-12.2.12-33.64-8.81-42-18ZM283.55,378.09c8.67,8.74,20.64,13.4,32.93,12.82,20.52-.96,37.57-16.15,40.89-36.43,3.32-20.28-8-40.11-27.15-47.57-19.15-7.46-40.9-.5-52.17,16.68-11.27,17.18-8.98,39.9,5.49,54.49ZM442.38,394.4c11.9,1.17,23.75-2.67,32.7-10.6,15.24-13.5,18.93-35.84,8.83-53.51-10.1-17.68-31.22-25.85-50.58-19.57s-31.68,25.28-29.48,45.52c2.19,20.24,18.28,36.17,38.54,38.16Z"/>
    <path class="st12" d="M355.85,389.37c4.15-1.27,15.34,3.57,21.6,3.88,14.28.71,31.64-11.74,31.13,8.8-.36,14.28-9.98,36.1-25.59,38.67-30.68,5.04-39.32-47.62-27.14-51.35ZM360.5,419.15c5.63,14.98,19.83,22.12,32.04,9.04,4.65-4.99,4.21-9.71,5.96-15.04,1.18-3.61,8.6-13.2.69-15.79-3.2-1.05-15.95,1.89-21.76,1.91-17.82.04-27.65-8.67-16.93,19.88Z"/>
    <path class="st1" d="M440.5,403.15c14.8.77,33.23-3.22,44-14,25.45,30.16-37.8,44.58-44,14Z"/>
    <path class="st1" d="M316.5,401.15c-9.29,25.66-67.51,9.6-42-18,8.36,9.19,29.8,18.12,42,18Z"/>
    <path class="st8" d="M308.5,281.12c-1.41-1.84,9.24-12.49,10.92-11.91,13.71,4.72,2.83,22.23-10.92,11.91Z"/>
    <path class="st8" d="M300.53,273.17c13.79,9.72-2.68,16.39-4.04,8.94-.44-2.42,4.32-5.84,4.04-8.94Z"/>
    <path class="st8" d="M480.47,305.15c-4.58,4.42-6.9-9.74-3.96-11.98,4.71-3.58,7.84,8.24,3.96,11.98Z"/>
    <path class="st5" d="M316.49,390.91c-3.91-13.39-19.88-14.87-32.93-12.82-14.47-14.59-16.75-37.31-5.49-54.49,11.27-17.18,33.02-24.14,52.17-16.68,19.15,7.46,30.46,27.29,27.15,47.57-3.32,20.28-20.37,35.47-40.89,36.43ZM294.49,319.14c-6.68-1.57-2.6,4.77-4.9,8.07-1.68,2.41-7.66,1.88-9.08,4.96,9.89-.05,8.91,9.87,10.01,10.99,3.65,3.69,4.58-5.86,6.89-8.16,1.3-1.3,8.66-2.33,5.09-5.81-1.26-1.23-10.62,1.46-8.01-10.04ZM344.49,365.14c1.37-1.39-.72-10.16-2.21-12.77-6.98-12.24-27.93-12.15-37.09-2.53-4.93,5.19-8.65,16.8,1.93,13.33,3.73-1.22,4.28-13.76,18.19-11.97,9.58,1.23,14.03,19.16,19.17,13.93Z"/>
    <path class="st5" d="M475.07,383.8c-12.84-.59-25.79-3.53-32.7,10.6-20.26-1.99-36.35-17.92-38.54-38.16-2.19-20.24,10.12-39.24,29.48-45.52s40.48,1.89,50.58,19.57c10.1,17.68,6.42,40.02-8.83,53.51ZM478.35,345.01c1.67-2.67-6.91-9.8-5.88-13.85-3.32-.18-1.59,3.95-4.01,6.94-1.15,1.43-4.72,1.94-5.93,4.04,4.28,3.39,8.71,4.44,7.98,10.99,3.24.29,2.39-4.28,3.93-6.67.98-1.52,3.78-1.26,3.9-1.46ZM431.96,345.61c-9.3,1.9-23.35,19.13-14.44,21.53,7.1,1.91,6.38-7.37,10.98-10.97,5.83-4.56,13.6-3.94,19.06.93,2.86,2.55,7.25,17.13,11.97,10.08,2.75-14.85-14.27-24.3-27.56-21.57Z"/>
    <path class="st1" d="M316.49,390.91c-12.3.58-24.26-4.08-32.93-12.82,13.05-2.04,29.02-.57,32.93,12.82Z"/>
    <path class="st1" d="M475.07,383.8c-8.95,7.93-20.8,11.77-32.7,10.6,6.91-14.13,19.85-11.19,32.7-10.6Z"/>
    <path class="st7" d="M398.5,413.15c-15.08-5.11-25.34-1.8-38,6-10.72-28.55-.89-19.84,16.93-19.88,5.8-.01,18.55-2.95,21.76-1.91,7.91,2.58.5,12.18-.69,15.79Z"/>
    <path class="st1" d="M398.5,413.15c-1.75,5.33-1.31,10.06-5.96,15.04-12.21,13.08-26.41,5.94-32.04-9.04,12.66-7.8,22.92-11.11,38-6Z"/>
    <path class="st12" d="M344.49,365.14c-5.15,5.23-9.59-12.7-19.17-13.93-13.92-1.79-14.47,10.75-18.19,11.97-10.58,3.47-6.86-8.15-1.93-13.33,9.16-9.63,30.11-9.71,37.09,2.53,1.49,2.61,3.58,11.38,2.21,12.77Z"/>
    <path class="st1" d="M294.49,319.14c-2.6,11.5,6.75,8.8,8.01,10.04,3.56,3.49-3.79,4.51-5.09,5.81-2.31,2.31-3.23,11.86-6.89,8.16-1.11-1.12-.12-11.04-10.01-10.99,1.42-3.08,7.39-2.55,9.08-4.96,2.31-3.3-1.77-9.63,4.9-8.07Z"/>
    <path class="st12" d="M431.96,345.61c13.29-2.72,30.31,6.73,27.56,21.57-4.72,7.04-9.11-7.53-11.97-10.08-5.46-4.87-13.23-5.49-19.06-.93-4.6,3.6-3.88,12.88-10.98,10.97-8.91-2.4,5.15-19.62,14.44-21.53Z"/>
    <path class="st8" d="M478.35,345.01c-.12.2-2.92-.06-3.9,1.46-1.54,2.39-.69,6.96-3.93,6.67.73-6.55-3.71-7.6-7.98-10.99,1.21-2.1,4.78-2.61,5.93-4.04,2.42-3,.69-7.13,4.01-6.94-1.03,4.04,7.55,11.18,5.88,13.85Z"/>
  </g>
</svg>