<?xml version="1.0" encoding="UTF-8"?>
<svg id="_레이어_1" data-name="레이어_1" xmlns="http://www.w3.org/2000/svg" version="1.1" viewBox="0 0 800 800">
  <!-- Generator: Adobe Illustrator 30.0.0, SVG Export Plug-In . SVG Version: 2.1.1 Build 123)  -->
  <defs>
    <style>
      .st0 {
        fill: #19232e;
      }

      .st1 {
        fill: #dab482;
      }

      .st2 {
        fill: #4b3c31;
      }

      .st3 {
        fill: #7ea05b;
      }

      .st4 {
        fill: #fdfefd;
      }

      .st5 {
        fill: #b6d2bb;
      }

      .st6 {
        fill: #98be70;
      }

      .st7 {
        fill: #92b86e;
      }

      .st8 {
        fill: #a8825d;
      }

      .st9 {
        fill: #f5e3ca;
      }

      .st10 {
        fill: #578240;
      }

      .st11 {
        fill: #272c31;
      }

      .st12 {
        fill: #2e4767;
      }

      .st13 {
        fill: #1b251d;
      }

      .st14 {
        fill: #9b8d4d;
      }
    </style>
  </defs>
  <path class="st13" d="M302.05,241.65c6.53-.18,18.31-.25,24.74.22,21.61,1.6,38.81,15.07,61.89,13.57,15.38-1,27.67-4.83,44.47-3.88,11.47.64,27.84,8.85,34.91-1.9,1.17,5.97,20.3,20.28,25.94,27.06,38.05,45.72,48.32,128.65,8,175.88-3.13,3.67-17.36,15.26-17.73,16.41-.61,1.9,3.72,22.2,4.88,24.57.55,1.12,16.41,16.86,17.46,17.54,8.53,5.47,49.56,12.93,60.32,12.43,3.77-.18,7.23-3.07,10.6-3.41,39.87-4.13,57.45,31.84,35.41,63.4-4.38,6.28-37.84,32.27-45.46,36.54-8.64,4.85-18.33,5.33-25.45,8.55-20.11,9.09-34.39,21.28-58.97,21.2-20.05-.07-23.01.88-42.24,3.59-56.67,7.99-137.75-15.23-167.59-67.92-11.13-19.65-10.55-36.26-13.18-57.85-24.11,6.45-43.05.97-56.82-20.15-3.55-5.45-8.83-20.45-11.69-23.31-5.32-5.31-16.18-6.1-19.88-17.09-7.44-22.12,8.91-24.84,10.45-34.55,1.1-6.91-9.07-34.22,7.96-30.89-.26,1.88.39,4.32,0,6s-2.21,2.5-2.12,6.76c.11,5.53,4.84,17.71,3.83,21.88-1.37,5.63-13.5,5.02-13.88,20.35-.46,18.45,15.37,15.43,21.08,23.11,3.38,4.55,5.21,16.64,10.22,23.78,11.73,16.72,29.42,23.04,48.99,17.25,3.5-2.39,1.31-11.04,1.88-15.12,7.17-.28,5.45-1.15,5.98,4.93.89,10.18,2.58,17.44,4.02,27.07.28,1.89-.3,4.12,0,6,5.85,37.13,9.5,42.41,38,66,4.99,4.13,7.39,7.72,14,12,25.29,16.37,68.98,26.94,98.98,25.98,15.32-.49,32.75-7.83,47.02-7.98,4.13-.04,8.8,2.05,10,2,31.17-1.19,35.62-9.76,60-20,2.36-.99,5.7-.99,8-2,21.16-9.25,17.87-10.13,34-22,1.51-1.11,5.17-1.79,8-4,3.79-2.95,10.05-5.36,13.79-9.21,21.48-22.16,13.44-62.06-20.75-56.69-4.21.66-6.52,3.79-7.03,3.9-1.54.33-4.16.02-6,0-6.98-.08-18.87-1.19-26-2-1.93-.22-4.14.29-6,0-8.06-1.26-12.87-7.39-22-8-1.98-.13-4.01.09-6,0-.73-1.17-8.03-6.45-10-8-1.75-1.38-1.5-5.75-6-2-.44-2.37-3.23-7.34-5.98-8-6.05,31.49-23.56,43.96-54.02,48-4.96.66-11.22-.8-16,0-19.78-5.55-48.76.59-63.06-15.94-12.41-14.35-6.47-34.06,11.06-40.06,9.48-3.24,3.18,2.51,12.89-6.01,6.24-5.47,15.63-3.45,21.11,2.01.31.31.17,3.32,1.9,5,6.97,6.79,8.29,8.24,19.14,7.04,14.4-1.59,11.64-10.93,15.38-13.7,1.65-1.23,4.57.09,5.58-.35,3.51,20.26-25.57,26.65-39.45,18.45-6.32-3.73-8.98-14.66-18.54-14.44,2.59,15.87-5.45,7.95-16.59,10.42-20.04,4.44-13.32,31.99,11.8,35.35,16.48,2.21,41.82,5.69,57.85,4.29,30.26-2.64,53.73-36.69,42.92-65.06-3.63-9.54-6.42-.38-13.58.7-2.99.45-4.17-1.74-4.41-1.72-1.07-6.48.22-4.8,3.99-6.94,40.25-22.91,57.12-52.57,56.11-100.16-.95-44.39-29.36-110.49-79.13-114.87-21.71-1.91-44.35,6.18-59.68,5.35-15.46-.84-38.45-15.33-60.25-15.53-47.76-.45-88.34,67.54-94.83,109.36-7.95,51.24,10.63,85.72,51.84,113.74,2.89,1.96,6.27,2.12,5.96,7.05-.26-.03-1.94,2.27-4.76,2.04-5-.4-5.04-4.4-11.24-2.04-10.75,4.09-20.67,15.45-34.46,4.02-12.5-10.37.87-20.82-1.89-30.56-3.5-12.37-30.59-9.11-26.64,4.55h15s0,5.98,0,5.98c-11.12.42-24.63,2.49-22.02-12.89,2.04-12.05,20.8-12.19,30.01-11.1.76.09,2.93,3.34,5.99,1.99,1.57-4.16-3.36-4.75-3.99-5.99-4.62-9.1-10.44-27.96-12-38-.29-1.85.18-4.06,0-6-3.19-33.63,4.51-63.93,22.39-92.61,9.84-15.79,42.57-52.86,61.61-53.39ZM238.05,445.65c3.7,10.77-8.99,24,1.25,29.74,9.36,5.26,17.95.17,24.71-6.75-9.51-6.22-16.52-14.67-23.96-23-1.61-1.81-2.72-4.49-5.02-5.96l3.02,5.96Z"/>
  <path class="st11" d="M218.05,387.65c.18,1.94-.29,4.15,0,6-23.13-6.41-10.29,35.96-12.01,37.99-4.96,5.84-11.21-25.03-15.99-23.99.39-1.68-.26-4.12,0-6,2.51.49,4.22,5.13,7.99,3.99.56-16.2,5.37-17.63,20.01-17.99Z"/>
  <path class="st6" d="M284.05,475.65c.31-4.93-3.07-5.08-5.96-7.05-41.21-28.02-59.79-62.5-51.84-113.74,6.49-41.82,47.06-109.81,94.83-109.36,21.8.2,44.79,14.7,60.25,15.53,15.34.83,37.97-7.26,59.68-5.35,49.77,4.38,78.18,70.48,79.13,114.87,1.02,47.58-15.86,77.25-56.11,100.16-3.77,2.14-5.06.46-3.99,6.94-4.29.52-6.23,1.16-10,2-17.22,3.83-33.89,11.67-52,12-5.48-5.46-14.87-7.49-21.11-2.01-9.71,8.52-3.41,2.77-12.89,6.01-6.83-6.25-16.61-3.03-24.76-4.24-18.06-2.68-41.44-14.4-55.24-15.76ZM254.05,385.65c-28.53,27.22,32.55,48.11,42,18,22.85.72,44.34-13.18,52.37-34.63,5.41-14.45-1.6-22.43,18.55-21.46,17.65.85,11.74,12.11,16.72,25.46,7.02,18.83,30.05,36.46,50.37,36.63,10.93,30.21,69.4,11.75,44-18,23.61-24.89,18.97-66.5-9.33-85.67-33.88-22.95-78.45-3.17-86.69,35.68-9.31-3.07-18.99-1.9-28.67-1.92-8.29-36.16-47.41-60.79-82.39-42.16-32.03,17.05-41.54,60.34-16.93,88.07ZM343.44,389.97c-10.16,2.39-5.05,24.36-.25,31.55,16.08,24.07,49.72,9.86,50.22-17.2.34-18.15-19.12-9.58-32.34-10.68-5.24-.44-13.93-4.54-17.63-3.67Z"/>
  <path class="st6" d="M492.05,511.65c8.17,43.53-46.91,87.6-83.58,99.42-33.08,10.66-67.52,8.33-100.42-1.42-28.5-23.59-32.15-28.87-38-66,42.79,26.43,101.3,30.91,149.06,16.07,3.07-.95,14.01-3.3,12.94-8.07,30.46-4.03,47.97-16.51,54.02-48,2.75.66,5.53,5.63,5.98,8Z"/>
  <path class="st3" d="M508.05,521.65c17.33,27.88,5.45,74.05-16.07,96.93l-23.93,21.07c-14.27.14-31.7,7.48-47.02,7.98-30,.96-73.69-9.61-98.98-25.98,13.33-.51,27.69,4.11,40.97,4.16,60.64.2,137.05-44.62,135.03-112.16,1.97,1.55,9.27,6.83,10,8Z"/>
  <path class="st3" d="M284.05,475.65c13.79,1.37,37.17,13.08,55.24,15.76,8.15,1.21,17.93-2.02,24.76,4.24-17.53,6-23.47,25.71-11.06,40.06,14.3,16.53,43.28,10.39,63.06,15.94-40.07,6.69-55.04,14.35-98.85,3.85-16.87-4.04-31.08-12.38-47.15-17.85-1.44-9.63-3.13-16.89-4.02-27.07-.53-6.08,1.19-5.2-5.98-4.93,1.42-10.1,4.23-20.53,8-30,6.2-2.36,6.23,1.64,11.24,2.04,2.82.22,4.51-2.07,4.76-2.04Z"/>
  <path class="st7" d="M460.05,477.65c.23-.03,1.42,2.17,4.41,1.72,7.16-1.08,9.95-10.24,13.58-.7,10.81,28.37-12.66,62.42-42.92,65.06-16.03,1.4-41.37-2.09-57.85-4.29-25.12-3.36-31.84-30.91-11.8-35.35,11.14-2.47,19.18,5.45,16.59-10.42,9.56-.22,12.22,10.71,18.54,14.44,13.87,8.2,42.96,1.81,39.45-18.45,4.55-1.97,9.86-4.27,10-10,3.77-.84,5.71-1.48,10-2Z"/>
  <path class="st7" d="M218.05,393.65c1.56,10.04,7.38,28.9,12,38l-2,4c-9.22-1.09-27.97-.95-30.01,11.1-2.6,15.38,10.9,13.31,22.02,12.89v-5.98s-15,0-15,0c-3.94-13.66,23.15-16.93,26.64-4.55,2.75,9.74-10.61,20.19,1.89,30.56,13.79,11.44,23.71.07,34.46-4.02-3.77,9.47-6.58,19.9-8,30-.57,4.08,1.62,12.73-1.88,15.12-19.57,5.79-37.26-.53-48.99-17.25-5.01-7.14-6.84-19.23-10.22-23.78-5.71-7.67-21.54-4.66-21.08-23.11.39-15.33,12.52-14.72,13.88-20.35,1.01-4.16-3.72-16.35-3.83-21.88-.09-4.27,1.73-5.07,2.12-6.76,4.78-1.04,11.03,29.83,15.99,23.99,1.72-2.03-11.12-44.4,12.01-37.99Z"/>
  <path class="st3" d="M536.05,529.65c.73,7.67,6.57,11.93,9.54,19.46,4.9,12.43,5.74,27.84,3.94,41.02-1.65,12.1-8.49,20.38-11.48,31.52-24.38,10.24-28.83,18.81-60,20l29.65-33.35c15.3-26.1,20.84-58.92,6.35-86.65,9.13.61,13.94,6.74,22,8Z"/>
  <path class="st6" d="M568.05,531.65c15.04,20.87,20.9,40.76,12,66-16.13,11.87-12.84,12.75-34,22,16.8-28.34,16.4-63.66-4-90,7.13.81,19.02,1.92,26,2Z"/>
  <path class="st10" d="M498.05,513.65c2.02,67.53-74.4,112.36-135.03,112.16-13.27-.04-27.64-4.67-40.97-4.16-6.61-4.28-9.01-7.87-14-12,32.9,9.75,67.34,12.08,100.42,1.42,36.67-11.82,91.75-55.89,83.58-99.42,4.5-3.75,4.25.62,6,2Z"/>
  <path class="st3" d="M588.05,593.65c4.15-22,3.66-45.97-14-62,.52-.11,2.83-3.24,7.03-3.9,34.19-5.37,42.23,34.53,20.75,56.69-3.74,3.86-10,6.26-13.79,9.21Z"/>
  <path class="st10" d="M416.05,551.65c4.78-.8,11.04.66,16,0,1.07,4.77-9.87,7.12-12.94,8.07-47.76,14.84-106.27,10.36-149.06-16.07-.3-1.88.28-4.11,0-6,16.07,5.47,30.28,13.81,47.15,17.85,43.81,10.5,58.78,2.85,98.85-3.85Z"/>
  <path class="st10" d="M514.05,521.65c14.48,27.73,8.94,60.55-6.35,86.65l-29.65,33.35c-1.2.05-5.87-2.04-10-2l23.93-21.07c21.52-22.88,33.39-69.06,16.07-96.93,1.99.09,4.02-.13,6,0Z"/>
  <path class="st10" d="M542.05,529.65c20.4,26.34,20.8,61.66,4,90-2.3,1.01-5.64,1.01-8,2,2.99-11.13,9.83-19.42,11.48-31.52,1.8-13.19.96-28.6-3.94-41.02-2.97-7.53-8.81-11.79-9.54-19.46,1.86.29,4.07-.22,6,0Z"/>
  <path class="st3" d="M450.05,479.65c-.14,5.73-5.45,8.03-10,10-1.01.44-3.93-.88-5.58.35-3.73,2.77-.98,12.11-15.38,13.7-10.85,1.2-12.18-.25-19.14-7.04-1.73-1.68-1.59-4.7-1.9-5,18.11-.33,34.78-8.17,52-12Z"/>
  <path class="st10" d="M574.05,531.65c17.66,16.03,18.15,40,14,62-2.83,2.21-6.49,2.89-8,4,8.9-25.24,3.04-45.13-12-66,1.84.02,4.46.33,6,0Z"/>
  <path class="st4" d="M238.05,445.65h2c7.44,8.33,14.46,16.78,23.96,23-6.76,6.92-15.35,12-24.71,6.75-10.24-5.75,2.45-18.98-1.25-29.74Z"/>
  <path class="st5" d="M230.05,431.65c.63,1.24,5.56,1.82,3.99,5.99-3.06,1.35-5.24-1.9-5.99-1.99l2-4Z"/>
  <path class="st5" d="M240.05,445.65h-2l-3.02-5.96c2.3,1.47,3.41,4.15,5.02,5.96Z"/>
  <path class="st14" d="M254.05,385.65c-24.61-27.73-15.1-71.02,16.93-88.07,34.98-18.62,74.1,6,82.39,42.16,9.68.02,19.36-1.15,28.67,1.92,8.24-38.85,52.8-58.64,86.69-35.68,28.3,19.17,32.94,60.79,9.33,85.67-9.28,9.78-30.8,18.11-44,18-20.31-.17-43.34-17.8-50.37-36.63-4.98-13.34.93-24.6-16.72-25.46-20.14-.97-13.14,7.01-18.55,21.46-8.03,21.45-29.52,35.35-52.37,34.63-13.05-.41-33.3-8.2-42-18ZM263.52,380.18c9.08,9.23,21.61,14.23,34.55,13.79,21.87-.74,40.22-16.71,43.98-38.26,3.76-21.55-8.09-42.79-28.41-50.91s-43.54-.88-55.66,17.34-9.81,42.43,5.53,58.03ZM433.96,399.19c12.9.81,25.55-3.78,34.93-12.66,16.01-15.16,19.19-39.48,7.6-58.25-11.58-18.77-34.74-26.83-55.48-19.32s-33.35,28.55-30.22,50.37c3.13,21.83,21.15,38.47,43.16,39.85Z"/>
  <path class="st1" d="M434.05,409.65c13.2.11,34.72-8.22,44-18,25.4,29.75-33.07,48.21-44,18Z"/>
  <path class="st1" d="M296.05,403.65c-9.45,30.11-70.53,9.22-42-18,8.7,9.8,28.95,17.59,42,18Z"/>
  <path class="st13" d="M343.44,389.97c3.7-.87,12.39,3.23,17.63,3.67,13.22,1.1,32.68-7.47,32.34,10.68-.5,27.07-34.14,41.27-50.22,17.2-4.8-7.18-9.91-29.15.25-31.55ZM348.05,415.65c5.77,11.16,13.9,16.3,26.74,9.74,7.58-3.87,6.88-8.1,9.26-13.74,1.56-3.71,5.08-6.86,4-12h-33c-1.48,0-10.63-4.47-10.98-4-1.41,9.57.16,12.61,3.98,20Z"/>
  <path class="st6" d="M468.89,386.53c-14.05-1.79-27.42-1.41-34.93,12.66-22.01-1.38-40.03-18.02-43.16-39.85-3.13-21.83,9.48-42.86,30.22-50.37s43.89.55,55.48,19.32c11.58,18.77,8.41,43.08-7.6,58.25ZM450.04,365.64c.82-22.24-43.05-18.59-45.98-4.96-2.44,11.37,13.31-.57,14.82-1.19,14.67-5.96,18.41,3.59,31.16,6.14Z"/>
  <path class="st6" d="M298.06,393.97c-4.4-14.9-21.28-15.21-34.55-13.79-15.34-15.6-17.65-39.81-5.53-58.03s35.34-25.45,55.66-17.34,32.17,29.35,28.41,50.91c-3.76,21.55-22.12,37.52-43.98,38.26ZM330.11,354.49c0-10.62-8.61-19.23-19.23-19.23s-19.23,8.61-19.23,19.23,8.61,19.23,19.23,19.23,19.23-8.61,19.23-19.23Z"/>
  <path class="st1" d="M298.06,393.97c-12.94.44-25.47-4.56-34.55-13.79,13.27-1.41,30.15-1.11,34.55,13.79Z"/>
  <path class="st1" d="M468.89,386.53c-9.38,8.88-22.03,13.47-34.93,12.66,7.51-14.07,20.88-14.45,34.93-12.66Z"/>
  <path class="st8" d="M348.05,415.65c-3.82-7.39-5.39-10.43-3.98-20,.35-.47,9.5,4,10.98,4h33c1.08,5.14-2.44,8.29-4,12-13.5-4.2-23.59-1.24-36,4Z"/>
  <path class="st1" d="M384.05,411.65c-2.37,5.64-1.67,9.87-9.26,13.74-12.84,6.56-20.98,1.42-26.74-9.74,12.41-5.24,22.5-8.2,36-4Z"/>
  <path class="st13" d="M450.04,365.64c-12.75-2.55-16.49-12.1-31.16-6.14-1.51.61-17.26,12.56-14.82,1.19,2.92-13.64,46.8-17.28,45.98,4.96Z"/>
  <path class="st2" d="M330.11,354.49c0,10.62-8.61,19.23-19.23,19.23s-19.23-8.61-19.23-19.23,8.61-19.23,19.23-19.23,19.23,8.61,19.23,19.23ZM322.06,351.64c1.77-13.62-11.7-13.87-10.01,0h10.01Z"/>
  <path class="st9" d="M322.06,351.64h-10.01c-1.69-13.87,11.79-13.62,10.01,0Z"/>
  <g>
    <path class="st0" d="M502.05,195.65c1.04,2.32-1.94,5.34-2,6l-109.03-52.13c-43.16,10.69-84.88,28.55-126.96,43.12,14.17,10.7,31.02,17.31,46.9,25.07,10.48-39.78,76.18-32.52,107.09-25.07,20.28,4.89,47.94,13.21,46,39.01,3.36,3.34,35.72-11.84,42-10.01.28,1.17-.26,2.79,0,4,.15.72-.25,1.72,0,2-11.56,7.57-41.81,2.56-38,22-7.07,10.75-23.43,2.55-34.91,1.9-16.8-.94-29.09,2.88-44.47,3.88-23.07,1.5-40.28-11.97-61.89-13.57-6.42-.48-18.21-.4-24.74-.22,1.35-3.67,5.54-14.96,3.77-17.75-1.58-2.48-45.45-21.56-52.44-26.58-2.74-1.97-6.02-3.57-5.32-7.64l139.46-49.64c9.39-1.25,98.94,47.56,114.54,55.61ZM460.05,249.64c-1.85-9.98-2.15-30.21-10.06-36.94-4.99-4.25-27.73-11.13-35.09-12.91-29.95-7.2-58.66-9.13-87.46,3.71-7.12,9.39-11.85,19.81-15.32,31.22-1.13,3.72.58,2.65,2.89,2.92,21.63,2.57,50.07,13.42,66.14,14.07,8.79.36,18.82-3.65,27.82-4.15,17.09-.95,34.12.97,51.08,2.07Z"/>
    <path class="st8" d="M520.05,223.65c1.85,4.55,2.16,17.92,5.82,22.7,1.91,2.49,6.65,1.52,9.63,3.88,5.06,4.02,3.61,12.34,5.63,17.34,6.15,15.22,35.35,21.06,13.93,36.09-28.8,20.22-30.54-9.37-36.38-27.65-1.55-4.85-6.18-8.82-6.68-13.56-.65-6.2,3.45-7.97,4.05-11.96.64-4.3-4.02-16.79-6.05-21.4-.97-2.21-3.79-1.26-3.96-1.44-.25-.28.15-1.28,0-2,3.27-.69,3.13-3.09,0-4-.28-1.19.31-2.88,0-4l-2-4c-.56-2.27-1.54-4.21-2-6-.65-3.63-.46-8.46,4.92-5.92,3.82,1.8,7.42,14.2,9.38,18.71.8,1.83,3.56,2.87,3.7,3.22ZM532.53,261.35c0-3.42-2.77-6.19-6.19-6.19s-6.19,2.77-6.19,6.19,2.77,6.19,6.19,6.19,6.19-2.77,6.19-6.19ZM528.06,273.65c-.27,19.1,5.41,37.81,26,20.96.6-2.64-21.03-25.91-26-20.96Z"/>
    <path class="st11" d="M502.05,195.65c5.67,2.93,30.99,12.59,33.02,15.98,6.09,10.17-7.87,9.13-15.02,12.02-.14-.35-2.91-1.38-3.7-3.22-1.96-4.5-5.55-16.9-9.38-18.71-5.38-2.54-5.57,2.3-4.92,5.92-.3-1.17-2.4-1.65-2-6,.06-.66,3.04-3.68,2-6Z"/>
    <path class="st12" d="M500.05,201.65c-.4,4.35,1.7,4.83,2,6,.46,1.79,1.44,3.73,2,6,.64,2.61,1.94,3.78,2,4,.31,1.12-.28,2.81,0,4-6.28-1.83-38.64,13.35-42,10.01,1.94-25.8-25.72-34.12-46-39.01-30.91-7.46-96.61-14.71-107.09,25.07-15.88-7.76-32.73-14.37-46.9-25.07,42.09-14.56,83.8-32.43,126.96-43.12l109.03,52.13Z"/>
    <path class="st12" d="M460.05,249.64c-16.96-1.1-33.99-3.02-51.08-2.07-9,.5-19.03,4.51-27.82,4.15-16.08-.65-44.51-11.5-66.14-14.07-2.31-.27-4.02.79-2.89-2.92,3.48-11.41,8.21-21.84,15.32-31.22,28.8-12.84,57.51-10.92,87.46-3.71,7.37,1.77,30.1,8.66,35.09,12.91,7.91,6.73,8.2,26.95,10.06,36.94Z"/>
    <path class="st13" d="M506.05,225.65c-.26-1.21.28-2.83,0-4,3.13.91,3.27,3.31,0,4Z"/>
    <path class="st1" d="M528.06,273.65c4.97-4.94,26.59,18.32,26,20.96-20.59,16.84-26.27-1.86-26-20.96Z"/>
    <circle class="st1" cx="526.34" cy="261.35" r="6.19"/>
    <path class="st0" d="M506.05,217.65c-.06-.22-1.36-1.39-2-4l2,4Z"/>
  </g>
</svg>