<?xml version="1.0" encoding="UTF-8"?>
<svg id="_레이어_1" data-name="레이어_1" xmlns="http://www.w3.org/2000/svg" version="1.1" viewBox="0 0 800 800">
  <!-- Generator: Adobe Illustrator 30.0.0, SVG Export Plug-In . SVG Version: 2.1.1 Build 123)  -->
  <defs>
    <style>
      .st0 {
        fill: #19232e;
      }

      .st1 {
        fill: #dab482;
      }

      .st2 {
        fill: #4b3c31;
      }

      .st3 {
        fill: #7ea05b;
      }

      .st4 {
        fill: #fdfefd;
      }

      .st5 {
        fill: #b6d2bb;
      }

      .st6 {
        fill: #98be70;
      }

      .st7 {
        fill: #92b86e;
      }

      .st8 {
        fill: #a8825d;
      }

      .st9 {
        fill: #f5e3ca;
      }

      .st10 {
        fill: #578240;
      }

      .st11 {
        fill: #272c31;
      }

      .st12 {
        fill: #2e4767;
      }

      .st13 {
        fill: #1b251d;
      }

      .st14 {
        fill: #496151;
      }

      .st15 {
        fill: #9b8d4d;
      }
    </style>
  </defs>
  <path class="st13" d="M492.84,244.36c-5.16,1.96-36.62,8.64-38.02,10.02-.42.41,2.2,11,2.5,11.51.65,1.14,15.85,13.18,19.46,17.52,39.55,47.54,44.96,123.51,3.11,170.99-4.12,4.67-11.7,6.46-10.8,12.51.15,1.03,8.65,16.96,9.73,18.47,2.11,2.94,14.67,15.33,17.53,16.47,11.05,4.38,40.11,10.57,51.21,9.9,3.2-.19,6.7-2.92,10.44-3.23,32.16-2.7,48.96,19.95,36.83,49.84l-4-2c.59-1.74-.04-7.34,0-10,.22-13.57-3.01-28.14-18.94-30.04-5-.59-14.78-.68-19.06,2.04-.87.55-1.82.43-2,2-8.71.26-14.9-4.83-24-4-1.83.17-5.14,2.86-8,2-1.85-2.03-16.26-7.75-20-8-1.98-.13-4.01.09-6,0-2.02-3.34-6.47-8.03-9.98-10,.32,9.48.33,17.68-2.14,26.88-1.93,7.21-10.91,19.11-11.49,22.48-.38,2.19,3.18,7.25,3.67,11.59,2.47,21.88-18.63,27.89-36.07,21.05-.26-.1-1.97-2.73-4-4-12.81-8.01-17.48-15.86-16-32,.17-1.81,1.26-6.46,2-8,2.89-6.04,11.72-10.42,13.55-19.47,2.17-10.71-4.95-19.46-3.71-25.32.48-2.27,3.93-.93,4.16-1.21,10.52,13.91,10.19,24.03,1.67,38.67-2.31,3.97-7.36,6.69-8.78,11.21-9.29,29.66,31.72,45.51,39.59,27.61,1.54-3.51,3.1-9.29-1.52-11.47-5.1-2.4-1.4,8.97-6,9.97-13.01-5.46,5.76-22.67,9.8-30.22,6.97-13.01,9.24-27.6,6.75-42.3-.59-3.49-10.2-24.26-11.82-25.21-3.14-1.84-20.32,9.66-15.66-1.22.48-1.12,16.58-11.09,19.98-14.02,28.29-24.35,33.37-49.14,33.98-85.02,0-.35,2.27-2.46,1.98-6.63-.26-3.68-1.75-6.52-3.98-9.37-.29-23.16-24.49-74.35-46.9-82.1-12.67-4.38-34.39-3.8-47.59-1.39-9.8,1.78-20.21,7.63-28.99,9.02-21.94,3.47-41.55-25.25-70.15-18.15-32.61,8.1-48.44,44.62-62.36,70.62-2.3,4.3-4.27,10-10,10,3.1-9.77,3.86-17.66,8.94-28.06,8.98-18.35,40.02-57.27,61.06-59.94,12.89-1.64,29.24,7.66,41.54,11.54,2.32.73,5.03.02,6.46.46,5.38,1.66,15.18,7.61,18.65,7.49,5.39-.18,20.13-7.07,27.29-8.55,16.43-3.41,35.84-4.94,52.04-.94.57-2.37-.73-8.82.02-10,.29-.46,5.63,2.41,4-8l36-10c.9,2.07,2.25,3.23,4,8Z"/>
  <path class="st13" d="M228.84,370.36c-.71,4.78-.53,15.56.89,20.1,1.79,5.7,10.37,8.74,14.33,14.9-.4,3.15.46,6.71.78,9,.4,2.95,0,6.83,0,10v8c-.99.24-2.8-.62-3.7.3s0,2.89-.3,3.7c-2.46,6.92-.63,8.52.01,16.01,5.8.6,2.92-3.67,7.99-8.01,2.96-2.53,1.95-.39,6-6,5.65,13.36,18.94,19.42,30.04,26.96,2.89,1.96,6.27,2.11,5.96,7.04-.63-.08-7.99,2.7-11.99,0-2.28,12.11-4.9,22.17-3.75,34.77.69,7.61,4.78,15.13,5.75,21.24.3,1.87-.34,4.19,0,6,6.2,33.31,4.67,35.76,32,58,5.66,4.6,7.74,9.33,16,12,27.46,19.56,67.63,25,100.97,21.97,10.59-.96,19.72-5.02,31.03-5.97,2.63-.22,5.37.24,8,0,34.04-3.16,27.16-5.42,54-18,2.2-1.03,5.66-1,8-2,5.25-2.24,17.8-5,22-8l2,2c-.51.36-1.78,5.37-8.22,8.79-6.73,3.57-14.7,3.9-21.17,6.82-15.39,6.94-21.51,15.95-41.82,18.18-18.6,2.04-41.54,4.95-59.71,6.29-47.78,3.51-98.95-12.63-131.13-49.02-18.9-21.38-16.37-30.08-20.13-55.87-2.43-16.67-16.82-12.79-30.37-17.63-17.47-6.25-34.57-21.4-41-39-7.15-19.56-9.07-65.29,11.69-77.4,5.42-3.16,15.22-1.83,13.91-10.15-.15-.94-3.76,0-4.25-3.9-.74-5.83,1.7-7.95,2.19-11.1h4ZM268.84,510.36v-29c0-1.64,4.65-8.1,4-8.97-7.47.86-27.02-10.91-30.95-5.98-1.09,1.37-7.35,19.58-13.05,13.94-2.05-2.03,7.56-18.07,7.92-23.23.5-7.24-4.41-12.65-4.07-19.74.28-5.95,5.39-12.1,5.5-18.37.25-13.57-14.72-25.74-25.39-13.13-10.23,12.1-10.56,41.76-7.07,56.58,6.93,29.49,34.23,45.37,63.11,47.89ZM268.82,462.39c-5.73.99-16.15-18.82-19.96-9-2.49,6.4,10.09,8.59,14.31,9.66,1.93.49,6.18,3.05,5.65-.66Z"/>
  <path class="st2" d="M332.84,372.36c.18,2.55.14,5.44,0,8-1.78,31.7-19.19,44.86-48,52-1.53.16-3.33-1.89-4-2v-2c68.87-6.59,58.21-114.83-16.11-99.11-16.86,3.57-33.45,24.6-35.89,41.11h-4c1.99-12.67,4.4-16.66,8-28,5.73,0,7.7-5.7,10-10l23.18-9.82c33.78-5.37,64.29,14.83,66.82,49.82Z"/>
  <path class="st7" d="M594.84,558.36c-3.63,8.95-6.39,12.64-13.98,19.02-8.08,6.79-18.5,11.68-26.02,16.98l-2-2c2.46-1.76,5.27-8.49,8.15-10.86,3.59-2.96,8.82-3.91,12.85-7.14,2.34-1.88,16.57-16.74,17-18l4,2Z"/>
  <path class="st6" d="M500.84,370.36c-.6,35.88-5.68,60.67-33.98,85.02-3.4,2.93-19.5,12.9-19.98,14.02-4.66,10.88,12.52-.62,15.66,1.22,1.62.95,11.23,21.72,11.82,25.21,2.49,14.7.22,29.29-6.75,42.3-4.04,7.55-22.82,24.76-9.8,30.22,4.6-1,.9-12.37,6-9.97,4.62,2.18,3.06,7.96,1.52,11.47-7.87,17.9-48.88,2.06-39.59-27.61,1.42-4.53,6.47-7.24,8.78-11.21,8.51-14.64,8.85-24.77-1.67-38.67,1.45-1.81,8.93-17.06,7.99-17.99-38.13,14.26-78.36,15.22-118.01,7.01-10.31-2.14-22.72-7.82-31.98-9.02.31-4.93-3.07-5.08-5.96-7.04-11.1-7.54-24.39-13.59-30.04-26.96.54-.74,1.5-1.28,2-2,11.01,2.12,18.59-1.67,28-4,28.81-7.14,46.22-20.3,48-52,23.56-1.68,17.89,1.97,23.88,17.12,9.07,22.92,26.4,37.05,52.12,34.88-.84,5.22,10,8.96,13.47,9.56,17.75,3.03,40.06-10.71,22.53-27.56,7.26-9.87,8.2-34.91,11.35-38.16,1.54-1.59,29.98-17.76,31.8-17.87,10.68-.64,2.85,11.29,12.85,12.03ZM340.29,408.68c-16.23,2.45-13.09,37.53,3.54,37.53,19.31,0,15.35-40.38-3.54-37.53Z"/>
  <path class="st6" d="M498.84,354.36c-12.11-15.46-33.73,9.39-47.97,12-11.9-38.27-65.29-46.85-87.69-12.67-2.48,3.79-6.82,16.8-8.25,17.81-3.83,2.7-16.16-3.84-22.09.86-2.53-34.99-33.04-55.19-66.82-49.82l-23.18,9.82c13.92-26,29.75-62.52,62.36-70.62,28.6-7.1,48.21,21.62,70.15,18.15,8.79-1.39,19.19-7.24,28.99-9.02,13.2-2.4,34.92-2.99,47.59,1.39,22.41,7.75,46.61,58.94,46.9,82.1Z"/>
  <path class="st3" d="M290.84,472.36c9.26,1.2,21.67,6.88,31.98,9.02,39.65,8.21,79.87,7.25,118.01-7.01.94.93-6.54,16.18-7.99,17.99-.23.28-3.68-1.06-4.16,1.21-1.24,5.86,5.88,14.61,3.71,25.32-1.84,9.05-10.67,13.43-13.55,19.47-31.99,11.84-70.74,14.15-103.56,4.56-12.69-3.71-22.18-10.91-34.44-14.56-.97-6.1-5.06-13.63-5.75-21.24-1.14-12.6,1.48-22.66,3.75-34.77,4,2.71,11.37-.07,11.99,0Z"/>
  <path class="st6" d="M416.84,546.36c-1.48,16.14,3.19,23.99,16,32,1.06,4.84-2.46,4.14-5.26,5.64-38.5,20.56-73.42,22.46-114.74,8.36-27.33-22.24-25.8-24.69-32-58,39.61,25.16,92.1,24.89,136,12Z"/>
  <path class="st3" d="M492.84,510.36c17.83,29.48,8.53,68.83-14.06,92.94-6.15,6.56-14.87,9.11-17.94,17.06-11.32.95-20.44,5-31.03,5.97-33.33,3.03-73.51-2.41-100.97-21.97,26.63,8.61,71.3,1.71,96.08-10.92,4.21-2.15,11.7-5.65,11.92-11.08,17.44,6.83,38.54.82,36.07-21.05-.49-4.33-4.05-9.4-3.67-11.59.58-3.36,9.55-15.27,11.49-22.48,2.47-9.21,2.46-17.4,2.14-26.88,3.51,1.97,7.96,6.66,9.98,10Z"/>
  <path class="st15" d="M332.84,372.36c5.93-4.69,18.26,1.84,22.09-.86,1.43-1.01,5.77-14.02,8.25-17.81,22.4-34.18,75.79-25.61,87.69,12.67,14.24-2.61,35.87-27.46,47.97-12,2.23,2.85,3.72,5.69,3.98,9.37.29,4.17-1.97,6.28-1.98,6.63-10-.73-2.17-12.66-12.85-12.03-1.82.11-30.26,16.28-31.8,17.87-3.14,3.25-4.09,28.29-11.35,38.16-6.31,8.58-25.36,17.11-36,18-25.71,2.16-43.05-11.97-52.12-34.88-5.99-15.15-.33-18.8-23.88-17.12.14-2.56.18-5.45,0-8ZM444.33,382.53c0-22.07-17.89-39.97-39.97-39.97s-39.97,17.89-39.97,39.97,17.89,39.97,39.97,39.97,39.97-17.89,39.97-39.97Z"/>
  <path class="st3" d="M518.84,518.36c.88.97,10.57,20.78,11.55,23.45,8.08,22.03,3.25,40.65-7.55,60.55-26.84,12.58-19.96,14.84-54,18,32.8-24.92,52.33-71.88,30-110,3.74.25,18.15,5.97,20,8Z"/>
  <path class="st7" d="M550.84,520.36c-.54,4.82,9.15,14.5,11.43,21.57,2.42,7.48,3.09,14.61,2.57,22.43-10.73,12.02-12.8,10.41-26,16,6.35-23.19-1.63-43.71-12-64,9.1-.83,15.29,4.26,24,4Z"/>
  <path class="st5" d="M570.84,554.36c.11-.18,3.12.45,4.06-1.33,2.17-4.11,3.29-14.74,6.96-16.65,5.2-2.71,1.65,12.26,8.97,9.98-.04,2.66.59,8.26,0,10-.43,1.26-14.66,16.12-17,18-4.03,3.23-9.26,4.18-12.85,7.14-2.87,2.37-5.69,9.1-8.15,10.86-4.2,3-16.75,5.76-22,8,.94-3.3,4.48-6.97,5.14-9.97,1.1-5.04-4.02-7.12,2.86-10.03,13.2-5.59,15.27-3.98,26-16,5.5-6.16,3.68-6.34,6-10Z"/>
  <path class="st10" d="M418.84,538.36c-.74,1.54-1.83,6.19-2,8-43.9,12.89-96.39,13.16-136-12-.34-1.81.3-4.13,0-6,12.27,3.65,21.75,10.85,34.44,14.56,32.82,9.59,71.57,7.28,103.56-4.56Z"/>
  <path class="st10" d="M436.84,582.36c-.23,5.43-7.71,8.93-11.92,11.08-24.78,12.64-69.45,19.54-96.08,10.92-8.26-2.67-10.34-7.4-16-12,41.31,14.09,76.23,12.2,114.74-8.36,2.8-1.5,6.33-.79,5.26-5.64,2.03,1.27,3.74,3.9,4,4Z"/>
  <path class="st10" d="M498.84,510.36c22.33,38.12,2.8,85.08-30,110-2.63.24-5.37-.22-8,0,3.07-7.94,11.79-10.49,17.94-17.06,22.59-24.11,31.89-63.47,14.06-92.94,1.99.09,4.02-.13,6,0Z"/>
  <path class="st3" d="M590.84,546.36c-7.32,2.28-3.77-12.69-8.97-9.98-3.67,1.91-4.79,12.55-6.96,16.65-.94,1.78-3.95,1.15-4.06,1.33-.91-13.72-6.69-27.73-18-36,4.27-2.71,14.05-2.63,19.06-2.04,15.94,1.89,19.17,16.47,18.94,30.04Z"/>
  <path class="st10" d="M538.84,580.36c-6.88,2.91-1.76,4.99-2.86,10.03-.66,3-4.19,6.67-5.14,9.97-2.34,1-5.8.97-8,2,10.79-19.9,15.63-38.52,7.55-60.55-.98-2.67-10.67-22.49-11.55-23.45,2.86.86,6.17-1.83,8-2,10.37,20.29,18.35,40.81,12,64Z"/>
  <path class="st10" d="M570.84,554.36c-2.32,3.66-.5,3.84-6,10,.52-7.82-.15-14.95-2.57-22.43-2.28-7.06-11.97-16.74-11.43-21.57.18-1.57,1.13-1.45,2-2,11.31,8.27,17.09,22.28,18,36Z"/>
  <path class="st7" d="M268.84,510.36c-28.87-2.53-56.17-18.41-63.11-47.89-3.49-14.82-3.16-44.48,7.07-56.58,10.67-12.62,25.64-.45,25.39,13.13-.12,6.27-5.22,12.42-5.5,18.37-.34,7.09,4.57,12.5,4.07,19.74-.36,5.16-9.97,21.2-7.92,23.23,5.7,5.64,11.95-12.57,13.05-13.94,3.93-4.93,23.47,6.84,30.95,5.98.65.88-4,7.34-4,8.97v29Z"/>
  <path class="st14" d="M280.84,428.36c-8.13.78-16.83-2.57-24-6-4.1-1.96-7.86-5.85-12-8-.31-2.3-1.18-5.86-.78-9,15.62,19,43.69,21.74,62.69,6.12,19-15.62,21.74-43.69,6.12-62.69-15.62-19-43.69-21.74-62.69-6.12-19,15.62-21.74,43.69-6.12,62.69-3.96-6.15-12.54-9.19-14.33-14.9-1.42-4.54-1.6-15.32-.89-20.1,2.44-16.52,19.02-37.55,35.89-41.11,74.32-15.72,84.98,92.52,16.11,99.11Z"/>
  <path class="st11" d="M280.84,428.36v2c-1.24-.19-2.69.08-4,0-1.97-.12-4.02-.04-6,0s-4.05-.2-6,0l-1-1.96-1,1.96c-7.4,1.47-4.06,3.21-6,6-.5.72-1.46,1.26-2,2-4.05,5.61-3.04,3.47-6,6-.25-4.74-3.33-7.76-8-8,.29-.81-.62-2.78.3-3.7s2.71-.06,3.7-.3c10.31-2.44,4.82-2.58,8-6,.4-.43,5.5,1.1,4-4,7.17,3.43,15.87,6.78,24,6Z"/>
  <path class="st5" d="M268.82,462.39c.53,3.71-3.72,1.15-5.65.66-4.22-1.07-16.8-3.27-14.31-9.66,3.81-9.81,14.23,9.99,19.96,9Z"/>
  <path class="st14" d="M248.84,444.36c-5.07,4.34-2.19,8.6-7.99,8.01-.65-7.48-2.48-9.08-.01-16.01,4.67.24,7.75,3.26,8,8Z"/>
  <path class="st2" d="M256.84,422.36c1.5,5.1-3.6,3.57-4,4l-8-2c0-3.17.4-7.05,0-10,4.14,2.15,7.9,6.04,12,8Z"/>
  <path class="st3" d="M252.84,426.36c-3.18,3.42,2.31,3.56-8,6v-8l8,2Z"/>
  <g>
    <path class="st0" d="M502.84,240.36c-1.38-2.84-9.3-19.17-10.24-19.76-6.63-4.17-5.82,3.13-5.76,7.76-1.48-3-2.37-6.08-4-8.99-32.66-16.87-65.42-34.06-99.12-48.96-39.17,10.37-76.44,26.27-114.85,38.97l-2.02,2.95,43.96,22.03c6.86-35.09,61.82-30.17,88.44-25.41,23.39,4.18,49.44,10.88,53.59,37.41,1.63,10.41-3.71,7.54-4,8-6.83-9.38-1.19-19.65-12.6-26.4-17.78-10.53-57.94-17.05-78.37-15.57-29.45,2.15-41.36,9.53-45.04,39.97,12.25,1.53,28.9,5.5,38.01,14-1.43-.44-4.15.27-6.46-.46-12.3-3.88-28.65-13.18-41.54-11.54l4.01-13.97c-6.68-3.38-52.1-23.79-53.67-26.33-.85-1.37-.84-6,0-7.39l128.73-44.42,8.37,1.68,126.5,63.49c8.54,6.81-8.61,12.5-13.95,12.95Z"/>
    <path class="st8" d="M486.84,228.36c-.06-4.63-.87-11.93,5.76-7.76.94.59,8.86,16.92,10.24,19.76,2.24,4.6,3.99,16.31,7.08,19.92,2.39,2.79,7.98,2.52,11.02,6.98,3.08,4.51,2.93,12.15,6.2,17.8,3.3,5.71,16.19,14.35,17.42,18.73,3.58,12.74-19.35,17.89-28.8,16.71-8.3-1.04-8.74-26.71-11.33-32.8-1.26-2.97-5.09-2.77-5.62-4.74-1.8-6.67,2.3-14.08,1.96-19.5-.3-4.69-6.12-14.19-7.93-19.1s-3.1-5.93-4-8c-.24-.56.25-1.45,0-2-.58-1.28-.57-3.1-2-6ZM514.52,270.65c-7.08-4.4-14.8,3.78-9.23,9.2,7.72,7.5,14.81-5.73,9.23-9.2ZM520.49,286.75c-14.81-8.51-7.57,24.11,1.39,25.67,4.05.7,16.05-1.59,14.86-6.92-4.16-1.87-14.99-18.02-16.26-18.75Z"/>
    <path class="st12" d="M486.84,228.36c.03,2.19-.56,5.05,2,6,.25.55-.24,1.44,0,2l-36,10c-4.15-26.53-30.2-33.24-53.59-37.41-26.62-4.75-81.58-9.67-88.44,25.41l-43.96-22.03,2.02-2.95c38.41-12.7,75.68-28.6,114.85-38.97,33.7,14.89,66.46,32.09,99.12,48.96,1.64,2.91,2.53,5.99,4,8.99Z"/>
    <path class="st12" d="M448.84,254.36c-.75,1.18.55,7.63-.02,10-16.2-3.99-35.6-2.47-52.04.94-7.16,1.49-21.89,8.37-27.29,8.55-3.47.11-13.27-5.84-18.65-7.49-9.11-8.5-25.76-12.47-38.01-14,3.68-30.44,15.59-37.82,45.04-39.97,20.43-1.49,60.59,5.04,78.37,15.57,11.41,6.75,5.76,17.03,12.6,26.4Z"/>
    <path class="st1" d="M520.49,286.75c1.26.73,12.09,16.88,16.26,18.75,1.19,5.34-10.81,7.63-14.86,6.92-8.97-1.56-16.2-34.18-1.39-25.67Z"/>
    <path class="st1" d="M514.52,270.65c5.58,3.47-1.51,16.7-9.23,9.2-5.57-5.42,2.15-13.6,9.23-9.2Z"/>
    <path class="st13" d="M488.84,234.36c-2.56-.95-1.97-3.81-2-6,1.43,2.9,1.42,4.72,2,6Z"/>
  </g>
  <path class="st1" d="M262.84,430.36c.63-.13,1.35.07,2,0,1.95-.2,4.03.04,6,0,.28,3.01,5.72,3.01,6,0,1.31.08,2.76-.19,4,0,.67.11,2.47,2.16,4,2-9.41,2.33-16.99,6.12-28,4,1.94-2.79-1.4-4.53,6-6Z"/>
  <path class="st1" d="M444.84,414.36c17.53,16.85-4.77,30.58-22.53,27.56-3.47-.59-14.32-4.34-13.47-9.56,10.64-.89,29.69-9.42,36-18Z"/>
  <path class="st13" d="M340.29,408.68c18.89-2.85,22.85,37.53,3.54,37.53-16.63,0-19.77-35.09-3.54-37.53ZM340.1,414.48c-8.53,2.45-6.69,27.31,5.47,25.75,9.84-5.23,5.23-28.83-5.47-25.75Z"/>
  <path class="st5" d="M444.33,382.53c0,22.07-17.89,39.97-39.97,39.97s-39.97-17.89-39.97-39.97,17.89-39.97,39.97-39.97,39.97,17.89,39.97,39.97ZM394.83,350.37c-4.57-4.45-23.28,10.56-22,16.95,1.6,8,16.46-7.02,18.69-9.27,1.72-1.74,5.81-5.23,3.3-7.68ZM390.3,368.71c-23.98,4.96-13.04,47.94,11.28,35.39,18.62-9.61,8.31-39.44-11.28-35.39Z"/>
  <path class="st2" d="M244.06,405.36c-15.62-19-12.88-47.07,6.12-62.69,19-15.62,47.07-12.88,62.69,6.12,15.62,19,12.88,47.07-6.12,62.69-19,15.62-47.07,12.88-62.69-6.12ZM252.7,406.51c8.25,7.26,19.17,10.7,30.09,9.49,18.33-2.04,32.72-16.63,34.51-34.98,1.79-18.35-9.51-35.45-27.1-41-17.59-5.54-36.65,1.98-45.71,18.04-9.06,16.06-5.64,36.27,8.2,48.45Z"/>
  <path class="st2" d="M276.84,430.36c-.28,3.01-5.72,3.01-6,0,1.98-.04,4.03-.12,6,0Z"/>
  <path class="st2" d="M264.84,430.36c-.65.07-1.37-.13-2,0l1-1.96,1,1.96Z"/>
  <path class="st8" d="M340.1,414.48c10.71-3.08,15.32,20.52,5.47,25.75-12.17,1.56-14-23.3-5.47-25.75Z"/>
  <path class="st2" d="M390.3,368.71c19.59-4.05,29.9,25.78,11.28,35.39-24.32,12.55-35.26-30.42-11.28-35.39ZM392.99,381.34c0-2.85-2.31-5.17-5.17-5.17s-5.17,2.31-5.17,5.17,2.31,5.17,5.17,5.17,5.17-2.31,5.17-5.17Z"/>
  <path class="st4" d="M394.83,350.37c2.51,2.45-1.58,5.94-3.3,7.68-2.23,2.25-17.09,17.27-18.69,9.27-1.28-6.39,17.43-21.4,22-16.95Z"/>
  <path class="st5" d="M282.8,416c-2.16-11.63-20.56-14.71-30.09-9.49-13.84-12.18-17.26-32.39-8.2-48.45,9.06-16.06,28.13-23.58,45.71-18.04,17.59,5.54,28.89,22.64,27.1,41-1.79,18.35-16.19,32.94-34.51,34.98ZM272.83,346.37c-7.91-2.81-27.38,12.07-26,18.95,1.94,9.68,10.54-4.82,11.92-6.05,2.16-1.94,16.99-10.41,14.08-12.9ZM309.57,384.04c0-9.88-8.01-17.9-17.9-17.9s-17.9,8.01-17.9,17.9,8.01,17.9,17.9,17.9,17.9-8.01,17.9-17.9Z"/>
  <path class="st9" d="M282.8,416c-10.92,1.22-21.85-2.23-30.09-9.49,9.54-5.22,27.93-2.15,30.09,9.49Z"/>
  <circle class="st9" cx="387.83" cy="381.34" r="5.17"/>
  <path class="st2" d="M309.57,384.04c0,9.88-8.01,17.9-17.9,17.9s-17.9-8.01-17.9-17.9,8.01-17.9,17.9-17.9,17.9,8.01,17.9,17.9ZM290.99,377.34c0-2.85-2.31-5.17-5.17-5.17s-5.17,2.31-5.17,5.17,2.31,5.17,5.17,5.17,5.17-2.31,5.17-5.17Z"/>
  <path class="st4" d="M272.83,346.37c2.91,2.49-11.92,10.96-14.08,12.9-1.37,1.23-9.97,15.73-11.92,6.05-1.38-6.87,18.08-21.76,26-18.95Z"/>
  <circle class="st9" cx="285.83" cy="377.34" r="5.17"/>
</svg>