<?xml version="1.0" encoding="UTF-8"?>
<svg id="_레이어_1" data-name="레이어_1" xmlns="http://www.w3.org/2000/svg" version="1.1" viewBox="0 0 800 800">
  <!-- Generator: Adobe Illustrator 30.0.0, SVG Export Plug-In . SVG Version: 2.1.1 Build 123)  -->
  <defs>
    <style>
      .st0 {
        fill: #19232e;
      }

      .st1 {
        fill: #dab482;
      }

      .st2 {
        fill: #4b3c31;
      }

      .st3 {
        fill: #7ea05b;
      }

      .st4 {
        fill: #b6d2bb;
      }

      .st5 {
        fill: #98be70;
      }

      .st6 {
        fill: #92b86e;
      }

      .st7 {
        fill: #a8825d;
      }

      .st8 {
        fill: #578240;
      }

      .st9 {
        fill: #2e4767;
      }

      .st10 {
        fill: #1b251d;
      }

      .st11 {
        fill: #9b8d4d;
      }
    </style>
  </defs>
  <path class="st4" d="M182.31,536.61c-1.11,1.17-10.97-3.13-13.98-1.99,2.34,9.55-3.99,15.39-4.01,23.99,9.06-2.27,14.53,3.41,22.78,3.88l3.22-10.74c12.96-4.8,8,14.13-.02,17.83s-10.87-1.15-17.11-2.83c-6.58-1.77-16.12,1.32-16.87-11.29-.07-1.21,5.2-22.48,5.84-23.51,5.96-9.64,26.08-1.59,20.15,4.66Z"/>
  <path class="st4" d="M182.33,548.61c-1.76-8.71,5.83-7.21,10.64-10.33,3.13-2.03,15.81-14.12,17.34-6.62,1.16,5.66-21.09,19.8-27.98,16.96Z"/>
  <g>
    <path class="st10" d="M240.32,536.62l1.16-1.53c5.05,1.06,9.6,1.84,14.84,1.53,3.2,6.57,10.65,6.22,16,8,27.52,9.15,66.43,8.69,92.5-6.5,15.4-8.97,11.3-12.42,33.5-19.5,12.51-3.99,18.22-7.03,20-22,.46-.17,1.3.04,2,0,1.33-.07,2.67.04,4,0-1.18,3.84.32,8.77-2.45,14.55-9.67,20.17-41.83,11.57-45.24,28.92-3.58,18.26,36.12,12.12,46.8,8.63,27.15-8.88,35.53-31.05,32.9-58.1,1.08.45,4.1-.84,5.65.29,4.97,3.62,1.21,25.85-1.65,31.69,1.51,1.26,9.24-4.87,10-5.98,1.89.26,4.3-.38,6,0,3.72.84,6.68,3.46,12,2-.25,3.87,1.83,4.25,4,6,12.71,10.24,17.96,5.38,30,8,.62.14,3.28,3.5,6,4,16.54,3.05,25.97,1.51,42,0,2.59-.24,5.48.35,8,0,20.21-2.81,20.36-6.31,36-14,2.73-1.34,6.68-1.01,12-4,18.94-10.64,38.03-34.55,25.73-56.73-6.78-12.23-22.55-15.22-33.73-7.27-1.17.83-2.75,1.26-4,2-1.5-1.67-16.69-7.59-20-8-1.95-.24-4.03.16-6,0-.47-.75-10.46-9.18-12-10-2.59-1.38-5.02-2.14-8-2-4.59-21.5-14.01-45.06-30-60-3.29-3.08-5.78-4.07-8-6-30.1-26.12-38.57-30.89-80-22-2.44.52-5.61,3.55-8,4-3.06.57-13.1-.76-13.99.01,4.96,11.05,11.17,20.52,14.51,32.47,6.49,23.26,7.03,45.98.08,69.2-1.51,5.03-.38,4.96-6.6,4.32,13.73-68.08-14.23-137.45-86.28-154.72-13.62-3.26-21.96-5.21-33.72,2.72,1.67-9.3,10.7-2.37,8-14,7.11,2.74,22.16,2.33,32.01,4.99,27.6,7.44,51.19,27.18,69.22,48.53,19.76-1.87,35.45-10.55,55.87-9.59,32.01,1.5,70.25,34.93,82.62,63.36,4.13,9.48,5.42,23.2,12.4,29.6s26.14,15.23,35.4,16.77c6.21,1.03,10.14-2.8,15.66-3.51,28.43-3.65,39.54,22.97,33.45,47.48-7.05,28.36-53.25,50.57-79.65,54.35-26.69,3.82-52.8.94-78.61-5.35-11.1-2.7-19.23-15.14-29.52-14.48-1.01.06-16.02,8.94-17.58,10.12-5.35,4.05-8.99,10.92-16.62,15.38-14.71,8.6-49.57,15.69-63.71,4.41-2.85-2.27-6.1-9.31-7.85-9.59-2.11-.33-32.03,11.94-40.6,13.02-35,4.4-57.96-2.8-86.49-21.49Z"/>
    <path class="st0" d="M162.32,366.62c-6.42.4-29.86,11.12-30.02,1.09s68.21-98.54,77.4-114.71l137.31-26.17c4.68,2.39,3.12,3.6,1.74,7.2-4.43,11.58-33.43,40.99-34.09,47.96-.27,2.81,7.5,9.79,9.66,10.62,2.7,11.63-6.33,4.7-8,14-.68.46-1.24,1.44-2,2h-10c4.21-4.55,8.68-7.93,13.99-10.99-9.74-8.17-21.06-22.47-34.49-20.55-21.45,3.06-57.54,23.66-72.52,39.52-12.34,13.06-16.62,17.98-12.98,36.02-3.1-.69-5.65,1.45-8,2-1.38-13.43-4.06-17.18,4-28.99,16-23.43,69.93-59.51,98.88-54.89,6.23,1,11.6,8.47,14.04,7.89s25.47-36.69,29.07-41.98l-121.95,23.03c-16.56,22.94-32.46,46.39-48.18,69.91-1.77,2.65-1.48,6.46-1.87,7.04-.19.29-1.15-.21-4,4-1.33,1.97-17.51,20.79-16,21.98l18-1.98c.01,2,.03,4,0,6Z"/>
    <path class="st11" d="M404.32,436.62c-1.75,11.46-12.87,23.37-20,32-20.5,5.08-25.77,14.03-49.36,2.36-10.42-5.16-14.9-17.07-28.17-10.87-10.26,4.79-4.4,13.99-4.38,21.43.05,18.84-.38,30.29-16.09,43.08-.08-4.38-1.93-7.02-2-8-.04-.63-.14-1.56,0-2,1.24-3.87,8.01-8.82,9.51-17.47,11.27-65.04-98.73-60.92-73.51,9.47.37,1.03-.37,2.97,0,4l-6,2c-4.03-7.23-4.99-12.65-8-20,4.1-2.76,1.11-9.98,2-14,2.66-11.97,12.36-21.07,20-30,13.88-1.54,20.9-8.61,38.87-5.87,10.15,1.55,26.1,15.96,28.13,15.95,4.01-.01,11.36-11.2,19.01-8.09-16.44-41.73,14.45-76.34,58.11-67.1,22.88,4.84,35.19,31.47,31.89,53.11ZM378.63,461.1c8.49-5.61,14.46-14.32,16.62-24.27,3.96-18.23-5.55-36.72-22.68-44.1-17.13-7.39-37.1-1.61-47.64,13.79-10.54,15.4-8.7,36.1,4.38,49.4,13.09,13.3,33.76,15.47,49.32,5.19Z"/>
    <path class="st10" d="M314.32,308.62c-12.09,8.97-34.37,38.46-42.08,42.92-7.72,4.47-32.03,8.89-43.85,14.15-20.57,9.15-25.03,11.32-29.52,34.48-5.01,25.85-1.54,54.52,9.45,78.45-.89,4.02,2.1,11.24-2,14-12.71-31.04-21.02-56.31-15.79-90.79,1.11-7.31,7.18-19.71,7.3-24.57.02-.75-3.07-14.02-3.6-14.55-2.4-2.38-19.28,2.93-23.91,1.9-.11-1.59-1.75-4.65-2-8,7.31-.34,14.88-.33,22-2,2.35-.55,4.9-2.69,8-2,.75,3.74,4.1,16.27,8.7,15.82,1.34-.13,18.33-9.65,22.77-11.35,8.68-3.32,33.5-8.47,38.41-11.59,8-5.09,13.28-23.57,28.12-28.88,7.14-2.55,1.63-.69,4-4,1.58-2.2,2.76-2.65,4-4h10Z"/>
    <path class="st7" d="M164.32,336.62c1.02.82,3.36,1.26,4,2,.1,4.66-.15,9.35,0,14,.04,1.33-.1,2.68,0,4,.25,3.35,1.89,6.41,2,8,.5,7.05-1.45,18.91-.04,24.6.55,2.23,4.79,2.35,6.17,4.19,4.89,6.49-.12,12.72.27,18.22.64,8.89,7.68,26.45,1.78,34.18-4.47,5.86-18.77,5.55-25.33,2.96-17.98-7.11-.52-20.21,1.05-31.28,1.44-10.16-4.1-13.42,2.41-23.66,1.46-2.3,5.21-2.76,5.72-4.63,1.2-4.41-.11-16.67-.03-22.58.03-2,.01-4,0-6-.04-6.27,1.66-15.4-2-20,2.85-4.21,3.81-3.71,4-4ZM172.73,402.62c0-3.54-2.87-6.41-6.41-6.41s-6.41,2.87-6.41,6.41,2.87,6.41,6.41,6.41,6.41-2.87,6.41-6.41ZM170.07,414.89c-1.14-.73-6.33-.72-7.49.01-1.01.64-7.6,19.3-8.6,22.43-.51,1.6-3.06,2.51.29,4.34s18.21,1.17,19.77-1.34c1.84-2.95-2.08-24.25-3.96-25.45Z"/>
    <path class="st7" d="M220.32,510.62c2.13,5.93,13.76,14.2,20,16,1.95.56,5.56-.31,8,0,.55.07,2.25,2,4.89,2.13,13.04.61,21.12-4.85,31.11-12.13.07.98,1.92,3.62,2,8,.01.65.08,1.37,0,2-9.88,5.59-18.41,9.32-30,10-5.24.31-9.79-.47-14.84-1.53l-1.16,1.53c-11.34-7.42-19.07-11.58-26-24l6-2Z"/>
    <path class="st5" d="M436.32,458.62c-2.9,14.36-12.23,24.09-16,38-.7.04-1.54-.17-2,0-4.56,1.69-18.39,16.37-20,22-22.2,7.08-18.11,10.52-33.5,19.5-26.06,15.19-64.98,15.66-92.5,6.5,2.65-9.11,12.12-3.86,14-18,.08-.63.01-1.35,0-2,15.71-12.79,16.14-24.24,16.09-43.08-.02-7.44-5.88-16.64,4.38-21.43,13.28-6.2,17.75,5.71,28.17,10.87,23.59,11.68,28.86,2.72,49.36-2.36,4.41-1.09,9.34,1.01,15.5-1.51,11.22-4.59,23.05-26.6,4.5-30.49,3.31-21.64-9-48.27-31.89-53.11-43.66-9.24-74.55,25.37-58.11,67.1-7.65-3.11-14.99,8.08-19.01,8.09-2.03,0-17.98-14.4-28.13-15.95-17.97-2.74-24.99,4.33-38.87,5.87,4.4-5.14,9.57-6.4,13.01-13.99,7.36-16.2-2.5-24.09-4.92-12.92-1.1,5.08.37,7.23-3.18,12.82s-12.27,7.66-12.69,8.31c-3.97,6.08,2.81,6.32,7.77,5.77-7.64,8.93-17.34,18.03-20,30-10.99-23.93-14.47-52.61-9.45-78.45,4.49-23.16,8.95-25.33,29.52-34.48,11.82-5.26,36.13-9.68,43.85-14.15,7.71-4.46,29.99-33.94,42.08-42.92.76-.56,1.32-1.54,2-2,11.76-7.93,20.1-5.98,33.72-2.72,72.05,17.27,100.01,86.64,86.28,154.72ZM342.31,372.63c-.72-.75-15.03,6-19.08,6.1-5.36.13-20.94-9.05-16.85.83,5.35,12.93,44.45,2.03,35.93-6.93ZM339.84,483.08c-10.36.58-27.41,9.5-29.44,20.66-1.66,9.15,2.17,16.82,11.94,14.08,1.88-.53,31.03-16.55,32.12-18.04,7.5-10.29-5.02-17.25-14.63-16.71Z"/>
    <path class="st5" d="M530.32,370.62c2.18,13.73,7.86,26.75,8.12,40.93.47,25.22-11.09,63.67-26.46,83.73-2.92,3.81-20.76,22.55-23.66,23.34-5.32,1.46-8.28-1.16-12-2,26.38-46.03,24.13-103.36-6.03-146.97l-19.97-21.03c41.43-8.89,49.9-4.12,80,22Z"/>
    <path class="st3" d="M442.32,352.62l25.67,25.33c24.7,36.09,27.19,102.13,2.33,138.67-.76,1.11-8.49,7.24-10,5.98,2.86-5.84,6.61-28.07,1.65-31.69-1.55-1.13-4.56.16-5.65-.29-7.23-3.01-8.07-6.63-16.75-5.88-6.83.59-13.22,5.26-15.25,11.88-1.33.04-2.67-.07-4,0,3.77-13.91,13.1-23.64,16-38,6.22.64,5.09.71,6.6-4.32,6.95-23.22,6.41-45.94-.08-69.2-3.34-11.95-9.54-21.42-14.51-32.47.89-.78,10.93.56,13.99-.01Z"/>
    <path class="st3" d="M568.32,436.62c5.9,27.6-3.01,56.58-21.91,77.09l-24.09,18.91c-12.04-2.62-17.29,2.24-30-8,17.77-14.99,29.91-28.25,38.97-50.03,12.59-30.29,18.12-66.43,7.03-97.97,15.99,14.94,25.41,38.5,30,60Z"/>
    <path class="st6" d="M456.32,490.62c2.64,27.06-5.74,49.23-32.9,58.1-10.68,3.49-50.39,9.63-46.8-8.63s35.58-8.75,45.24-28.92c2.77-5.78,1.28-10.72,2.45-14.55,2.04-6.62,8.42-11.29,15.25-11.88,8.67-.75,9.52,2.87,16.75,5.88Z"/>
    <path class="st6" d="M588.32,448.62c11.31,18.21,9.5,51-1.96,69.04-5.24,8.25-12.11,11.05-16.04,18.96-16.03,1.51-25.46,3.05-42,0l30-27c13.83-21.7,20.55-45.07,18-71,1.54.82,11.53,9.25,12,10Z"/>
    <path class="st3" d="M614.32,456.62c.64.71,6.79,15.44,7.44,17.56,5.67,18.58,1.76,32.23-7.44,48.44-15.64,7.69-15.79,11.19-36,14,24.98-22.4,30.91-57.98,16-88,3.31.41,18.5,6.33,20,8Z"/>
    <path class="st3" d="M626.32,518.62l3.83-15.18c1.75-17.88-.63-34.46-11.83-48.82,11.18-7.95,26.95-4.96,33.73,7.27,12.3,22.18-6.79,46.09-25.73,56.73Z"/>
    <path class="st8" d="M450.32,348.62l19.97,21.03c30.15,43.61,32.41,100.95,6.03,146.97-1.7-.38-4.11.26-6,0,24.86-36.54,22.37-102.58-2.33-138.67l-25.67-25.33c2.39-.45,5.56-3.48,8-4Z"/>
    <path class="st8" d="M538.32,376.62c11.08,31.53,5.56,67.68-7.03,97.97-9.06,21.78-21.19,35.04-38.97,50.03-2.17-1.75-4.25-2.13-4-6,2.89-.79,20.74-19.54,23.66-23.34,15.37-20.06,26.93-58.51,26.46-83.73-.26-14.18-5.94-27.2-8.12-40.93,2.22,1.93,4.71,2.92,8,6Z"/>
    <path class="st8" d="M576.32,438.62c2.54,25.92-4.17,49.3-18,71l-30,27c-2.72-.5-5.38-3.86-6-4l24.09-18.91c18.9-20.52,27.8-49.49,21.91-77.09,2.98-.14,5.41.62,8,2Z"/>
    <path class="st8" d="M594.32,448.62c14.91,30.02,8.98,65.6-16,88-2.52.35-5.41-.24-8,0,3.94-7.91,10.8-10.7,16.04-18.96,11.46-18.04,13.27-50.84,1.96-69.04,1.97.16,4.05-.24,6,0Z"/>
    <path class="st8" d="M626.32,518.62c-5.32,2.99-9.27,2.66-12,4,9.2-16.21,13.11-29.86,7.44-48.44-.65-2.12-6.8-16.85-7.44-17.56,1.25-.74,2.83-1.17,4-2,11.19,14.36,13.57,30.94,11.83,48.82l-3.83,15.18Z"/>
    <path class="st1" d="M286.32,526.62c-1.88,14.14-11.35,8.89-14,18-5.35-1.78-12.8-1.43-16-8,11.59-.68,20.12-4.41,30-10Z"/>
    <path class="st3" d="M398.32,518.62c1.61-5.63,15.44-20.31,20-22-1.78,14.97-7.49,18.01-20,22Z"/>
    <path class="st9" d="M198.32,352.62c-3.64-18.04.64-22.96,12.98-36.02,14.98-15.86,51.07-36.46,72.52-39.52,13.44-1.92,24.76,12.38,34.49,20.55-5.32,3.06-9.79,6.44-13.99,10.99-1.24,1.35-2.42,1.8-4,4-3.5-.55-4.73.43-4,4-14.84,5.31-20.12,23.79-28.12,28.88-4.91,3.12-29.73,8.27-38.41,11.59-4.43,1.7-21.43,11.22-22.77,11.35-4.6.45-7.95-12.08-8.7-15.82Z"/>
    <path class="st9" d="M164.32,336.62c.39-.58.09-4.39,1.87-7.04,15.72-23.52,31.63-46.97,48.18-69.91l121.95-23.03c-3.6,5.29-26.59,41.39-29.07,41.98s-7.82-6.89-14.04-7.89c-28.95-4.63-82.89,31.45-98.88,54.89-8.06,11.81-5.38,15.56-4,28.99-7.12,1.67-14.69,1.66-22,2-.1-1.32.04-2.67,0-4,3.58-3.21,3.07-10.47,0-14-.64-.74-2.98-1.18-4-2Z"/>
    <path class="st9" d="M162.32,360.62l-18,1.98c-1.51-1.19,14.67-20.02,16-21.98,3.66,4.6,1.96,13.73,2,20Z"/>
    <path class="st5" d="M395.25,436.82c-10.59-.66-21.49,15.14-16.62,24.27-15.57,10.29-36.24,8.11-49.32-5.19-13.09-13.3-14.92-34-4.38-49.4,10.54-15.4,30.51-21.18,47.64-13.79,17.13,7.39,26.64,25.87,22.68,44.1ZM372.32,432.62c.5-1.4,6.34-2.59,4-7.99-1.61-1.58-41.04,4.94-44.54,6.45-2.78,1.2-4.05,2.32-3.45,5.53,2.65-.05,5.34.12,7.99.01-.72,18.42,25.45,22.38,33.75,6.74,2.51-4.73,1.3-8.04,2.25-10.74Z"/>
    <path class="st5" d="M284.32,514.62c-12.61-4.51-31.39-2.77-36,12-2.44-.31-6.05.56-8,0l-20-20c-25.22-70.39,84.78-74.52,73.51-9.47-1.5,8.65-8.27,13.6-9.51,17.47ZM254.32,500.62c14.82,11.06,34.24-2.12,28.72-19.64-1.16-3.69-2.09-6.6-6.72-6.36,3.32-4.95,3.37-10.88-4-7-3.73,1.97-28.51,31.36-28.01,33.95,2.74,4.92,7.35,2.2,10.01-.95Z"/>
    <path class="st1" d="M384.32,468.62c7.13-8.63,18.25-20.54,20-32,18.54,3.89,6.72,25.9-4.5,30.49-6.16,2.52-11.09.42-15.5,1.51Z"/>
    <path class="st1" d="M284.32,514.62c-.14.44-.04,1.37,0,2-9.99,7.27-18.07,12.73-31.11,12.13-2.63-.12-4.34-2.06-4.89-2.13,4.61-14.77,23.39-16.51,36-12Z"/>
    <path class="st1" d="M395.25,436.82c-2.16,9.95-8.12,18.66-16.62,24.27-4.87-9.13,6.02-24.94,16.62-24.27Z"/>
    <path class="st2" d="M240.32,526.62c-6.24-1.8-17.87-10.07-20-16-.37-1.03.37-2.97,0-4l20,20Z"/>
    <path class="st0" d="M300.32,312.62c-2.37,3.31,3.14,1.45-4,4-.73-3.57.5-4.55,4-4Z"/>
    <path class="st1" d="M170.07,414.89c1.88,1.2,5.8,22.51,3.96,25.45-1.56,2.5-16.35,3.2-19.77,1.34s-.8-2.75-.29-4.34c1.01-3.13,7.59-21.79,8.6-22.43,1.16-.74,6.35-.74,7.49-.01Z"/>
    <circle class="st1" cx="166.32" cy="402.62" r="6.41"/>
    <path class="st10" d="M168.32,352.62c-.15-4.65.1-9.34,0-14,3.07,3.53,3.58,10.79,0,14Z"/>
    <path class="st10" d="M339.84,483.08c9.6-.54,22.13,6.42,14.63,16.71-1.09,1.49-30.24,17.51-32.12,18.04-9.77,2.74-13.61-4.94-11.94-14.08,2.03-11.16,19.07-20.07,29.44-20.66ZM350.31,496.59c5.57-7.48-21.5-12.81-31.72,5.3-4.49,7.95-3.43,10.92,5.61,7.61,2.32-.85,25.24-11.75,26.11-12.91Z"/>
    <path class="st10" d="M228.32,448.62c-4.96.55-11.74.31-7.77-5.77.42-.65,9.08-2.61,12.69-8.31s2.08-7.75,3.18-12.82c2.41-11.18,12.28-3.29,4.92,12.92-3.44,7.58-8.61,8.84-13.01,13.99Z"/>
    <path class="st10" d="M342.31,372.63c8.51,8.96-30.58,19.86-35.93,6.93-4.09-9.88,11.5-.7,16.85-.83,4.05-.1,18.36-6.86,19.08-6.1Z"/>
    <path class="st2" d="M372.32,432.62c-.96,2.69.26,6.01-2.25,10.74-8.3,15.64-34.46,11.69-33.75-6.74,12.03-.52,23.71-5.32,36-4Z"/>
    <path class="st10" d="M336.32,436.62c-2.65.11-5.34-.06-7.99-.01-.6-3.21.67-4.33,3.45-5.53,3.5-1.51,42.93-8.03,44.54-6.45,2.34,5.4-3.5,6.59-4,7.99-12.29-1.32-23.97,3.48-36,4Z"/>
    <path class="st2" d="M254.32,500.62c4.66-5.53,18.92-21.41,22-26,4.63-.24,5.56,2.67,6.72,6.36,5.51,17.53-13.9,30.71-28.72,19.64Z"/>
    <path class="st10" d="M254.32,500.62c-2.66,3.15-7.27,5.87-10.01.95-.49-2.59,24.28-31.98,28.01-33.95,7.37-3.88,7.32,2.05,4,7-3.08,4.59-17.34,20.47-22,26Z"/>
    <path class="st7" d="M350.31,496.59c-.87,1.17-23.79,12.07-26.11,12.91-9.05,3.31-10.1.34-5.61-7.61,10.22-18.11,37.28-12.79,31.72-5.3Z"/>
  </g>
</svg>