<?xml version="1.0" encoding="UTF-8"?>
<svg id="_레이어_1" data-name="레이어_1" xmlns="http://www.w3.org/2000/svg" version="1.1" viewBox="0 0 800 800">
  <!-- Generator: Adobe Illustrator 30.0.0, SVG Export Plug-In . SVG Version: 2.1.1 Build 123)  -->
  <defs>
    <style>
      .st0 {
        fill: #19232e;
      }

      .st1 {
        fill: #dab482;
      }

      .st2 {
        fill: #4b3c31;
      }

      .st3 {
        fill: #7ea05b;
      }

      .st4 {
        fill: #98be70;
      }

      .st5 {
        fill: #92b86e;
      }

      .st6 {
        fill: #a8825d;
      }

      .st7 {
        fill: #f5e3ca;
      }

      .st8 {
        fill: #578240;
      }

      .st9 {
        fill: #2e4767;
      }

      .st10 {
        fill: #1b251d;
      }

      .st11 {
        fill: #9b8d4d;
      }
    </style>
  </defs>
  <path class="st10" d="M323.72,220.42c13.23,1.86,26,2.45,38.88,6.12,8.29,2.37,21.93,10.85,28.58,11.44,24.71,2.19,49.14-10.43,78.54,2.44,1.08.47,1.88,5.59,5.99,4.01-.97-3.52,1.08-5.49,2.01-8.01,2.42,12.72,13.59,17.31,21.94,27.06,43.64,50.93,47.43,137.02,2.16,188.04-2.44,2.75-9.34,6.02-9.85,8.11-.34,1.38,4.86,15.72,5.54,20.01,1.04,6.53-1.36,15.01,1.25,20.75.56,1.24,17.16,19.48,18.34,20.16,1.32.77,26.63,11.01,28.11,11.39,17.52,4.45,34.58-1.64,49.51-1.66,40.44-.05,47.54,51.87,17.95,76.09-24.08,19.72-33.75,23.31-61.42,34.58-20.17,8.22-27.93,21.72-56.54,21.63-21.2-.06-25.89,1.01-46.23,3.6-74.86,9.54-165.15-26.66-180.52-107-2.97-15.52-7.08-30.66-9.68-46.31-.72-4.34.23-14.38-.87-16.14-.79-1.26-19.8-12.24-24.62-16.37-29.59-25.3-56.39-71.08-64.93-109.07-10.92-48.53,37.65-54.85,50.01-18.01,2.59,7.7,3.12,16.7,5.87,25.13.62,1.92,1.39,8.09,3,8.02,3.6-2.03-.84-6.93-1-8.02-7.19-48.06,16.42-106.24,53.98-137.02,4.39-3.6,34.94-22.65,38.02-22.98.48-.05,4.11,1.73,6,2ZM289.72,462.42c-8.46-3.19-8.49-.81-18-8-16.88-12.77-44.4-50.23-53.65-69.35-7.36-15.2-6.54-52.05-32.9-46.25-20.61,4.53-6.09,42.07-1.49,54.64,14.1,38.51,41.98,76.84,78.04,96.96.17.72,3.53,1.72,3.92,3.48.94,4.2-.65,9.21.1,13.51,1.41,8.12,4.8,30.61,11.98,35.01-1.57,2.44-2.01,5.14-2,8,.06,32.07,13.44,48.31,36,68,6.45,5.63,9.1,7.3,16,12,29.44,20.07,64.76,30.57,100.93,30.04,15.79-.23,34.98-8.3,49.07-8.04,3.32.06,6.94,2.01,8,2,18.32-.19,50.84-5.54,62-22,1.94-.2,4.13.3,6,0,13.59-2.15,30.95-10.45,36-24,2.83.89,4.4-1.38,6-2,2.13-.83,4.18-.76,6.66-2.25,37.73-22.59,19.3-78.32-18.66-63.75-1.95.75-3.97,3.02-6,4-9.08-4.42-16.23-4.04-26-4-2.67.01-5.33,0-8,0-2.54-2.55-15.84-8.57-20-10-1.46-.5-4.37.46-6,0-5.72-1.62-5.8-4.48-10-8-2.39-2.01-5.74-3.75-6-4-2.64-2.52-3.39-5.48-6-8-1.25-1.21-2.02-2.14-4-2,1.81-7.55-2.07-35.85-7.02-41.99-2.71-3.36-1.91-1.09-3.98-.07-4.23,2.07-9.96,6.95-14.51,7.69-3.27.53-6.15-1.7-6.48-1.64,1.22-7.47,12.56-8.43,18.64-12.36,60.7-39.2,60.47-136.53,17.41-188.69-24-29.07-48.47-31.1-85.01-28.92-6.25.37-14.48,4.26-19.94,3.88s-24.52-10.58-33.11-12.89c-45.4-12.24-73.55,6.25-98.8,43.16-35.71,52.22-38.04,124.06,11.88,167.76,6.29,5.51,19.18,9.27,18.94,18.06Z"/>
  <path class="st3" d="M225.72,378.42c.16,1.09,4.6,5.99,1,8.02-1.61.07-2.38-6.1-3-8.02h2Z"/>
  <path class="st4" d="M459.72,472.42c-9.14,1.89-18.23,5.74-27.54,7.46-10.61,1.96-22.22,1.41-32.46,4.54-4.57-5.32-8.68-11.9-17.04-11.77-7.51.12-8.31,7.32-10.37,7.81-5.32,1.26-11.91-1-18.59,1.97-22.31-4.31-42.91-12.04-64-20,.23-8.79-12.65-12.55-18.94-18.06-49.92-43.7-47.59-115.54-11.88-167.76,25.24-36.91,53.39-55.4,98.8-43.16,8.59,2.32,27.68,12.52,33.11,12.89s13.7-3.51,19.94-3.88c36.55-2.18,61.02-.15,85.01,28.92,43.06,52.16,43.29,149.49-17.41,188.69-6.08,3.93-17.42,4.89-18.64,12.36ZM261.72,366.42c-23.81,28.04,30.03,46.19,44,20,20.58.06,40.12-11.17,49.07-29.93,6.37-13.35,1.21-25.12,19.85-24.15,20.15,1.04,12.99,11.94,15.52,24.63,4.06,20.3,27.52,37.8,47.55,39.45,7.15,31.78,71.66,19.95,48-14,4.15-4.12,13.97-23.78,15.09-29.91,13.12-71.16-90.6-96.24-109.12-26.1-11.56-2.6-19.91-6-31.96-1.98-2.87-56.33-82.89-69.93-105.64-18.64-8.26,18.62-6.45,45.18,7.63,60.63ZM347.07,378.67c-12.03,3.91-5.39,49.64,25.7,47.88,26.72-1.51,36.48-45.24,20.09-45.98-7.02-.32-16.83,2.85-26.16,1.85-6.29-.67-13.89-5.62-19.63-3.76Z"/>
  <path class="st4" d="M501.72,518.42c4.06,60.89-62.16,105.43-117.03,109.97-26.62,2.2-47.76-3.56-72.97-9.97-22.56-19.69-35.94-35.93-36-68l34.08,14.92c61.24,20.45,156.53,11.43,185.92-54.92,2.61,2.52,3.36,5.48,6,8Z"/>
  <path class="st3" d="M289.72,462.42c21.09,7.96,41.69,15.69,64,20-6.04,2.69-11.49,12.39-12.09,19-1.64,18.18,12.05,27.61,27.67,32.42,17.24,5.32,50.18,13.86,67.39,12.54,28.71-2.19,49.57-23.31,51.02-51.95l-7.99,3.99c-.22-.47-3.47-.81-4.46-1.88-9.21-9.96-7.26-4.18-18.44-6.22-8.24-1.5-4.72-3.82-15.1-1.91-11.65,2.14-25.76,11.65-37.91,2.86-2.7-1.95-2.73-5.27-4.09-6.86,10.24-3.14,21.85-2.58,32.46-4.54,9.31-1.72,18.4-5.57,27.54-7.46.33-.07,3.21,2.17,6.48,1.64,4.56-.74,10.29-5.62,14.51-7.69,2.07-1.02,1.27-3.29,3.98.07,4.95,6.13,8.83,34.43,7.02,41.99-1.08,4.51-8.76,11.57-11.34,14.77-44.03,54.7-139.57,57.61-196.86,20.36-1.95-1.27-5.08-.68-5.8-1.12-7.18-4.4-10.57-26.89-11.98-35.01-.75-4.3.84-9.3-.1-13.51-.39-1.75-3.75-2.76-3.92-3.48-1.69-7.16,8.73-27.76,10-36,9.51,7.19,9.54,4.81,18,8Z"/>
  <path class="st3" d="M517.72,530.42c15.59,39.71,6.55,79.6-25.04,107.96-5,4.49-14.15,6.3-14.96,14.04-14.09-.26-33.28,7.81-49.07,8.04-36.16.53-71.49-9.97-100.93-30.04,73.59,21.06,180.03-21.54,180-108,4.2,3.52,4.28,6.38,10,8Z"/>
  <path class="st5" d="M271.72,454.42c-1.27,8.24-11.69,28.84-10,36-36.06-20.12-63.94-58.45-78.04-96.96-4.6-12.57-19.12-50.11,1.49-54.64,26.36-5.8,25.54,31.05,32.9,46.25,9.25,19.12,36.76,56.59,53.65,69.35Z"/>
  <path class="st3" d="M543.72,540.42c2.37,2.38,10.8,18.91,12.1,22.9,7.09,21.58,4.78,50.09-8.1,69.1-11.16,16.46-43.68,21.81-62,22l27.66-29.34c19.62-27.43,24.48-63.47,10.34-94.66,4.16,1.43,17.46,7.45,20,10Z"/>
  <path class="st5" d="M577.72,544.42c2.89,7.4,8.48,11.43,11.73,19.27,5.76,13.88,5.49,30.7.27,44.73-5.05,13.55-22.41,21.85-36,24,20.26-27.81,16.69-64.39-2-92,9.77-.04,16.92-.42,26,4Z"/>
  <path class="st8" d="M507.72,522.42c.03,86.46-106.41,129.06-180,108-6.9-4.7-9.55-6.37-16-12,25.2,6.41,46.35,12.17,72.97,9.97,54.87-4.53,121.09-49.08,117.03-109.97.26.25,3.61,1.99,6,4Z"/>
  <path class="st8" d="M495.72,510.42c-29.39,66.35-124.68,75.37-185.92,54.92l-34.08-14.92c0-2.86.43-5.56,2-8,.72.44,3.85-.15,5.8,1.12,57.3,37.25,152.83,34.34,196.86-20.36,2.57-3.2,10.26-10.25,11.34-14.77,1.98-.14,2.75.79,4,2Z"/>
  <path class="st3" d="M595.72,606.42c6.26-13.48,5.68-33.16-.22-46.78-3.07-7.08-9.62-11.94-11.78-19.22,37.96-14.57,56.39,41.16,18.66,63.75-2.48,1.49-4.53,1.42-6.66,2.25Z"/>
  <path class="st8" d="M523.72,530.42c14.14,31.19,9.28,67.23-10.34,94.66l-27.66,29.34c-1.06.01-4.68-1.94-8-2,.81-7.75,9.96-9.56,14.96-14.04,31.59-28.35,40.63-68.25,25.04-107.96,1.63.46,4.54-.5,6,0Z"/>
  <path class="st8" d="M551.72,540.42c18.69,27.61,22.26,64.19,2,92-1.87.3-4.06-.2-6,0,12.89-19.01,15.19-47.53,8.1-69.1-1.31-3.98-9.73-20.52-12.1-22.9,2.67,0,5.33.01,8,0Z"/>
  <path class="st8" d="M595.72,606.42c-1.6.62-3.17,2.89-6,2,5.23-14.03,5.49-30.86-.27-44.73-3.25-7.84-8.84-11.87-11.73-19.27,2.03-.98,4.05-3.25,6-4,2.16,7.28,8.71,12.15,11.78,19.22,5.9,13.62,6.48,33.29.22,46.78Z"/>
  <g>
    <path class="st0" d="M317.72,218.42c-.24-3.72,3.22-8.64,1.13-12.01-2.43-3.91-47.24-25.98-54.86-30.23-1.03-1.68-.52-6.1.64-7.85,4.02-6.04,122.42-36.9,138.28-43.84,39.25,18.43,78.02,39.8,115.42,61.91,1.89,1.11,1.21,3.91,1.39,4.02.84.54,6.58.82,10.09,2.9,18.65,11.08,28.79,17.19-2.09,21.1-1.2-3.54-6.95-23.29-8-24-.69-.47-4.32.29-5.99-.01.36,3.81-.59,8.4,0,12.01-.22-1.5-3.1-10.04-3.97-11.04l-105.12-58.89-126.91,37.95c-.78,3.55,1.03,3.96,3.31,5.67,4.46,3.35,40.29,23,43.5,22.47,7.94-22.05,24.82-24.72,46.11-26.23,26.62-1.89,49.97,1.44,74.42,11.73,20.03,8.43,31.44,13.58,30.67,38.34,7.75-3.74,31.38-5.99,36.82-9.76,1.99-1.38,1.51-7.86,1.16-10.24.53,3.28,2.95,11.74,4,16-7.63,5.27-36.18,6.72-39.67,13.33-.74,1.41.06,3.63-.33,4.67-.93,2.52-2.98,4.48-2.01,8.01-4.11,1.58-4.91-3.53-5.99-4.01-.36-10.22-.64-31.71-7.87-39.13-9.3-9.54-43.92-19.34-57.37-20.63-14.01-1.34-47.11-1.66-59.31,4.2-11.42,5.49-15.76,25.18-21.45,35.55-1.89-.27-5.52-2.05-6-2Z"/>
    <path class="st6" d="M519.72,190.42c1.05.71,6.8,20.46,8,24,1.39,4.12,7.22,26.76,8.34,27.67,1.33,1.08,5.79-.44,8.72,2.26,3.6,3.32,2.25,13.14,5.18,18.84,3.46,6.75,19.97,19.51,21.02,23.18,2.81,9.86-27.34,24.09-35.89,11.52-5.78-8.51-5.44-20.45-7.9-29.93-.79-3.05-4.18-5.34-5.05-8.94-2.49-10.29,3.49-13.07,3.25-19.02-.28-7.06-6.24-15.84-7.66-21.58-1.05-4.26-3.47-12.72-4-16-.58-3.61.37-8.2,0-12.01,1.67.3,5.3-.46,5.99.01ZM539.44,248.69c-9.24-5.86-18.65,10.48-6.22,11.35,8.55.6,9.93-9,6.22-11.35ZM561.71,290.39c.81-3-.79-3.31-1.96-5-2.76-3.99-19.25-23.73-24.02-18.97,1.06,20.04,2.4,36.25,25.98,23.97Z"/>
    <path class="st9" d="M469.72,240.42c-29.4-12.86-53.83-.25-78.54-2.44-6.65-.59-20.29-9.08-28.58-11.44-12.88-3.68-25.65-4.26-38.88-6.12,5.68-10.37,10.03-30.06,21.45-35.55,12.2-5.87,45.3-5.54,59.31-4.2,13.45,1.28,48.07,11.08,57.37,20.63,7.23,7.42,7.5,28.91,7.87,39.13Z"/>
    <path class="st9" d="M513.72,202.42c.35,2.37.82,8.86-1.16,10.24-5.45,3.77-29.07,6.02-36.82,9.76.77-24.76-10.63-29.92-30.67-38.34-24.45-10.29-47.8-13.62-74.42-11.73-21.29,1.51-38.17,4.18-46.11,26.23-3.21.53-39.04-19.12-43.5-22.47-2.28-1.71-4.08-2.12-3.31-5.67l126.91-37.95,105.12,58.89c.87.99,3.75,9.54,3.97,11.04Z"/>
    <path class="st1" d="M561.71,290.39c-23.59,12.28-24.93-3.93-25.98-23.97,4.77-4.77,21.26,14.97,24.02,18.97,1.17,1.69,2.77,2,1.96,5Z"/>
    <path class="st1" d="M539.44,248.69c3.71,2.35,2.33,11.95-6.22,11.35-12.43-.87-3.02-17.21,6.22-11.35Z"/>
  </g>
  <path class="st11" d="M261.72,366.42c-14.08-15.44-15.89-42.01-7.63-60.63,22.74-51.29,102.77-37.69,105.64,18.64,12.05-4.01,20.4-.62,31.96,1.98,18.52-70.13,122.25-45.06,109.12,26.1-1.13,6.12-10.95,25.78-15.09,29.91-10.93,10.86-33.08,15.22-48,14-20.03-1.64-43.5-19.15-47.55-39.45-2.54-12.69,4.63-23.59-15.52-24.63-18.64-.96-13.48,10.8-19.85,24.15-8.95,18.75-28.49,29.99-49.07,29.93-14.59-.05-34.24-9.3-44-20ZM270.83,361.22c8.92,9.81,21.62,15.32,34.88,15.13,21.8-.31,40.42-15.8,44.7-37.17,4.28-21.38-6.95-42.84-26.95-51.52-20-8.68-43.34-2.21-56.03,15.52-12.69,17.73-11.27,41.91,3.39,58.04ZM439.61,387.28c13.48,1.66,27.02-2.68,37.03-11.86,16.07-14.73,19.73-38.67,8.78-57.53-10.95-18.86-33.54-27.56-54.31-20.91-20.77,6.65-34.11,26.85-32.07,48.56,2.04,21.71,18.92,39.07,40.56,41.73Z"/>
  <path class="st10" d="M399.72,484.42c1.37,1.59,1.4,4.91,4.09,6.86,12.14,8.78,26.26-.72,37.91-2.86-1.2,16.21-31.36,16.58-41.08,10.08-7.27-4.86-7.83-20.91-20.91-18.09l-.02,10.01c-16.97-5.1-36.23-1.61-29.57,20.59,4.39,14.65,27.3,15.3,37.68,18.31,24.75,7.18,48.18,17.51,73.29,1.48,7.02-4.48,22.36-24.47,18.61-32.39l7.99-3.99c-1.45,28.64-22.31,49.76-51.02,51.95-17.21,1.32-50.15-7.22-67.39-12.54-15.62-4.82-29.31-14.24-27.67-32.42.59-6.6,6.05-16.31,12.09-19,6.68-2.97,13.27-.71,18.59-1.97,2.07-.49,2.87-7.69,10.37-7.81,8.36-.13,12.46,6.45,17.04,11.77Z"/>
  <path class="st1" d="M485.72,382.42c23.66,33.95-40.85,45.78-48,14,14.92,1.22,37.07-3.14,48-14Z"/>
  <path class="st10" d="M347.07,378.67c5.74-1.87,13.34,3.09,19.63,3.76,9.33,1,19.14-2.17,26.16-1.85,16.39.74,6.62,44.46-20.09,45.98-31.09,1.76-37.73-43.97-25.7-47.88ZM351.72,406.42c9.9,20.63,33.01,18.05,40-2,1.99-5.7,2.66-9.91,2.01-16.01-9.6-.41-19.39.62-28.98-.02s-17.11-9.21-17.19,5c-.03,6.43,1.8,8.1,4.16,13.02Z"/>
  <path class="st1" d="M305.72,386.42c-13.97,26.19-67.81,8.04-44-20,9.76,10.7,29.41,19.95,44,20Z"/>
  <path class="st5" d="M441.72,488.42c10.38-1.91,6.86.41,15.1,1.91,11.18,2.04,9.24-3.75,18.44,6.22.98,1.07,4.24,1.41,4.46,1.88,3.75,7.92-11.59,27.9-18.61,32.39-25.11,16.03-48.54,5.7-73.29-1.48-10.37-3.01-33.29-3.66-37.68-18.31-6.65-22.2,12.61-25.69,29.57-20.59l.02-10.01c13.08-2.82,13.64,13.23,20.91,18.09,9.72,6.5,39.89,6.13,41.08-10.08Z"/>
  <path class="st4" d="M476.64,375.43c-15.31-1.55-28.53-3.13-37.03,11.86-21.64-2.66-38.52-20.02-40.56-41.73-2.04-21.71,11.3-41.91,32.07-48.56,20.77-6.65,43.36,2.05,54.31,20.91,10.95,18.86,7.29,42.79-8.78,57.53ZM448.74,346.93c0-10.41-8.44-18.85-18.85-18.85s-18.85,8.44-18.85,18.85,8.44,18.85,18.85,18.85,18.85-8.44,18.85-18.85Z"/>
  <path class="st4" d="M305.72,376.36c-.44-12.94-23.62-22.31-34.88-15.13-14.67-16.13-16.08-40.31-3.39-58.04,12.69-17.73,36.03-24.19,56.03-15.52,20,8.68,31.23,30.14,26.95,51.52-4.28,21.38-22.9,36.86-44.7,37.17ZM313.15,318.84c-14.72,3.31-16.48,28.24-1.98,35.11,31.86,15.09,37.35-43.06,1.98-35.11Z"/>
  <path class="st1" d="M305.72,376.36c-13.26.19-25.96-5.32-34.88-15.13,11.26-7.17,34.44,2.2,34.88,15.13Z"/>
  <path class="st1" d="M476.64,375.43c-10.01,9.18-23.55,13.51-37.03,11.86,8.5-14.98,21.71-13.41,37.03-11.86Z"/>
  <path class="st2" d="M351.72,406.42c-2.36-4.92-4.2-6.6-4.16-13.02.08-14.21,7.39-5.65,17.19-5s19.39-.39,28.98.02c.65,6.09-.02,10.3-2.01,16.01-13.81-5.07-27.22-6.82-40,2Z"/>
  <path class="st1" d="M391.72,404.42c-6.99,20.05-30.1,22.63-40,2,12.78-8.82,26.19-7.07,40-2Z"/>
  <path class="st2" d="M448.74,346.93c0,10.41-8.44,18.85-18.85,18.85s-18.85-8.44-18.85-18.85,8.44-18.85,18.85-18.85,18.85,8.44,18.85,18.85ZM429.5,339.44c0-3.19-2.58-5.77-5.77-5.77s-5.77,2.58-5.77,5.77,2.58,5.77,5.77,5.77,5.77-2.58,5.77-5.77Z"/>
  <path class="st2" d="M313.15,318.84c35.38-7.95,29.88,50.2-1.98,35.11-14.51-6.87-12.75-31.8,1.98-35.11ZM319.33,329.4c0-3.16-2.56-5.73-5.73-5.73s-5.73,2.56-5.73,5.73,2.56,5.73,5.73,5.73,5.73-2.56,5.73-5.73Z"/>
  <circle class="st7" cx="423.73" cy="339.44" r="5.77"/>
  <circle class="st7" cx="313.6" cy="329.4" r="5.73"/>
</svg>