<?xml version="1.0" encoding="UTF-8"?>
<svg id="_레이어_1" data-name="레이어_1" xmlns="http://www.w3.org/2000/svg" version="1.1" viewBox="0 0 800 800">
  <!-- Generator: Adobe Illustrator 30.0.0, SVG Export Plug-In . SVG Version: 2.1.1 Build 123)  -->
  <defs>
    <style>
      .st0 {
        fill: #19232e;
      }

      .st1 {
        fill: #dab482;
      }

      .st2 {
        fill: #7ea05b;
      }

      .st3 {
        fill: #b6d2bb;
      }

      .st4 {
        fill: #98be70;
      }

      .st5 {
        fill: #92b86e;
      }

      .st6 {
        fill: #a8825d;
      }

      .st7 {
        fill: #578240;
      }

      .st8 {
        fill: #272c31;
      }

      .st9 {
        fill: #2e4767;
      }

      .st10 {
        fill: #1b251d;
      }

      .st11 {
        fill: #496151;
      }

      .st12 {
        fill: #9b8d4d;
      }
    </style>
  </defs>
  <path class="st6" d="M418.22,242.21c2.31,2.76,6.32,14.85,10.04,16.96,2.79,1.58,6.75.67,9.88,2.12,6.42,2.99,7.2,11.18,10.98,15.02,4.72,4.79,23.77,11.02,25.28,13.27,6.99,10.37-16.13,32.4-29.33,22.76-4.31-3.15-11.41-17.52-15.15-22.84-1.94-2.76-5.53-3.77-7.45-6.54-5.9-8.53-.98-14.21-3.23-20.64-2.47-7.07-11.64-12.19-13.02-14.12s-.5-5.55-6-12c-.04-.95-2.39-3.4-1.99-4.93,2.7-10.23,12.64,6.5,14.96,9.03,1.45,1.58,4.74,1.56,5.02,1.9ZM438.77,273.86c0-3.4-2.75-6.15-6.15-6.15s-6.15,2.75-6.15,6.15,2.75,6.15,6.15,6.15,6.15-2.75,6.15-6.15ZM466.21,294.24c-10.25-5.24-38.63-23.34-23.27,2.25,8.41,14.01,17.29,12.59,23.27-2.25Z"/>
  <path class="st1" d="M466.21,294.24c-5.98,14.83-14.85,16.26-23.27,2.25-15.36-25.58,13.01-7.48,23.27-2.25Z"/>
  <circle class="st1" cx="432.62" cy="273.86" r="6.15"/>
  <g>
    <path class="st10" d="M386.22,284.21c15.7-4.08,56.64,31.03,63.28,46.16,38.19-18.92,64.93-16.29,97.67,9.89,16.33,13.05,26.41,23.95,34.02,43.98,2.6,6.83,5.37,25.26,9.07,28.93.84.83,16.02,9.08,16.99,9.08,6.9.01,19.47-21.34,39.99-4.06,20.28,17.08,7.62,53.89-7.08,70.96-30.32,35.22-73.28,41.26-116.37,28.49-6.6-1.96-13.49-8.72-20.05-7.08-13.1,3.28-15.16,16.03-21.52,24.65-7.19,9.74-20.1,18.61-31.54,22.46-8.49,2.86-46.02,12.7-53.46,12.71-23.32.04-26.27-12.73-30.15-32.25-9.29,1.3-20.58,3.78-29.77,4.17-12.58.53-29.69-3.57-39.97-1.96-4.49.7-29.57,8.42-35.7,10.3-5.13,1.57-8.61,10.43-19.31,12.68-30.16,6.37-44.11-25.26-36.77-50.76,2.9-10.08,11.96-11.36,12.66-20.35,7.91,3.72,9.39-.34,14,0,1.59.12,14.91,3.49,16,4,.51.24,1.11,1.55,2,2,.43.22,1.57,3.48,4.06,4.87,2.89,1.61,7.06,1.33,9.94,3.13,6.24,3.91,5.18,12.13,8.2,16.8,6.44,9.97,56.6,12.06,68.89,11.28,3.81-.24,22.1-2.64,23.76-3.85,2.64-1.92-.7-11.63,6.36-16.04,3.27-2.04,7.76-1.46,10.68-3.32,2.68-1.71,2.87-6.27,7.99-8.01,3.71-1.26,10.2-1.35,14.14-.87.75.09,4.92,1.55,6,2,1.31.55,5.01,3.01,6,4,2.7,2.7,3.06,8.89,6.55,7.74,12.27-2.14,17.9-11.95,27.45-17.74-.51,1.02.37,5.23-.89,8.02-4.21,9.27-22.09,19-31.77,15.68-4.73-1.62-12.47-21.14-27.33-11.68.73,4.19,9.45,1.01,7.97,7.96l-23.76,2.22c1.18,12.83-.6,38.49,15.23,41.31,11.17,1.99,47.22-7.54,59.06-12,32.82-12.36,42.59-38.88,31.48-71.52.34-.22-1.12-6.5,4.97-3.97,5.43,2.26,8.1,27.73,7.05,33.97.35.47,9.64-5.43,9.98-6,6.56-1.93,9.64,2.16,14,4,15.71,6.61,17.28,3.9,32,6,2.25.32,5.77,3.7,8,4,12.39,1.69,22.46-.84,34-4,4.55-1.25,6.23-2.4,10-4,15.31-6.51,16.85-8.55,28-20,3.55-3.64,6.41-5.04,10-10,6.46-8.94,11.65-22.06,12.05-33.11.63-17.36-16.13-33.77-32.05-20.89-2.16,1.75-4.25,2.13-4,6-1.19-.52-4.27.39-6,0s-4.41.45-6,0c-1.36-.39-9-6.21-12-8-2.06-1.23-3.95-2.76-6-4-.11-.48-2.93-2.76-3.59-5.31-5.27-20.4-8.48-34.34-22.41-50.69-3.75-4.4-6.01-6.27-10-10-28.52-26.71-53.14-35.66-90-16-.72.38-2.79-.3-4,.02,1.18,2.73,2.77,5.26,4,7.98,8.28,18.33,15.79,37.32,13.99,58-1.87.37-4.36-.41-5.99,0-.66-6.03-.82-14.31-2-20-.89-4.3-3.08-6.81-4-10-5.45-18.98-10.09-30.62-22.98-46.02-8.45-10.11-33.29-32.18-46.21-33.91-7.05-.94-3.83,2.16-6.7,6.97-20.24,33.9-109.43,53.9-142.12,30.96,5.16-1.34,10.62,1.69,15.09,1.72,1.61,0,2.69-1.73,2.91-1.72,30.89,1.39,49.94,3.96,80-8,3.46,3.42,4.61,2.73,4-2,1.21-.52,2.78-1.37,4-2l1.28,1.67c9.73,2.79,5.27-3.4,7.13-5.26.31-.31,4.14-3.18,5.59-4.42,3.67-3.15,6.48-3.94,10-6,5.79-3.38,7.11-.39,8-10,.15-1.63.3-4.58,0-6,3.41,1.44,5.02-3.75,6-4ZM246.21,504.23c-42.36-21.74-47.47,57.35-7.15,51.89,3.28-.44,11.75-4.03,12.85-7.24s.88-27.66-.65-30.71c-2.87-5.72-19.26-6.31-25.02-5.98-.55-2.74.7-4.81,3.33-5.64,4.89-1.55,13.87,2.14,16.64-2.32ZM261.69,512.74c-1.15-1.25-6.35-3.4-7.47-2.51,4.33,6.23,4.51,12.55,4.01,19.97,8.6.74,6.96-13.65,3.46-17.46ZM284.21,536.23c-9.21-4.61-23.42-5.67-23.97,7.97,5.11-1.26,10.51-1.9,15.56-3.42,2.33-.7,8.44-1.63,8.41-4.54Z"/>
    <path class="st12" d="M426.22,448.21c-1.01,4.26-7.67,8.72-8,18-5.06-1.55-3.65,3.7-4,4-1.65,1.38-13.71,8.87-16,10-1.14.56-3.26,1.76-4,2-18.36,5.93-42.65,1.7-55.99-13.01-8.71-9.6-6.58-23.56-20.5-22.49-18.14,1.4-12.32,15.1-18.03,27.98-7.22,16.29-20.99,23.18-35.48,31.52-2.87-1.8-7.05-1.52-9.94-3.13-2.49-1.39-3.63-4.65-4.06-4.87h2c6.6,1.77,11.24-4.77,14-6,1.21-.54,4.88.5,7.81-1.1,18.9-10.29,27.1-36.43,15.09-54.81-26.52-40.59-99.09-10.1-70.91,39.91,3.25,5.77,5.42,12.27,14,10v6c-4.61-.34-6.09,3.72-14,0-12.49-5.88-17.14-29.34-16-42,.41-4.48,1.74-7,2-14l21.32-19.68c7.25-4.62,12.65-5.14,20.68-6.32,3.02-.44,12.32-2.09,14-2,11.48.63,27.8,10.99,34.87,20.13,2.48,3.21,4.78,11.56,7.09,13.03,2.07,1.32,18.11-6.22,24.03-3.17-.53-16.75,9.72-35.35,24.01-43.99,2.98-1.8,10.44-.64,12-6,16.47,1.04,24.81-2.27,40.65,6.35,18.09,9.84,28.13,33.51,23.35,53.65ZM416.22,444.21c13.46-59.57-86.45-66.35-80.09-.89,2.43,25.05,31.42,40.13,54.5,30.72,1.8-.73,3.07-4.25,5.59-5.82,5.21-3.25,4.84.1,12-8,1.26-1.42,1.33-2.92,2-4,3.52-5.62,3.94-2.88,6-12Z"/>
    <path class="st0" d="M230.22,322.21c1.03-3.18.47-25.54-1.87-27.13-3.84-2.61-46.84-3.89-57.02-6.98-2.74-.83-5.41-1.03-5.1-4.86,38.76-27.89,80.64-51.96,121.95-76.13l143.83,19.3c3.5,10.6-8.58,8.6-13.78,15.8-.28-.33-3.57-.32-5.02-1.9-2.32-2.53-12.26-19.26-14.96-9.03-.4,1.52,1.95,3.97,1.99,4.93-2.35-2.76-5.56-7.11-9.07-7.93-34.5-3.34-68.9-10.95-103.48-11.6-34.62,21.45-71.06,41.03-103.45,65.52,40.95,2.77,81.48,10.75,122.56,11.56,11.91-7.53,90.48-46.14,93.17-52.87.56-1.39.33-3.16.27-4.67,5.5,6.45,4.6,10.04,6,12l-27.88,14.15,7.88,21.85c-.98.25-2.59,5.44-6,4-.53-2.53-9.6-19.69-10.96-19.79l-60.49,33.33c-8.98,2.51-68.04-8.03-70.56-5.54-1.94,23.3-.69,28.07,22.01,34.01-.22,0-1.3,1.73-2.91,1.72-4.47-.02-9.93-3.06-15.09-1.72-.57-.4-1.97-.39-4-2-.45-.35-.26-6.9-8-6Z"/>
    <path class="st11" d="M194.23,514.22c5.49,5.7-7.62,7.5-8.02,8.03-.46.6,2.54,10.33,2.13,14.97-.33,3.7-4.91,11.91-4.12,12.96.56.73,10.56,3.05,14.91,10.12,2.91,4.72,2.73,11.43,3.11,11.91.58.75,11.06-2.9,18.52-1.52,6.14,1.13,16.08,9.68,18.17,9.31,1.76-.31,7.95-7.44,13.23-8.84,8.28-2.19,27.46-3.32,26.05,9.05-17.09-3.07-29.83-5.31-39.05,12.01-3.59.88-11.34-11.96-18.36-13.58-11.03-2.53-18.11,3.35-28.57,3.56,5.47-24.69-1.86-22.38-20.94-26.06-14.18-2.73,4.13-10.17,6.32-12.54,13.2-14.26-12.96-23.95-7.37-29.39,3.77.6,23.17-.87,24,0Z"/>
    <path class="st10" d="M230.22,322.21c7.74-.9,7.55,5.65,8,6-6.45.66-9.73,7.31-12.84,12.16-19.92,31.17-19.83,60.56-21.16,95.84-.26,7-1.59,9.52-2,14-12.06-32.45-3.84-77.98,12.97-108.03,2.74-4.9,14.65-18.78,15.03-19.97Z"/>
    <path class="st5" d="M134.7,445.73c-2.34-2.33-3.05-8.82-2.14-12.07,3.64-13.05,38.13-11.01,39.65-4.42.84,3.64-27.22,26.76-37.51,16.5ZM162.22,430.23c-8.21.28-23.79-2.94-23.99,8.95,2.62,8.65,21.75-3.26,23.99-8.95Z"/>
    <path class="st2" d="M184.21,414.2c-8.98-1.71-41.5-.19-37.19-16.04,5.74-21.12,39.88-.58,37.19,16.04ZM174.21,406.2c4.3-3.74-19.27-19.06-21.95-6.91-1.59,7.2,17.63,7.79,21.95,6.91Z"/>
    <path class="st4" d="M460.22,372.21c-18.92-3.68-31.47,9.81-31.99,27.99,13.23-2.78,28.34-5.66,35.99-17.99,1.18,5.69,1.34,13.97,2,20-4.53,1.15-18,5.06-18.02,10.98,0,1.01,15.7,8,18.02,9.02-.6,12.51-4.94,24.3-9.03,35.97l-20.97,36.03c-7.43.04-2.47-8.56-8-14,7.81-12.82,14.29-22.43-2-32,4.78-20.13-5.27-43.8-23.35-53.65-15.84-8.62-24.18-5.32-40.65-6.35-5.76-.36-11.56.12-16.46-.36s-17.54-9.66-19.53-7.63c-6.22,6.33,18.21,17.03,23.99,13.99-14.28,8.64-24.54,27.24-24.01,43.99-5.92-3.05-21.96,4.48-24.03,3.17-2.31-1.47-4.6-9.82-7.09-13.03-7.08-9.14-23.39-19.49-34.87-20.13,7.31-.19,18.44-17.68,13.99-22-5.42-5.25-6.95,7.75-9.93,11.07-6.38,7.13-19.74,2.31-18.06,12.93-8.02,1.18-13.42,1.7-20.68,6.32l-21.32,19.68c1.33-35.28,1.25-64.67,21.16-95.84,3.1-4.86,6.39-11.5,12.84-12.16,2.03,1.61,3.43,1.6,4,2,32.69,22.94,121.88,2.94,142.12-30.96,2.87-4.81-.36-7.91,6.7-6.97,12.92,1.72,37.75,23.8,46.21,33.91,12.89,15.41,17.53,27.05,22.98,46.02ZM322.21,396.2c.77-.87-4.71-21.77-9.98-19.98-3.72,4.29,5.75,24.78,9.98,19.98Z"/>
    <path class="st2" d="M502.22,502.21c-.34.57-9.63,6.47-9.98,6,1.05-6.23-1.62-31.71-7.05-33.97-6.09-2.53-4.62,3.75-4.97,3.97-1.2.76-9.38-1.01-13.97,1.04-2.86,1.28-14.45,15.77-16.03,18.96-9.55,5.79-15.18,15.61-27.45,17.74-3.49,1.15-3.85-5.04-6.55-7.74,3.97-6.78,10.67-7.87,10.2-16.99-.54-10.56-14.83-8.66-12.2-21.01.35-.3-1.06-5.55,4-4-.46,13.24,5.65,9.72,10,14,5.53,5.44.57,14.04,8,14,1.53,0,3.09.15,4.55-.41,12.02-4.6,35.01-56.67,31.29-71.49-1.7-.73-4.73.39-5.84-.1-2.32-1.02-18.03-8.01-18.02-9.02.03-5.92,13.49-9.83,18.02-10.98,1.63-.41,4.11.37,5.99,0,1.8-20.68-5.71-39.67-13.99-58,46.55,17.77,60.03,71.44,55.97,116.97-.8,8.98-7.56,33.51-11.97,41.03ZM484.12,418.1c1.45-16.64-15.42-11.79-25.9-7.86,3.19,5.2,22.18,12.2,25.9,7.86Z"/>
    <path class="st4" d="M264.22,506.21c14.5-8.34,28.26-15.22,35.48-31.52,5.71-12.88-.11-26.59,18.03-27.98,13.92-1.07,11.79,12.89,20.5,22.49,13.34,14.71,37.63,18.93,55.99,13.01-2.92,11.53,11.17,10.16,10,20-3.94-.48-10.43-.39-14.14.87-5.12,1.74-5.3,6.3-7.99,8.01-2.92,1.86-7.41,1.28-10.68,3.32-7.06,4.41-3.71,14.11-6.36,16.04-1.66,1.21-19.95,3.6-23.76,3.85-12.28.78-62.44-1.31-68.89-11.28-3.02-4.68-1.96-12.89-8.2-16.8ZM333.72,478.64c-5.1.83-10.29,5.18-14.69,5.56-7.26.62-10.63-4.89-18.77,1.07-8.64,6.33-8.51,22.68,1.85,26.08,11.18,3.67,14.63-5.49,23.64-6.78,6.36-.91,11.33,2.04,17.5,1.84,21.6-.69,15.88-31.9-9.53-27.78Z"/>
    <path class="st5" d="M480.22,478.21c11.11,32.64,1.34,59.16-31.48,71.52-11.84,4.46-47.89,13.99-59.06,12-15.83-2.82-14.05-28.48-15.23-41.31l23.76-2.22c1.48-6.96-7.25-3.78-7.97-7.96,14.86-9.46,22.6,10.06,27.33,11.68,9.68,3.32,27.56-6.41,31.77-15.68,1.27-2.79.39-7.01.89-8.02,1.59-3.19,13.17-17.68,16.03-18.96,4.59-2.05,12.77-.28,13.97-1.04Z"/>
    <path class="st9" d="M380.22,288.21c.3,1.42.15,4.37,0,6-3.84,2.18-7.72,5.23-8,10-3.52,2.06-6.33,2.85-10,6-5.53.63-9.68,5.75-14,8-1.22.63-2.79,1.48-4,2-1.53.66-3.09,1.64-4,2-30.06,11.96-49.11,9.39-80,8-22.7-5.94-23.95-10.71-22.01-34.01,2.52-2.49,61.58,8.06,70.56,5.54l60.49-33.33c1.36.1,10.43,17.26,10.96,19.79Z"/>
    <path class="st2" d="M584.22,418.21c3.9,16.34-1.58,45.12-8.44,60.56-6.09,13.7-16.4,23.92-27.56,33.44-14.72-2.1-16.29.61-32-6,44.17-32.82,57.22-92.57,42-144,13.93,16.35,17.14,30.29,22.41,50.69.66,2.55,3.48,4.84,3.59,5.31Z"/>
    <path class="st7" d="M458.22,336.21c62.91,23.51,76.29,107.6,52.98,163.96,48.23-32.31,53.83-96.32,37.02-147.96,3.99,3.73,6.25,5.6,10,10,15.22,51.43,2.17,111.18-42,144-4.36-1.84-7.44-5.93-14-4,4.41-7.52,11.17-32.05,11.97-41.03,4.07-45.53-9.42-99.2-55.97-116.97-1.23-2.72-2.83-5.25-4-7.98,1.21-.32,3.28.37,4-.02Z"/>
    <path class="st2" d="M602.22,430.21c3.87,21.14,8.32,45.23-1.64,65.36-2.98,6.02-8.75,10.15-10.36,16.64-11.54,3.16-21.61,5.69-34,4l18.83-22.17c12.89-21.39,19.1-47.1,15.17-71.83,3,1.79,10.64,7.61,12,8Z"/>
    <path class="st5" d="M246.21,504.23c-2.77,4.46-11.75.77-16.64,2.32-2.64.84-3.88,2.9-3.33,5.64,5.76-.33,22.15.26,25.02,5.98,1.53,3.05,1.79,27.39.65,30.71s-9.57,6.8-12.85,7.24c-40.31,5.45-35.21-73.63,7.15-51.89Z"/>
    <path class="st5" d="M614.22,430.21c.68.3,8.76,9.85,9.68,11.32,9.56,15.24,6.13,29.93,4.32,46.68-11.15,11.45-12.69,13.49-28,20,17.32-22.31,17.16-52.29,8-78,1.73.39,4.81-.52,6,0Z"/>
    <path class="st2" d="M638.22,478.21c-2-3.36.42-8.35.04-12.92-1.4-16.72-6.34-30.82-20.04-41.08,15.92-12.88,32.68,3.54,32.05,20.89-.4,11.05-5.59,24.17-12.05,33.11Z"/>
    <path class="st7" d="M590.22,422.21c3.93,24.73-2.29,50.44-15.17,71.83l-18.83,22.17c-2.23-.3-5.75-3.68-8-4,11.16-9.52,21.46-19.74,27.56-33.44,6.86-15.44,12.34-44.22,8.44-60.56,2.05,1.24,3.94,2.77,6,4Z"/>
    <path class="st7" d="M608.22,430.21c9.16,25.71,9.32,55.69-8,78-3.77,1.6-5.45,2.75-10,4,1.61-6.49,7.38-10.62,10.36-16.64,9.96-20.13,5.52-44.22,1.64-65.36,1.59.45,4.25-.39,6,0Z"/>
    <path class="st3" d="M414.22,470.21c-2.63,12.35,11.66,10.45,12.2,21.01.47,9.12-6.23,10.21-10.2,16.99-.99-.99-4.69-3.45-6-4,2.92-13.34-12.46-13.17-12-24,2.29-1.13,14.35-8.62,16-10Z"/>
    <path class="st7" d="M638.22,478.21c-3.59,4.96-6.45,6.36-10,10,1.81-16.75,5.24-31.44-4.32-46.68-.92-1.47-9-11.03-9.68-11.32-.25-3.87,1.84-4.25,4-6,13.71,10.26,18.64,24.36,20.04,41.08.38,4.57-2.05,9.56-.04,12.92Z"/>
    <path class="st3" d="M254.22,466.21c-4.64,11.31,5.42,20.65-6,30-1.09-.51-14.41-3.88-16-4v-6c.14-.04,1.96-1.86,2-2,2.95-4.36,2.5-10.63,4-16,5.32-.44,10.72-1.21,16-2Z"/>
    <path class="st2" d="M460.22,372.21c.92,3.19,3.11,5.7,4,10-7.65,12.33-22.76,15.21-35.99,17.99.52-18.18,13.06-31.67,31.99-27.99ZM456.21,376.22c-10.1-2.13-18.43,6.68-19.98,15.98,9.28-1.9,21.92-3.4,19.98-15.98Z"/>
    <path class="st2" d="M260.22,464.21c-1.04,6.43-3.5,13.86,0,20-.25,5.94-5.01,9.43-8,14h-2c-.89-.45-1.49-1.76-2-2,11.42-9.35,1.36-18.69,6-30,1.55-.23,3.61-1.75,6-2Z"/>
    <path class="st5" d="M284.21,536.23c.02,2.92-6.08,3.84-8.41,4.54-5.04,1.52-10.45,2.17-15.56,3.42.55-13.64,14.76-12.58,23.97-7.97Z"/>
    <path class="st2" d="M398.22,480.21c-.46,10.83,14.92,10.66,12,24-1.08-.45-5.25-1.91-6-2,1.17-9.84-12.92-8.47-10-20,.74-.24,2.86-1.44,4-2Z"/>
    <path class="st2" d="M261.69,512.74c3.5,3.81,5.14,18.2-3.46,17.46.5-7.42.33-13.74-4.01-19.97,1.12-.89,6.32,1.26,7.47,2.51Z"/>
    <path class="st0" d="M372.22,304.21c.28-4.77,4.16-7.82,8-10-.89,9.61-2.21,6.62-8,10Z"/>
    <path class="st0" d="M362.22,310.21c-1.45,1.24-5.29,4.11-5.59,4.42-1.86,1.86,2.6,8.05-7.13,5.26l-1.28-1.67c4.32-2.25,8.47-7.37,14-8Z"/>
    <path class="st4" d="M416.22,444.21l-14,2c-.57-.74-1.44-1.29-2-2-8.29-10.6-21.44-5.35-33.96-4.98-.19-4.36,37.96-18.02,22.9-21.02-6.77-1.34-30.09,14.97-34.88,21.06-20.81,26.47,10.11,9.04,19.48,7.42,3.76-.65,7-.2,10.46-.48,3.95,7.64,2.48,20.13,12,22-2.53,1.58-3.8,5.09-5.59,5.82-23.08,9.41-52.06-5.66-54.5-30.72-6.36-65.45,93.55-58.67,80.09.89Z"/>
    <path class="st4" d="M266.22,492.21c.99-4.75-5.24-6.67-6-8-3.5-6.14-1.04-13.57,0-20,7.6-.8,16.24.59,23.99-.01,2.39-14.35-41.83-27.09-47.01-20.01-6.39,8.73,24.5,4.6,27.01,12-5.97.07-23.16,2.13-25.7,7.32-.71,1.45.05,3.5-.29,4.7-1.5,5.37-1.05,11.64-4,16,.74-2.39-.48-7.1,0-10.01l-16,2.01c-28.18-50,44.38-80.5,70.91-39.91,12.01,18.38,3.8,44.52-15.09,54.81-2.94,1.6-6.6.56-7.81,1.1Z"/>
    <path class="st1" d="M428.22,480.21c-4.35-4.28-10.46-.76-10-14,.33-9.28,6.99-13.74,8-18,16.29,9.57,9.81,19.18,2,32Z"/>
    <path class="st3" d="M396.22,446.21c.74,7.19,5.47,11.69,12,14-7.16,8.1-6.79,4.75-12,8-9.52-1.87-8.05-14.36-12-22,3.88-.32,8.28.5,12,0Z"/>
    <path class="st10" d="M246.22,410.21c-1.68-10.62,11.68-5.8,18.06-12.93,2.98-3.33,4.51-16.33,9.93-11.07,4.45,4.32-6.68,21.82-13.99,22-1.68-.09-10.98,1.56-14,2Z"/>
    <path class="st10" d="M362.22,388.21c-1.56,5.36-9.02,4.2-12,6-5.78,3.04-30.21-7.66-23.99-13.99,1.99-2.03,14.81,7.17,19.53,7.63s10.7,0,16.46.36Z"/>
    <path class="st1" d="M218.22,476.21l16-2.01c-.47,2.91.74,7.62,0,10.01-.04.14-1.86,1.96-2,2-8.58,2.27-10.75-4.23-14-10Z"/>
    <path class="st1" d="M416.22,444.21c-2.06,9.12-2.48,6.38-6,12-5.7-1.41-6.18-7.64-8-10l14-2Z"/>
    <path class="st2" d="M402.22,446.21c1.82,2.36,2.3,8.59,8,10-.67,1.08-.74,2.58-2,4-6.53-2.31-11.26-6.81-12-14,1.12-.15,2.71-1.6,4-2,.56.71,1.43,1.26,2,2Z"/>
    <path class="st1" d="M266.22,492.21c-2.76,1.23-7.4,7.77-14,6,2.99-4.57,7.75-8.06,8-14,.76,1.33,6.99,3.25,6,8Z"/>
    <path class="st9" d="M400.22,236.21c.06,1.51.29,3.27-.27,4.67-2.69,6.73-81.26,45.35-93.17,52.87-41.08-.81-81.6-8.79-122.56-11.56,32.39-24.48,68.82-44.07,103.45-65.52,34.58.65,68.98,8.26,103.48,11.6,3.51.83,6.73,5.18,9.07,7.93Z"/>
    <path class="st3" d="M162.22,430.23c-2.24,5.7-21.37,17.6-23.99,8.95.2-11.89,15.78-8.67,23.99-8.95Z"/>
    <path class="st3" d="M174.21,406.2c-4.33.88-23.54.29-21.95-6.91,2.68-12.15,26.26,3.17,21.95,6.91Z"/>
    <path class="st10" d="M466.22,422.21c1.12.49,4.14-.63,5.84.1,3.72,14.82-19.27,66.89-31.29,71.49-1.46.56-3.03.41-4.55.41l20.97-36.03c4.09-11.66,8.43-23.45,9.03-35.97Z"/>
    <path class="st8" d="M322.21,396.2c-4.23,4.8-13.7-15.69-9.98-19.98,5.27-1.79,10.74,19.11,9.98,19.98Z"/>
    <path class="st3" d="M484.12,418.1c-3.72,4.33-22.71-2.67-25.9-7.86,10.48-3.93,27.34-8.77,25.9,7.86Z"/>
    <path class="st10" d="M333.72,478.64c25.41-4.12,31.13,27.09,9.53,27.78-6.17.2-11.14-2.75-17.5-1.84-9.01,1.29-12.45,10.44-23.64,6.78-10.37-3.4-10.49-19.75-1.85-26.08,8.14-5.96,11.51-.45,18.77-1.07,4.4-.38,9.59-4.73,14.69-5.56ZM316.22,490.21c-.82,0-3.49-1.99-6.8-1.89-11.3.35-12.92,17.89-3.2,17.89,5.47,0,13.07-6.75,19.54-7.62,7.23-.97,30.68,7.73,23.44-8.35-6.13-13.61-22.89-.13-32.98-.03Z"/>
    <path class="st0" d="M344.22,320.21c.61,4.73-.54,5.42-4,2,.91-.36,2.47-1.34,4-2Z"/>
    <path class="st4" d="M548.22,352.21c16.81,51.64,11.21,115.64-37.02,147.96,23.31-56.35,9.94-140.44-52.98-163.96,36.86-19.66,61.48-10.71,90,16Z"/>
    <path class="st10" d="M238.22,468.21c.33-1.2-.43-3.25.29-4.7,2.55-5.19,19.74-7.25,25.7-7.32-2.52-7.4-33.4-3.27-27.01-12,5.18-7.08,49.4,5.66,47.01,20.01-7.75.6-16.39-.79-23.99.01-2.39.25-4.45,1.77-6,2-5.28.79-10.68,1.56-16,2Z"/>
    <path class="st3" d="M456.21,376.22c1.94,12.58-10.69,14.08-19.98,15.98,1.55-9.3,9.88-18.11,19.98-15.98Z"/>
    <path class="st10" d="M400.22,444.21c-1.29.4-2.88,1.85-4,2-3.72.5-8.12-.32-12,0-3.46.28-6.7-.17-10.46.48-9.36,1.62-40.29,19.05-19.48-7.42,4.79-6.09,28.11-22.4,34.88-21.06,15.06,2.99-23.1,16.66-22.9,21.02,12.52-.37,25.67-5.61,33.96,4.98Z"/>
    <path class="st1" d="M306.22,506.21l10-16c10.09-.1,26.85-13.57,32.98.03,7.24,16.07-16.21,7.38-23.44,8.35-6.48.87-14.08,7.62-19.54,7.62Z"/>
    <path class="st6" d="M316.22,490.21l-10,16c-9.72,0-8.1-17.53,3.2-17.89,3.31-.1,5.98,1.9,6.8,1.89Z"/>
  </g>
</svg>