<?xml version="1.0" encoding="UTF-8"?>
<svg id="_레이어_1" data-name="레이어_1" xmlns="http://www.w3.org/2000/svg" version="1.1" viewBox="0 0 800 800">
  <!-- Generator: Adobe Illustrator 30.0.0, SVG Export Plug-In . SVG Version: 2.1.1 Build 123)  -->
  <defs>
    <style>
      .st0 {
        fill: #19232e;
      }

      .st1 {
        fill: #dab482;
      }

      .st2 {
        fill: #4b3c31;
      }

      .st3 {
        fill: #7ea05b;
      }

      .st4 {
        fill: #fdfefd;
      }

      .st5 {
        fill: #b6d2bb;
      }

      .st6 {
        fill: #98be70;
      }

      .st7 {
        fill: #92b86e;
      }

      .st8 {
        fill: #a8825d;
      }

      .st9 {
        fill: #f5e3ca;
      }

      .st10 {
        fill: #2e4767;
      }

      .st11 {
        fill: #1b251d;
      }

      .st12 {
        fill: #9b8d4d;
      }
    </style>
  </defs>
  <path class="st8" d="M521.87,208.24c5.58-.04,25.89-5.58,27.98,1.04,1.08,3.41-.33,5.12-3.42,6.54s-34.76,4.42-36.51,3.54c-13.07-6.57,14.21-27.96,15.94-37.08-22.13,7.89-38.25-7.13-6.97-9.98,42.54-3.88,14.01,17.19,2.97,35.94Z"/>
  <path class="st8" d="M491.88,212.26c2.06,11.24-8.62,17.7-14.01,25.98,3.52.34,21.66-2.27,19.99,4.99-1.39,6.03-28.25,6.63-32.07,4.11-8.13-5.37,13.35-22.28,10.07-25.07-14.23,3.57-25.14-8.34-7.01-10.02,7.45-.69,15.5.49,23.03.01Z"/>
  <path class="st8" d="M439.87,264.24c9.48.75,16.22-4.05,14.01,8.01-6.46-2.08-23.33,5.4-27.16.15-5-6.85,9.91-17.73,7.14-20.13-20.26,1.49-16.11-9.68,2.95-10.13,23.35-.54,9.53,10.49,3.06,22.1Z"/>
  <g>
    <path class="st8" d="M335.87,248.26c3.37,2.01,9.69,9.54,14.09,11.01,3.6,1.21,7.64-1.63,12.44-.7,6.4,1.24,6.89,7.44,12.26,9.9,6.72,3.07,21.82,2.23,26.4,5.61,7.09,5.24-3.72,23.71-10.59,25.75-16.17,4.81-18.81-8.2-29.51-15.66-3.11-2.17-7.56-1.48-10.12-3.87-2.84-2.66-2.76-10.3-7.1-14.91-4.96-5.27-14.21-5.9-15.87-7.13-.42-.31-1.71-4.43-6-8-3.23-2.69-7.97-3.81-10-8-.61-4.04.84-4.69,4.81-3.98,1.07.19,16.82,8.58,19.19,9.98ZM363.86,266.27c-2.94-.35-8.95-.31-9.97,3.01-2.77,9.1,13.27,10.19,9.97-3.01ZM395.87,280.29c-4.82-.57-26.6-7.59-27.99-1,8.45,15.17,22.08,22.46,27.99,1Z"/>
    <path class="st3" d="M447.87,362.26c-1.26,6.08-8.09,12.82-14,14-.61-4.03-1.81-7.92-2.01-11.99,5.28-.04,10.93-.67,16.01-2.01Z"/>
    <path class="st1" d="M395.87,280.29c-5.92,21.46-19.54,14.17-27.99-1,1.4-6.6,23.17.43,27.99,1Z"/>
    <g>
      <path class="st2" d="M353.87,554.26c1.19-.14,3.71.33,4,0,.5-.58-.31-4.37,0-6,.58-3.01,7.23-23,8-24,.6-.78,2.26.41,6-6,10.25-17.58,18.25-28.43,26-48,11.06-27.92,18-57.11,32-84,2.08-3.99,5.69,1.2,4-10,5.91-1.18,12.74-7.92,14-14,9.19-2.42,7.51-5.7,8-6,33.01-20.47,111.86,13.98,138.95,38.05,16.93,15.05,24.58,33.4,38.25,47.75,14.88,15.63,38.36,15.21,36.83,45.11-2.12,41.48-32.28,63.54-57.04,91.06-12.84,14.27-19.83,32.97-39.61,40.39-35.01,13.15-85.37-15.19-120.52-24.22-19.73-5.07-83.51-10.84-94.01-23.99-3.72-4.66-4.07-10.59-4.84-16.16ZM393.87,576.26c1.75.38,4.18-.34,6,0,8.81,1.63,17.77,2.46,26,4,9.92,1.85,22.65,3.6,32,6,3.76.96,26.72,7.28,28,8,10.17,5.68,16.95,8.12,30,12,11.17,3.32,19.23,7.42,32,8,13.49.61,27.23-2.15,37.18-11.9,2.23-2.18,2.19-5.36,2.82-6.1,5.2-6.11,9.21-12.41,14-18,3.39-3.96,6.62-8.1,10-12,4.39-5.06,10.83-10.12,16-16,4.7-5.34,7.33-7.85,12-14,5.05-6.66,10.52-12.13,14-20,2.53-5.74,2.67-10.58,4-16,2.69-10.97,5.15-8.71,2-22-3.47-14.66-5.9-13.17-18-20-1.41-.8-2.82-1.34-4-2-2.29-1.29-4.02-4.51-8-4-5.24-9.18-11.78-17.49-18-26-10.36-14.18-11.13-14.95-24-26-11.66-10.01-12.64-10.65-26-18-14.86-8.18-18.02-8.85-34-14-7.42-2.39-11.88-4.19-20-6-2.6-.58-4.24-1.42-8-2-.59-.09-2.19-1.82-4.84-2.08-25.38-2.45-35.6,1.66-50.81,21.42-24.05,31.25-28.18,71.36-43.99,106.01-7.44,16.3-18.43,28.32-26.69,43.31-17.54,31.83-15.99,39.55,20.34,47.34Z"/>
      <path class="st1" d="M527.87,368.26l-4,7.98c9.92-.54,23.19,11.25,31.15,12.09,4.13.44,3.32-5.29,6.85-6.08,13.36,7.35,14.34,7.99,26,18-2.76,3.73-2.08,4.94.94,8.02,5.38,5.48,16.16,14.1,23.06,17.98,6.22,8.51,12.76,16.82,18,26,2.82,4.94,8.54,23.79,13.03,25.98,4.23.78,3.25-1.59,2.58-4.58-1.34-6.06-5.02-11.83-7.61-17.4,1.18.66,2.59,1.2,4,2l18,20c3.15,13.29.69,11.03-2,22-7.19-3.07-17.49-19.69-23.03-21.98-3.11-1.29-6.36,7.72-6.65,9.49-1.35,8.2,17.94,24.97,25.68,28.49-3.48,7.87-8.95,13.34-14,20-5.14-3.3-20.74-19.4-25.34-19.79-2.24-.19-9.18,9.57-10.66,11.79-8.41,1.03-19.05-13.09-25.34-13.72-5.97-.6-11.33,17.39-16.62,20.73,8.82,5.04,17.38,11.88,25.96,17l-10,17.99,24,8.01c-4.79,5.59-8.8,11.89-14,18-8.69,1.35-16.15-3.85-24-6l11.99-21.98c-9.63-1.44-19.2-7.23-27.99-10.02-.57-7.25,13.65-16.66,11.89-22.73-.49-1.7-28.48-17.33-30.98-17.28-5.67.11-13.91,23.41-16.9,28.94.74,3.55,28.87,9.41,33.99,11.07l-15.99,23.98c9.81.84,18.76,5.49,27.99,8.02-.39,8.77-6.79,16.03-10,24-12.77-.58-20.83-4.68-32-8l12.01-22.96c-.45-2.14-24-9.73-28.01-11.04.06-8.81,6.74-15.31,9.98-22.88-.86-4.02-23.78-9.87-28.76-11.29l-11.07,22.96c1.12,4.95,22.8,9.53,27.85,11.2l-12,22c-1.28-.72-24.24-7.04-28-8l9.71-23.06c-.15-1.63-24.51-10.47-27.11-10.63-5.36-.32-13.53,22.28-14.59,27.69-8.23-1.54-17.19-2.37-26-4,3.41-22.2,19.26-38.78,29.09-57.91,26.39-51.4,30.86-117.95,78.91-156.09,8.12,1.81,12.58,3.61,20,6ZM543.81,408.34c-6.92.14-28.23-13.23-32.64-11.92-2.35.69-12.11,17.6-11.19,20.6.6,1.96,30.39,13.73,32.58,13.09,2.42-.71,13.12-19.13,11.25-21.76ZM601.78,468.19c.87-5.86,6.05-12.18,3.18-17.93-.77-1.54-24.89-20.11-27.17-21-7.69-3.02-15.6,12.19-13.02,16.98,1.8,3.35,33.98,24.11,37.01,21.95ZM519.87,454.28c-5.96.34-30.59-12.23-33.81-9.87-1.42,1.04-10.01,23.59-8.11,25.77,7.13-.39,28.71,11.35,33.69,7.84,1.03-.72,9.08-22.81,8.24-23.74ZM540.01,494.1c6.61.16,33.93,18.67,36.66,18.02,1.86-.44,10.87-15.18,10.72-16.9-.23-2.58-32.13-23.46-36.48-23.12-4.68.36-12.29,20.08-10.9,22ZM495.81,504.35c-5.86-.73-28-11.15-31.79-7.93l-12.15,31.82c7.24.45,24.2,10.77,30.02,7.11,2.29-1.44,15.39-28.93,13.92-31Z"/>
      <path class="st9" d="M499.87,360.26c-41.87,35.44-48.98,92.28-69.65,139.35-11.53,26.24-32.63,47.83-36.35,76.65-36.33-7.79-37.88-15.52-20.34-47.34,8.26-14.99,19.25-27.01,26.69-43.31,15.82-34.65,19.94-74.76,43.99-106.01,15.21-19.76,25.43-23.88,50.81-21.42,2.66.26,4.26,1.99,4.84,2.08Z"/>
      <path class="st8" d="M507.87,362.26c-48.05,38.14-52.52,104.69-78.91,156.09-9.83,19.13-25.68,35.71-29.09,57.91-1.82-.34-4.25.38-6,0,3.71-28.82,24.82-50.41,36.35-76.65,20.68-47.06,27.79-103.91,69.65-139.35,3.76.58,5.4,1.42,8,2Z"/>
      <path class="st9" d="M457.87,586.26c-9.35-2.4-22.08-4.15-32-6,1.06-5.41,9.24-28.01,14.59-27.69,2.6.16,26.96,8.99,27.11,10.63l-9.71,23.06Z"/>
      <path class="st9" d="M515.87,606.26c-13.05-3.88-19.83-6.32-30-12l12-22c.6.2,1.4-.2,2,0,4.02,1.32,27.56,8.9,28.01,11.04l-12.01,22.96Z"/>
      <path class="st1" d="M627.87,550.26c-5.17,5.88-11.61,10.94-16,16-6.87-3.94-13.36-10.03-20-14-.2-8.48,7.84-13.71,12-20,8.97,4.38,17.03,10.9,24,18Z"/>
      <path class="st9" d="M639.87,536.26c-4.67,6.15-7.3,8.66-12,14-6.97-7.1-15.03-13.62-24-18,.47-.71-.47-3.3,0-4,1.48-2.22,8.42-11.98,10.66-11.79,4.6.39,20.2,16.49,25.34,19.79Z"/>
      <path class="st9" d="M563.87,590.26c7.85,2.15,15.31,7.35,24,6-.63.74-.59,3.91-2.82,6.1-9.96,9.76-23.69,12.52-37.18,11.9,3.21-7.97,9.61-15.23,10-24,1.64.45,4.36-.45,6,0Z"/>
      <path class="st9" d="M657.87,500.26c-1.33,5.42-1.47,10.26-4,16-7.74-3.51-27.03-20.29-25.68-28.49.29-1.77,3.53-10.78,6.65-9.49,5.54,2.29,15.84,18.91,23.03,21.98Z"/>
      <path class="st9" d="M591.87,552.26c6.64,3.97,13.13,10.06,20,14-3.38,3.9-6.61,8.04-10,12l-24-8.01,10-17.99c.77.46,3.23-.46,4,0Z"/>
      <path class="st9" d="M561.87,382.26c-3.53.79-2.71,6.51-6.85,6.08-7.97-.84-21.23-12.63-31.15-12.09l4-7.98c15.98,5.15,19.14,5.82,34,14Z"/>
      <path class="st9" d="M611.87,426.26c-6.9-3.88-17.67-12.5-23.06-17.98-3.02-3.08-3.71-4.28-.94-8.02,12.87,11.05,13.64,11.82,24,26Z"/>
      <path class="st8" d="M637.87,456.26c2.6,5.57,6.27,11.34,7.61,17.4.66,2.99,1.64,5.36-2.58,4.58-4.48-2.19-10.21-21.05-13.03-25.98,3.98-.51,5.71,2.71,8,4Z"/>
      <path class="st9" d="M659.87,478.26l-18-20c12.1,6.83,14.53,5.34,18,20Z"/>
      <path class="st9" d="M547.87,558.26c-.6-.19-1.4.2-2,0-5.12-1.66-33.25-7.52-33.99-11.07,2.99-5.53,11.22-28.83,16.9-28.94,2.5-.05,30.49,15.58,30.98,17.28,1.75,6.06-12.46,15.48-11.89,22.73Z"/>
      <path class="st9" d="M495.81,504.35c1.47,2.07-11.62,29.55-13.92,31-5.82,3.66-22.77-6.66-30.02-7.11l12.15-31.82c3.78-3.22,25.93,7.2,31.79,7.93Z"/>
      <path class="st9" d="M540.01,494.1c-1.39-1.93,6.22-21.64,10.9-22,4.35-.34,36.25,20.54,36.48,23.12.15,1.71-8.86,16.45-10.72,16.9-2.73.65-30.05-17.86-36.66-18.02Z"/>
      <path class="st9" d="M519.87,454.28c.84.93-7.21,23.01-8.24,23.74-4.98,3.51-26.56-8.23-33.69-7.84-1.9-2.18,6.7-24.73,8.11-25.77,3.22-2.36,27.85,10.21,33.81,9.87Z"/>
      <path class="st9" d="M543.81,408.34c1.87,2.63-8.83,21.05-11.25,21.76-2.2.65-31.98-11.13-32.58-13.09-.92-3,8.85-19.91,11.19-20.6,4.41-1.3,25.72,12.06,32.64,11.92Z"/>
      <path class="st9" d="M601.78,468.19c-3.03,2.16-35.21-18.59-37.01-21.95-2.57-4.8,5.33-20,13.02-16.98,2.28.89,26.4,19.47,27.17,21,2.88,5.74-2.31,12.07-3.18,17.93Z"/>
      <path class="st8" d="M499.87,572.26c-.6-.2-1.4.2-2,0-5.05-1.67-26.73-6.25-27.85-11.2l11.07-22.96c4.97,1.42,27.9,7.26,28.76,11.29-3.25,7.57-9.92,14.07-9.98,22.88Z"/>
      <path class="st8" d="M547.87,558.26c8.8,2.8,18.36,8.58,27.99,10.02l-11.99,21.98c-1.64-.45-4.36.45-6,0-9.23-2.53-18.18-7.18-27.99-8.02l15.99-23.98c.6.2,1.4-.19,2,0Z"/>
      <path class="st8" d="M603.87,528.26c-.47.7.47,3.29,0,4-4.16,6.29-12.2,11.52-12,20-.77-.46-3.23.46-4,0-8.58-5.12-17.14-11.96-25.96-17,5.29-3.34,10.65-21.32,16.62-20.73,6.3.63,16.94,14.75,25.34,13.72Z"/>
    </g>
    <g>
      <path class="st0" d="M199.87,368.26c-.04-2.66-2.35-13.03-5.13-13.75-3.27-.85-36.18,7.02-43.9,7.72-3.12.28-12.25,1.94-11.05-3.02,19.42-36.1,45.91-68.9,69.03-103,44.12-11,89.71-21.45,135.05-25.93,1.4,7.95-6.78,11.03-7.99,17.99-2.36-1.4-18.12-9.8-19.19-9.98-3.98-.7-5.42-.05-4.81,3.98l-95.96,19.04-25.67,34.33-38.36,58.62c6.04-4.48,40.48-4.49,42-5.98.84-.82-.91-16.93,1.55-23.45,8.64-22.94,68.94-61.04,92.97-56.11,5.43,1.11,11.7,8.44,16.05,7.34,4.21-1.06,18.7-19.71,17.42-25.79,4.29,3.57,5.58,7.69,6,8-5.24,8.07-10.82,17.15-18,23.01-.8,2.77,9.32,8.83,10,8.99l-2,10c-.62.21-1.45-.23-2,0-1.12.47-1.66,1.84-2,2-.56.26-1.48-.27-2,0-1.11.57-1.57,1.74-2,2-2.02,1.23-4.1,2.61-6,4-1.76,1.29-3.07,1.58-6,4-1.38,1.14-3.93,4.1-6,6-6.08,1.26-12.82,8.09-14,14-2.01,1.91-3.91,4.01-6,6-3.28,3.12-3.69,5.77-4,6-1.79,1.36-4.44,1.21-6,2-2.74-3.7-11.49,1.14-14,4-.62.18-1.39-.19-2,0-1.53.48-1.87,1.96-2,2-.6.2-1.39-.19-2,0-5.17,1.58-5.94,2.26-10,4-1.03.44-2.8,1.4-4,2-1.4.71-2.51,1.14-4,2s-3.11,1.45-4,2c-2.83,1.74-2.59.83-6,4-.65.61-1.47,1.31-2,2h-12ZM311.87,296.23c2.89-3.71-21.28-21.57-26.93-21.72-18.95-.51-57.4,23.53-70.86,36.95-20.12,20.07-13.95,25.13-8.18,50.8,15.26-11.99,41.85-15.53,56.69-24.29,9.27-5.47,29.12-29.56,42.62-39.44,2.14-1.57,6.45-2.02,6.67-2.3Z"/>
      <path class="st11" d="M211.87,368.26c-17.87,23.13-10.37,70.31,1.65,95.35,12.83,26.73,38.67,48.68,69.27,50.71,14.61.97,22.61-4.39,36.11-6.03,6.74-.82,34.81-.46,38.97-6.03,11.24.62-9.35,8.04-6,11.98l20,4.02c-3.74,6.41-5.4,5.22-6,6-11.27-3.58-62.08-18.93-65.61-.75s45.48,25.79,57.61,24.75c-.31,1.64.5,5.42,0,6-.28.33-2.8-.14-4,0-8.42.96-19.72.02-28-2-2.37-.58-5.41-2.98-8-4-8.13-3.21-19.99-6.55-23.12-15.9-3.62-10.82,2.79-10.51-14.87-12.09-.69.66,10.97,24.64,2.02,15.98-.97-.94-2.64-10.2-6.97-14.06-5.46-4.88-18.47-6.63-25.82-10.18-12.53-6.06-30.1-23.83-37.25-35.75-.8-1.34-3.04-6.03-4-8-4.15-8.55-12.73-31.28-14-40-.36-2.47.18-5.4,0-8-.58-8.24-.73-20.69.22-28.78.9-7.63,5.88-16.08,5.78-23.22h12Z"/>
      <path class="st2" d="M193.87,420.26c.18,2.6-.36,5.53,0,8-7.11,6.26-16.1,13.72-21.96,21.04-5.76,7.19-11.27,21.05-15.99,26.01-5.64,5.94-28.17,8.76-11.96,19.86,3.79,2.6,8.25,2.81,12.04,5.95,7.22,5.98,15.1,22.29,24.82,31.18,15.27,13.97,34.74,23.87,54.62,29.38,10.34,2.86,30.62,4.21,37.9,7.94,4.13,2.12,5.2,9.6,11.84,10.2,9.8.89,10.14-11.31,13.73-15.53,4.32-5.08,18.27-6.75,18.95-16.05,2.59,1.02,5.63,3.42,8,4-2.1,8.38-18.57,13.02-21.47,16.53-3.92,4.74-1.28,15.49-13.67,17.39-15.56,2.39-15.55-7.81-24.77-11-28-9.69-45.66-5.75-74.7-25.3-20.85-14.03-26.08-30.43-39.98-43.02-6.06-5.49-20.5-5-20.89-17.95-.42-13.93,14.31-13.3,18.96-17.17,1.3-1.08,3.72-8.37,5.69-11.32,10.37-15.56,21.69-31.43,38.84-40.16Z"/>
      <path class="st11" d="M319.87,290.26c5.07,1.16,13.2-.82,18.99.02,40.27,5.83,64.87,29.61,86.71,61.36,1.26,1.83,2.05,6.17,2.48,6.5,1.12.83,23.05-4.05,27.82-1.87-.49.3,1.19,3.58-8,6-5.08,1.34-10.73,1.97-16.01,2.01.2,4.08,1.4,7.97,2.01,11.99,1.69,11.2-1.92,6.01-4,10-5.98-43.68-56.7-90.61-101.07-90.05-5.05.06-7.15,2.78-10.93,4.05l2-10Z"/>
      <path class="st6" d="M429.87,386.26c-14,26.89-20.94,56.08-32,84-10.24,4.87-18.31,14.87-27.34,21.65-3.47,2.6-12.23,5.81-12.65,6.38s.39,3.44,0,3.97c-4.16,5.57-32.23,5.22-38.97,6.03-13.5,1.64-21.51,7-36.11,6.03-30.6-2.03-56.44-23.98-69.27-50.71-12.01-25.04-19.52-72.22-1.65-95.35.53-.69,1.35-1.39,2-2l6-4c.89-.55,2.54-1.16,4-2l4-2c1.2-.6,2.97-1.56,4-2l10-4c.61-.19,1.4.2,2,0l2-2c.61-.19,1.38.18,2,0,5.57-1.61,7.13-.53,14-4,1.56-.79,4.21-.64,6-2l4-6c2.09-1.99,3.99-4.09,6-6,4.73-4.5,8.88-9.3,14-14,2.07-1.9,4.62-4.86,6-6l6-4c1.9-1.39,3.98-2.77,6-4l2-2c.52-.27,1.44.26,2,0l2-2c.55-.23,1.38.21,2,0,3.78-1.28,5.88-3.99,10.93-4.05,44.36-.56,95.09,46.37,101.07,90.05ZM401.87,382.26c6.84-61.22-90.03-65.13-90.14-5,0,4.47,4.73,20.02,4.1,20.87-.34.46-7.94,2.75-10.63,4.46-2.4,1.52-7.76,7.62-8.32,7.62-1.6,0-15.64-12.76-28.27-13.79-55.47-4.5-66.81,72.86-18.73,85.83-2.54,31.23,41.5,17.33,40-6,16.16-10.05,19.87-29.11,17.9-46.89-.85-7.69-9.9-13.8,3.37-20.83,11.83-6.26,12.07,2.29,20.07,7.38,13.13,8.36,37.86,9.76,50.67.33,19.1,8.83,49.3-27.3,20-34ZM315.88,450.27c.48,9.76,14.78,6.21,20.79,3.79,12.58-5.07,17.52-25.84,8.23-23.79-3.08.68-3.41,9.94-5.22,12.8-4.17,6.6-16.65,8.04-23.8,7.2Z"/>
      <path class="st7" d="M365.87,524.26c-.77,1-7.42,20.99-8,24-12.12,1.04-61.08-6.87-57.61-24.75s54.34-2.83,65.61.75Z"/>
      <path class="st3" d="M397.87,470.26c-7.75,19.57-15.75,30.42-26,48l-20-4.02c-3.34-3.94,17.24-11.36,6-11.98.4-.53-.42-3.4,0-3.97s9.18-3.77,12.65-6.38c9.03-6.78,17.1-16.78,27.34-21.65Z"/>
      <path class="st10" d="M311.87,296.23c-.22.28-4.53.74-6.67,2.3-13.5,9.88-33.35,33.96-42.62,39.44-14.84,8.76-41.43,12.3-56.69,24.29-5.76-25.66-11.94-30.73,8.18-50.8,13.46-13.42,51.91-37.46,70.86-36.95,5.64.15,29.82,18.01,26.93,21.72Z"/>
      <path class="st10" d="M311.87,242.26c2.03,4.19,6.77,5.31,10,8,1.28,6.08-13.21,24.73-17.42,25.79-4.35,1.1-10.62-6.23-16.05-7.34-24.03-4.92-84.33,33.18-92.97,56.11-2.46,6.52-.71,22.63-1.55,23.45-1.52,1.49-35.96,1.5-42,5.98l38.36-58.62,25.67-34.33,95.96-19.04Z"/>
      <path class="st11" d="M261.87,346.26c-6.87,3.47-8.43,2.39-14,4,2.51-2.86,11.26-7.7,14-4Z"/>
      <path class="st11" d="M241.87,352.26l-10,4c4.06-1.74,4.83-2.42,10-4Z"/>
      <path class="st11" d="M267.87,344.26c.31-.23.72-2.88,4-6l-4,6Z"/>
      <path class="st11" d="M291.87,318.26c-5.12,4.7-9.27,9.5-14,14,1.18-5.91,7.92-12.74,14-14Z"/>
      <path class="st11" d="M303.87,308.26l-6,4c2.93-2.42,4.24-2.71,6-4Z"/>
      <path class="st11" d="M227.87,358.26l-4,2c1.49-.86,2.6-1.29,4-2Z"/>
      <path class="st11" d="M219.87,362.26l-6,4c3.41-3.17,3.17-2.26,6-4Z"/>
      <path class="st11" d="M313.87,302.26c.34-.16.88-1.53,2-2l-2,2Z"/>
      <path class="st11" d="M309.87,304.26c.43-.26.89-1.43,2-2l-2,2Z"/>
      <path class="st11" d="M243.87,352.26c.13-.04.47-1.52,2-2l-2,2Z"/>
      <path class="st9" d="M207.87,468.26c-5.24,4.51-15.52-5.46-15.99,5.99l19.99,2.01c7.15,11.92,24.72,29.69,37.25,35.75,7.35,3.56,20.35,5.31,25.82,10.18,4.32,3.86,6,13.12,6.97,14.06,8.95,8.66-2.71-15.32-2.02-15.98,17.66,1.57,11.25,1.26,14.87,12.09,3.13,9.35,14.98,12.69,23.12,15.9-.69,9.3-14.63,10.96-18.95,16.05-3.59,4.22-3.93,16.41-13.73,15.53-6.64-.6-7.71-8.08-11.84-10.2-7.28-3.73-27.57-5.08-37.9-7.94-19.88-5.51-39.35-15.41-54.62-29.38-9.72-8.89-17.59-25.2-24.82-31.18-3.79-3.14-8.25-3.35-12.04-5.95-16.21-11.1,6.32-13.92,11.96-19.86,4.72-4.96,10.23-18.82,15.99-26.01,5.86-7.33,14.84-14.78,21.96-21.04,1.27,8.72,9.85,31.45,14,40ZM271.86,558.25c3.26-2.8-21.16-26.64-23.97-29.01-21.4-18.08-52.14-32.08-80.01-34.97-3.2,3.19,7.55,17.86,10.03,20.95,20.68,25.7,62.04,40.58,93.95,43.03Z"/>
      <path class="st8" d="M207.87,468.26c.96,1.97,3.2,6.66,4,8l-19.99-2.01c.47-11.45,10.75-1.48,15.99-5.99Z"/>
      <path class="st1" d="M363.86,266.27c3.31,13.2-12.74,12.12-9.97,3.01,1.01-3.33,7.03-3.36,9.97-3.01Z"/>
      <path class="st12" d="M401.87,382.26c-1.03,9.19-12.61,28.56-20,34-12.81,9.43-37.54,8.03-50.67-.33-8-5.09-8.24-13.65-20.07-7.38-13.27,7.03-4.22,13.14-3.37,20.83,1.97,17.78-1.74,36.84-17.9,46.89-12.15,7.56-26.18,9.73-40,6-48.08-12.97-36.74-90.33,18.73-85.83,12.63,1.02,26.67,13.78,28.27,13.79.56,0,5.93-6.1,8.32-7.62,2.69-1.71,10.29-4,10.63-4.46.63-.85-4.11-16.4-4.1-20.87.11-60.13,96.98-56.22,90.14,5ZM375.87,406.26c9.5-6.48,14.47-8.2,16-22,6.52-58.9-80.11-55.71-69.89,4.89,3.1,18.41,27.08,28.55,43.95,24.16,5.48-1.43,6.86-4.95,9.95-7.05ZM255.87,474.26c15.36,3.65,16.03,2.21,28-6,2.53-1.74,4.28-.92,7.98-5,15.42-16.96,7.79-49.27-14.33-55.65-52-15.01-69.79,55.21-21.65,66.65Z"/>
      <path class="st1" d="M249.87,482.26c13.82,3.73,27.85,1.56,40-6,1.5,23.33-42.54,37.23-40,6Z"/>
      <path class="st1" d="M381.87,416.26c7.39-5.44,18.97-24.81,20-34,29.3,6.7-.9,42.83-20,34Z"/>
      <path class="st11" d="M315.88,450.27c7.15.84,19.63-.6,23.8-7.2,1.81-2.86,2.14-12.12,5.22-12.8,9.29-2.05,4.34,18.72-8.23,23.79-6,2.42-20.31,5.97-20.79-3.79Z"/>
      <path class="st8" d="M271.86,558.25c-31.91-2.45-73.26-17.33-93.95-43.03-2.48-3.09-13.23-17.76-10.03-20.95,27.87,2.89,58.61,16.88,80.01,34.97,2.81,2.37,27.23,26.21,23.97,29.01ZM187.87,516.26c4.99,4.81,9.31,6.65,14,10,7.03,5.02,9.35,7.83,18,12,6.19,2.98,9.67,2.48,14,4,.3.1,1.35,2.87,4.95,3.96,6.48,1.96,14.27,3.6,21.05,4.02-6.2-9.4-15.24-15.59-24-21.98-5.91-4.31-8.57-4.97-14-8-6.98-3.89-8.28-4.67-16-8-6.53-2.82-9.05-3.77-16-6-2.3-.74-6.33-6.32-11.99-3.99.43,6.34,6.06,10.21,9.99,13.99Z"/>
      <path class="st6" d="M391.87,384.26c-10.53.28-17.55,12.18-16,22-3.08,2.1-4.46,5.62-9.95,7.05-16.87,4.39-40.84-5.74-43.95-24.16-10.22-60.6,76.42-63.79,69.89-4.89ZM371.86,374.25c-9.95-2.41-3.95,9.3-10.9,16.1s-27.41.19-20.2,10.03c1.94,2.64,8.94,2.26,12.14,1.95,13.56-1.34,21.52-15.37,18.97-28.07Z"/>
      <path class="st6" d="M283.87,468.26c-7.71-4.47-14.68-1.26-22.07,1.04-3.28,1.02-7.08-.32-5.93,4.96-48.13-11.45-30.34-81.66,21.65-66.65,22.12,6.38,29.75,38.7,14.33,55.65-3.7,4.07-5.45,3.26-7.98,5ZM289.86,432.27c-10.05-1.64-6.58,6.36-9.07,11.91-4.56,10.14-21.5,4.57-22.93,6.09-5.41,5.72,7.85,8.48,12.98,8.13,13.7-.94,21.5-13.08,19.02-26.13Z"/>
      <path class="st1" d="M283.87,468.26c-11.97,8.21-12.64,9.65-28,6-1.15-5.29,2.65-3.94,5.93-4.96,7.39-2.3,14.36-5.5,22.07-1.04Z"/>
      <path class="st1" d="M391.87,384.26c-1.53,13.8-6.5,15.52-16,22-1.55-9.82,5.47-21.72,16-22Z"/>
      <path class="st4" d="M221.87,520.26l-2,18c-8.65-4.17-10.97-6.98-18-12l4-14c7.72,3.33,9.02,4.11,16,8Z"/>
      <path class="st5" d="M235.87,528.26c-.47,4.38,1.79,11.17-2,14-4.33-1.52-7.81-1.02-14-4l2-18c5.43,3.03,8.09,3.69,14,8Z"/>
      <path class="st9" d="M235.87,528.26c8.76,6.39,17.8,12.58,24,21.98-6.78-.42-14.57-2.05-21.05-4.02-3.6-1.09-4.65-3.86-4.95-3.96,3.79-2.83,1.53-9.62,2-14Z"/>
      <path class="st5" d="M205.87,512.26l-4,14c-4.69-3.35-9.01-5.19-14-10,3.24-1.71,1.88-6.8,2-10,6.95,2.23,9.47,3.18,16,6Z"/>
      <path class="st9" d="M189.87,506.26c-.12,3.2,1.24,8.29-2,10-3.93-3.78-9.56-7.65-9.99-13.99,5.67-2.33,9.69,3.25,11.99,3.99Z"/>
      <path class="st11" d="M371.86,374.25c2.55,12.71-5.41,26.74-18.97,28.07-3.2.31-10.2.7-12.14-1.95-7.21-9.84,13.14-3.12,20.2-10.03s.95-18.51,10.9-16.1Z"/>
      <path class="st11" d="M289.86,432.27c2.48,13.05-5.32,25.19-19.02,26.13-5.13.35-18.39-2.41-12.98-8.13,1.43-1.51,18.38,4.06,22.93-6.09,2.49-5.55-.98-13.55,9.07-11.91Z"/>
    </g>
  </g>
</svg>