<?xml version="1.0" encoding="UTF-8"?>
<svg id="_레이어_1" data-name="레이어_1" xmlns="http://www.w3.org/2000/svg" version="1.1" viewBox="0 0 800 800">
  <!-- Generator: Adobe Illustrator 30.0.0, SVG Export Plug-In . SVG Version: 2.1.1 Build 123)  -->
  <defs>
    <style>
      .st0 {
        fill: #19232e;
      }

      .st1 {
        fill: #dab482;
      }

      .st2 {
        fill: #4b3c31;
      }

      .st3 {
        fill: #7ea05b;
      }

      .st4 {
        fill: #fdfefd;
      }

      .st5 {
        fill: #98be70;
      }

      .st6 {
        fill: #92b86e;
      }

      .st7 {
        fill: #a8825d;
      }

      .st8 {
        fill: #f5e3ca;
      }

      .st9 {
        fill: #578240;
      }

      .st10 {
        fill: #272c31;
      }

      .st11 {
        fill: #2e4767;
      }

      .st12 {
        fill: #1b251d;
      }

      .st13 {
        fill: #9b8d4d;
      }
    </style>
  </defs>
  <path class="st12" d="M289.4,231.18c19.09-.21,27.86,1.01,46,6-.17,4.07,3.28,5.66,6,8-32.87-8.14-56.16-11.52-84.02,10.98-45.98,37.12-68.49,115.62-44.47,168.51,9.33,20.54,9.88,11.14,27.4,10.43,73.08-2.99,156.87-2.24,230.17,0,4.63.14,10.04,2.76,13.86,2.19,5.69-.85,4.74-5.17,7.13-8.62,33.9-48.86-3.18-172.41-67.97-182.59-26.58-4.18-55.08,7.77-74.79,2.68-2.56-.66-4.79-3.45-5.31-3.58,5.82,3.3,8.1.86,12,0,2.68-.59,5.33-1.35,8-2-.8,6.52,1.93,3.3,5.68,2.69,5.4-.88,18.36-1.27,18.32-8.69,3.23-.32,6.71.12,10,0-3.08,5.95,16.3,6.63,14,0,1.98.12,4.03-.19,6,0-.66,7.94-.26,4.9,4.84,6.06,6.3,1.43,17.76,5.3,21.16-2.06,2.44,5.16,21.06,17.39,27.02,23.98,37.46,41.39,53.31,111.03,31.53,161.33-1.55,3.59-8.79,12.83-8.65,13.62.83,4.64,8.15,9.82,9.62,18.54.88,5.2-.29,25.17.7,26.31.38.44,7.12,1.08,10.83,4.17,11.77,9.84,11.73,34.73,6.95,48.02,8.72-3.31,20.95,3.97,27.04,3.84,3.39-.07,6.38-3.31,10.06-3.72,47.47-5.29,58.84,47.29,25.89,73.89-23.05,18.61-33.85,22.61-59.49,34.51-7.94,3.69-15.15,10.47-24.13,13.87-20.54,7.79-34.24,3.89-54.36,5.64-9.89.86-21.46,5.15-32.04,5.96-34.9,2.65-77.95-6.1-108.32-23.63-4.98-2.88-19.98-15.32-22.06-15.94-20.22-6.05-71.23,12.38-76.47-21.53-2.3-14.87,3.27-43.77,0-55.65-.24-.87-10.61-3.68-15.19-9.15-10.52-12.55-10.03-46.59,3.16-56.96,4.31-3.39,11.39-2.75,11.82-3.18,1-1.01-.45-22.99.56-28.45,1.23-6.67,6.77-10.57,7.2-12.76.33-1.7-11.4-24.8-13.11-30.28-16.88-54.05,3.49-123.66,46.49-160.37,8-6.83,29.7-17.14,32.94-24.06,3.22,5.9,6.69,2.01,8,2ZM479.4,443.18l-250.88.12c-19.07,2.97-11.77,27.56-13.23,40.78.67,2.53,4.7.47,6.11,1.1,1.91.85,4.17,4.71,8,4,.59,2.71,6.35,8.54,8.08,12.92,5.48,13.89,4.03,37.15-8.08,47.08-.35.28-6.91,3.52-8,4-1.42.63-5.44-1.42-6.11,1.1,2.37,17-3.02,41.5.54,57.47,1.73,7.76,11.16,11.36,18.47,11.53l247.68-.52c22.75-5.1,10.18-51.36,13.53-68.48-.67-2.52-4.69-.48-6.11-1.1-1.05-.46-7.64-3.74-8-4-13.11-9.43-15.27-34.18-9.01-48.02,2.63-5.81,8.04-7.86,9.01-13.98,3.72,1.02,5.29-.68,8-2,1.7-.82,4.58.35,5.72-3.23,1.31-4.13.28-13.62.28-18.77,3.75-3.18.92-3.95,0-6-2.79-6.25-6.69-12.57-14-14l-.99-1.97-1.01,1.97ZM208.93,491.55c-25.49,3.07-20.51,71.04,12.3,52.46,20.38-11.54,13.37-55.55-12.3-52.46ZM484.08,540.51c34,32.41,46.23-53.29,12.87-48.96-22.19,2.88-26.04,36.41-12.87,48.96ZM517.4,547.18c-4.29,1.82-7.97,7.09-14,6v53c0,5.88-7.69,17.9-13.26,20.74-9.86,5.04-67.92,2.08-83.83,2.18-13.65.08-27.07.07-40.92.08-14.59.01-29.43-.54-44,0-6.9.25-13.22.22-20,2.01-4.26,4.78,24.53,17.55,28.03,18.95,27.2,10.9,59.69,15.45,88.94,13,18.18-1.52,25.65-5.69,45.94-5.89,15.47-.15,48.13-5.85,57.09-20.08,3.52,1.43,6.03-1.48,8-2,24.04-6.35,18.52-10.54,34-22,.97-.72,4.8-1.77,8-4,8.48-5.92,14.04-5.56,19.67-17.33,13.42-28.05-7.94-58.42-37.67-42.67-1.19-.27-2.86.3-4,0-8.48-2.2-17.14-4.86-26-4-3.94.38-3.53.95-6,2Z"/>
  <path class="st5" d="M341.4,245.18c.63.16,1.37-.16,2,0,.53.13,2.76,2.92,5.31,3.58,19.7,5.08,48.2-6.86,74.79-2.68,64.79,10.18,101.87,133.72,67.97,182.59-2.39,3.45-1.44,7.77-7.13,8.62-3.81.57-9.23-2.05-13.86-2.19-73.3-2.24-157.09-2.98-230.17,0-17.53.72-18.07,10.11-27.4-10.43-24.02-52.89-1.52-131.39,44.47-168.51,27.87-22.49,51.16-19.11,84.02-10.98ZM233.4,387.18c-20.87,32.89,39.69,45.23,48,16,24.22-1.02,44.32-18.98,51.13-41.87,3.15-10.61-2.96-18.79,15.8-18.21,17.95.55,13.56,11.51,18.11,24.04,7.24,19.9,29.23,37.93,50.96,38.04,12.52,29.82,70.18,13.72,46-20,44.91-47.9-20.41-128.85-78.65-83.65-13.06,10.13-15.19,21.62-22.5,35.39l-30.77-1.82c-14.05-71.88-120.4-54.97-111.85,18.87.59,5.1,10.97,31.18,13.77,33.22ZM375.39,393.19c-6.71-1.39-8.54,5.15-13.44,7.54-6.3,3.08-13.9,3.28-20.62,1.5-3.54-.94-21.23-16.58-17.97-4.02,4.32,16.66,53.31,18.5,52.02-5.01Z"/>
  <path class="st3" d="M521.4,637.18c-8.95,14.23-41.62,19.93-57.09,20.08-20.3.2-27.76,4.36-45.94,5.89-29.25,2.45-61.74-2.1-88.94-13-3.5-1.4-32.29-14.17-28.03-18.95,6.77-1.79,13.09-1.76,20-2.01-1.12,6.06,3.06,3.85,6.91,4,9.76.39,20.4.33,30.18,0,3.85-.13,8.03,2.04,6.91-4,13.85-.01,27.27,0,40.92-.08,15.9-.1,73.96,2.86,83.83-2.18,5.57-2.84,13.26-14.87,13.26-20.74v-53c6.03,1.09,9.71-4.18,14-6,14.07,20.13,19.75,41.81,13.04,66.04-.94,3.39-7.78,21.96-9.04,23.96Z"/>
  <path class="st6" d="M549.4,549.18c.67,5.56,5.62,7.92,8.39,12.61,10.05,17.01,8.72,32.51,5.61,51.39-15.48,11.46-9.96,15.65-34,22,14.64-31.32,13.72-61.32-6-90,8.86-.86,17.52,1.8,26,4Z"/>
  <path class="st6" d="M208.93,491.55c25.67-3.09,32.68,40.92,12.3,52.46-32.81,18.58-37.79-49.39-12.3-52.46Z"/>
  <path class="st6" d="M484.08,540.51c-13.17-12.56-9.32-46.09,12.87-48.96,33.36-4.33,21.14,81.37-12.87,48.96Z"/>
  <path class="st3" d="M571.4,609.18c-1.09-9.4.95-19.44-.02-28.98s-7.57-28.64-17.98-31.02c29.73-15.75,51.09,14.62,37.67,42.67-5.63,11.77-11.19,11.41-19.67,17.33Z"/>
  <path class="st9" d="M523.4,545.18c19.72,28.68,20.64,58.68,6,90-1.97.52-4.48,3.43-8,2,1.26-2,8.1-20.57,9.04-23.96,6.71-24.23,1.03-45.91-13.04-66.04,2.47-1.05,2.06-1.62,6-2Z"/>
  <path class="st9" d="M553.4,549.18c10.4,2.39,16.98,21.21,17.98,31.02s-1.07,19.57.02,28.98c-3.2,2.23-7.03,3.28-8,4,3.12-18.88,4.45-34.38-5.61-51.39-2.77-4.69-7.72-7.05-8.39-12.61,1.14.3,2.81-.27,4,0Z"/>
  <path class="st5" d="M365.4,629.18c1.12,6.04-3.06,3.87-6.91,4-9.78.33-20.42.39-30.18,0-3.85-.15-8.02,2.06-6.91-4,14.57-.54,29.41.01,44,0Z"/>
  <path class="st10" d="M495.4,463.18c0-2,0-4,0-6,.92,2.05,3.75,2.82,0,6Z"/>
  <g>
    <path class="st4" d="M481.4,487.18c-.98,6.13-6.39,8.17-9.01,13.98-6.25,13.83-4.09,38.59,9.01,48.02-3.8,16.82,10.26,57.81-12.88,60.12l-231.67-.56c-1.8-.59-4.19-1.19-5.5-2.5-4.93-4.99-.34-47.08-1.95-57.05,12.11-9.93,13.56-33.18,8.08-47.08-1.73-4.38-7.49-10.22-8.08-12.92-2.21-10.11-2.99-35.5,12.91-32.09l230.04.15c11.29,2.11,10.5,20.85,9.05,29.95Z"/>
    <path class="st1" d="M221.4,553.18c8.68,19.29-11.3,59.38,18.9,62.1l233.67-.52c23.38-5.24,8.13-45.65,15.42-61.58,1.42.63,5.44-1.42,6.11,1.1-3.36,17.12,9.22,63.38-13.53,68.48l-247.68.52c-7.31-.17-16.74-3.77-18.47-11.53-3.56-15.97,1.83-40.47-.54-57.47.67-2.52,4.69-.48,6.11-1.1Z"/>
    <path class="st1" d="M479.4,443.18c.65.09,1.36-.13,2,0,7.31,1.43,11.21,7.75,14,14,0,2,0,4,0,6,0,5.14,1.02,14.64-.28,18.77-1.13,3.59-4.02,2.41-5.72,3.23-5.26-15.72,3.71-32.05-18.9-34.1l-233.98.21c-19.74,4.12-9.63,20.38-15.11,33.89-1.41-.63-5.44,1.42-6.11-1.1,1.46-13.22-5.84-37.81,13.23-40.78l250.88-.12Z"/>
    <path class="st7" d="M229.4,549.18c1.61,9.97-2.99,52.06,1.95,57.05,1.3,1.32,3.7,1.91,5.5,2.5l231.67.56c23.15-2.31,9.08-43.3,12.88-60.12.36.26,6.95,3.54,8,4-7.29,15.92,7.96,56.34-15.42,61.58l-233.67.52c-30.21-2.72-10.23-42.8-18.9-62.1,1.09-.48,7.65-3.72,8-4Z"/>
    <path class="st7" d="M489.4,485.18c-2.71,1.32-4.28,3.02-8,2,1.45-9.09,2.24-27.84-9.05-29.95l-230.04-.15c-15.9-3.41-15.12,21.99-12.91,32.09-3.83.71-6.09-3.15-8-4,5.48-13.5-4.62-29.76,15.11-33.89l233.98-.21c22.61,2.05,13.64,18.38,18.9,34.1Z"/>
    <path class="st10" d="M481.4,443.18c-.64-.13-1.35.09-2,0l1.01-1.97.99,1.97Z"/>
  </g>
  <g>
    <path class="st0" d="M481.4,185.18c-.7-.47-4.32.28-5.99,0-.76,5.63.7,10.67,1.99,16.01-4.45-2.63-3.02-8.28-5.09-11.92-5.28-9.31-96.56-44.75-111.91-53.93l-125,49.88,50.87,25.91c6.73-9.73,4.3-17.41,15.72-24.35,28.48-17.3,95.26-12.13,122.79,6.03,12.67,8.36,8.63,17.24,15.76,28.26,10.96-5.45,31.65-5.49,36.86-17.88.54,2.08,2.9,8.4,4,12-5.67,3.17-37.99,11.56-39.86,14.19-.42.6,1.31,10.64,1.86,11.81-3.4,7.36-14.86,3.5-21.16,2.06-5.11-1.16-5.51,1.88-4.84-6.06,5.74.56,12.13,3.34,17.99,3.99,1.84-2.07-7.9-37.02-12.07-40.91-10.22-9.53-50.66-16.81-64.82-17.16-12.43-.3-43.95,3.46-53.86,10.3-6.62,4.57-13.49,29.17-15.23,37.77-1.31.01-4.78,3.9-8-2,1.01-2.14,2.93-10.11,1.77-11.76l-59.7-28.34.85-5.99,132.6-55.56c6.95-1.15,24.29,8.02,31.83,11.29,31.68,13.73,62.11,30.84,92.65,46.35Z"/>
    <path class="st7" d="M481.4,185.18c.9.6,5.07,17.07,6.47,20.61.82,2.08,3.41,3.09,3.53,3.39,2.36,5.94,3.57,19.56,7.85,24.65,2.23,2.65,7.71,1.59,11.11,5.4,4.14,4.65,1.92,10.96,4.08,15.91,3.05,6.99,24.19,23.68,24.75,25.37,3.89,11.61-25.14,26.05-35.59,15.47-7.05-7.14-8.39-23.71-11.18-32.82-1.17-3.81-5.31-7.22-6.27-11.92-1.4-6.88,3.73-9.68,3.19-16.8-.53-6.95-6.21-13.59-7.95-19.25-1.1-3.6-3.46-9.92-4-12-.16-.62.15-1.37,0-2-1.29-5.34-2.75-10.38-1.99-16.01,1.67.29,5.29-.46,5.99,0ZM505.14,254.9c4.61-7.39-5.79-16.94-10.85-9.84-5.51,7.72,7.22,15.65,10.85,9.84ZM501.56,263.37c-1.9,2.57,6.18,27.08,9.85,28.93s19.93-6.14,19.96-8.13c-5.59-3.72-23.38-29.49-29.8-20.81Z"/>
    <path class="st10" d="M491.4,209.18c-.12-.31-2.71-1.31-3.53-3.39-1.39-3.54-5.57-20.01-6.47-20.61,13.68,6.95,50.92,14.39,10,24Z"/>
    <path class="st11" d="M289.4,231.18c1.74-8.6,8.61-33.2,15.23-37.77,9.91-6.84,41.43-10.6,53.86-10.3,14.16.34,54.6,7.62,64.82,17.16,4.17,3.89,13.91,38.84,12.07,40.91-5.86-.65-12.25-3.43-17.99-3.99-1.97-.19-4.02.12-6,0-4.53-.27-9.45-.16-14,0-3.29.12-6.77-.32-10,0-8.47.84-16.23,4.09-24,6-2.67.65-5.32,1.41-8,2-3.86-6.29-13.52-6.22-20-8-18.14-4.99-26.91-6.21-46-6Z"/>
    <path class="st0" d="M387.4,237.18c.04,7.42-12.92,7.81-18.32,8.69-3.75.61-6.48,3.82-5.68-2.69,7.77-1.91,15.53-5.16,24-6Z"/>
    <path class="st0" d="M355.4,245.18c-3.9.86-6.18,3.3-12,0-.63-.16-1.37.16-2,0-2.72-2.34-6.17-3.93-6-8,6.48,1.78,16.14,1.71,20,8Z"/>
    <path class="st0" d="M411.4,237.18c2.3,6.63-17.08,5.95-14,0,4.55-.16,9.47-.27,14,0Z"/>
    <path class="st11" d="M477.4,201.18c.15.63-.16,1.38,0,2-5.21,12.39-25.9,12.42-36.86,17.88-7.14-11.02-3.09-19.89-15.76-28.26-27.53-18.17-94.31-23.34-122.79-6.03-11.42,6.94-8.99,14.61-15.72,24.35l-50.87-25.91,125-49.88c15.35,9.18,106.64,44.62,111.91,53.93,2.06,3.64.64,9.29,5.09,11.92Z"/>
    <path class="st1" d="M501.56,263.37c6.43-8.68,24.22,17.09,29.8,20.81-.02,1.99-16.42,9.92-19.96,8.13s-11.75-26.36-9.85-28.93Z"/>
    <path class="st1" d="M505.14,254.9c-3.63,5.81-16.36-2.12-10.85-9.84,5.07-7.1,15.47,2.45,10.85,9.84Z"/>
  </g>
  <path class="st13" d="M233.4,387.18c-2.8-2.03-13.18-28.12-13.77-33.22-8.55-73.84,97.8-90.75,111.85-18.87l30.77,1.82c7.3-13.77,9.44-25.25,22.5-35.39,58.24-45.2,123.56,35.76,78.65,83.65-9.44,10.07-32.33,20.07-46,20-21.72-.11-43.72-18.14-50.96-38.04-4.56-12.53-.17-23.49-18.11-24.04-18.76-.58-12.65,7.61-15.8,18.21-6.81,22.89-26.91,40.85-51.13,41.87-19.25.81-27.75-3.78-42.18-14.9-1.83-1.41-5.29-.71-5.82-1.1ZM242.74,379.84c10.13,10.28,24.37,15.42,38.73,13.97,22.13-2.23,39.77-19.49,42.49-41.56,2.72-22.08-10.19-43.1-31.11-50.65-20.92-7.55-44.28.39-56.28,19.12-12,18.73-9.44,43.27,6.17,59.12ZM417.33,394.37c13.81.81,27.3-4.4,36.97-14.3,15.71-16.08,18.1-40.93,5.72-59.7s-36.16-26.37-57.13-18.26c-20.97,8.11-33.45,29.74-29.97,51.95s21.96,39,44.41,40.32Z"/>
  <path class="st1" d="M417.4,405.18c13.67.07,36.56-9.93,46-20,24.18,33.72-33.48,49.82-46,20Z"/>
  <path class="st1" d="M281.4,403.18c-8.31,29.23-68.87,16.89-48-16,.53.38,3.99-.31,5.82,1.1,14.43,11.12,22.93,15.72,42.18,14.9Z"/>
  <path class="st12" d="M375.39,393.19c1.29,23.51-47.7,21.67-52.02,5.01-3.26-12.56,14.43,3.09,17.97,4.02,6.72,1.78,14.32,1.58,20.62-1.5,4.9-2.39,6.73-8.93,13.44-7.54Z"/>
  <path class="st5" d="M454.31,380.06c-15.65-2.31-28.78-.34-36.97,14.3-22.44-1.32-40.93-18.1-44.41-40.32s9-43.84,29.97-51.95c20.97-8.11,44.75-.51,57.13,18.26s9.99,43.63-5.72,59.7ZM425.24,355.15c0-10.84-8.79-19.62-19.62-19.62s-19.62,8.79-19.62,19.62,8.79,19.62,19.62,19.62,19.62-8.79,19.62-19.62Z"/>
  <path class="st5" d="M281.47,393.81c-8.66-15-22.68-15.82-38.73-13.97-15.61-15.85-18.17-40.39-6.17-59.12,12-18.73,35.36-26.67,56.28-19.12,20.92,7.55,33.84,28.57,31.11,50.65-2.72,22.08-20.36,39.33-42.49,41.56ZM311.67,354.6c0-10.68-8.66-19.34-19.34-19.34s-19.34,8.66-19.34,19.34,8.66,19.34,19.34,19.34,19.34-8.66,19.34-19.34Z"/>
  <path class="st1" d="M281.47,393.81c-14.36,1.45-28.6-3.69-38.73-13.97,16.05-1.85,30.07-1.03,38.73,13.97Z"/>
  <path class="st1" d="M454.31,380.06c-9.67,9.9-23.16,15.11-36.97,14.3,8.19-14.65,21.32-16.61,36.97-14.3Z"/>
  <path class="st2" d="M425.24,355.15c0,10.84-8.79,19.62-19.62,19.62s-19.62-8.79-19.62-19.62,8.79-19.62,19.62-19.62,19.62,8.79,19.62,19.62ZM403.41,343.19h-10.01c-1.69,13.87,11.79,13.62,10.01,0Z"/>
  <path class="st2" d="M311.67,354.6c0,10.68-8.66,19.34-19.34,19.34s-19.34-8.66-19.34-19.34,8.66-19.34,19.34-19.34,19.34,8.66,19.34,19.34ZM285.4,340.02l-7.16,7.16,7.16,7.16,7.16-7.16-7.16-7.16Z"/>
  <path class="st8" d="M403.41,343.19c1.77,13.62-11.7,13.87-10.01,0h10.01Z"/>
  <rect class="st8" x="280.34" y="342.12" width="10.13" height="10.13" transform="translate(-161.9 303.5) rotate(-45)"/>
</svg>