<?xml version="1.0" encoding="UTF-8"?>
<svg id="_레이어_1" data-name="레이어_1" xmlns="http://www.w3.org/2000/svg" version="1.1" viewBox="0 0 800 800">
  <!-- Generator: Adobe Illustrator 30.0.0, SVG Export Plug-In . SVG Version: 2.1.1 Build 123)  -->
  <defs>
    <style>
      .st0 {
        fill: #19232e;
      }

      .st1 {
        fill: #dab482;
      }

      .st2 {
        fill: #4b3c31;
      }

      .st3 {
        fill: #7ea05b;
      }

      .st4 {
        fill: #b6d2bb;
      }

      .st5 {
        fill: #98be70;
      }

      .st6 {
        fill: #92b86e;
      }

      .st7 {
        fill: #a8825d;
      }

      .st8 {
        fill: #f5e3ca;
      }

      .st9 {
        fill: #578240;
      }

      .st10 {
        fill: #272c31;
      }

      .st11 {
        fill: #2e4767;
      }

      .st12 {
        fill: #1b251d;
      }

      .st13 {
        fill: #9b8d4d;
      }
    </style>
  </defs>
  <path class="st12" d="M317.43,228.39c.26,1.17-.39,3.35,0,4,.57.94-.06,1.49,2,2,4.48,1.1,12.65-.55,18,0-1.17,6.03,2.93,3.54,6.61,4.28,22.75,4.58,42.91,22.74,65.39,7.72,1.94.15,4.29-.34,6,0,1.57.31,4.66,5.8,4-2,4.87-.32,9.4.66,14,2,1.81.53,5.56,4.51,8.97,4.03l1.03-4.03c2.28.46,4.23,1.61,6,2,.38,10.18,13.41,3.63,20,2,3.14,8.68,15.01,15.13,21.94,23.06,45.69,52.28,51.7,144.84-3.65,192.39,3.83,9.08,1.77,29.95,4.74,36.52.45.98,13.4,15.62,14.34,16.16,10.7,6.24,31.46,8.53,43.47,10.03,4.32.54,8.38,3.56,12.32,3.75,6.34.31,12.48-4.65,21.79-3.96,36.98,2.73,41.71,48.63,16.93,70.94-4.94,4.44-32.79,24.48-38.53,27.47-10.42,5.44-54.52,24.26-64.58,25.42-11.64,1.35-24.1-.77-35.77.23-9.89.85-21.48,5.24-32.04,5.96-57.49,3.88-152.09-31.73-162.08-95.87-1.89-12.12-.6-47.44-5.93-56.07-1.14-1.84-29.46-18.02-35.92-24.08-50.03-46.97-53.42-128.26,0-173.89,17.15-14.65,16.34-14.32,30.11-31.89,10.91-13.92,21.27-24.12,36.23-33.77,3.97-2.56,14.98-5.93,16.07-6.96,1.35-1.27.52-6,4.53-7.45,1.03-.37,2.95.37,4,0ZM457.43,478.39c-.44-8.7,13.43-11.48,20.63-16.37,73.23-49.73,43.6-202.33-45.66-209.6-17.01-1.38-35.08,4.99-47.72,3.88-8.19-.72-23.41-9.67-33.98-12.19-21.95-5.22-37.57-4.77-57.09,7.45-8.92,5.58-34.64,30.82-38.15,39.86-1.66,4.26,9.14,3.02,13.44,4.49,1.96.67,9.39,5.1,10.53,6.47.29.34,3.91,7.56,4,8,4.69,23.67-20.58,35.85-32.09,50.99-1.43,1.88-1.33,4.12-1.91,5.01-2.36,3.57-4.16,5.85-6,10-7.31,16.52-9.26,21.96-2.36,39.36s19.46,32.28,34.53,43.46c6.18,4.58,14.3,2.9,11.83,13.18-2.55-.95-7.1-.55-10-2-6.14-3.07-21.19-17.32-25.94-23.06-5.13-6.2-12.48-22.52-15.11-24.96-2.03-1.88-5.66-1.5-6.49-2.42-6.2-6.84,1.78-37.73,5.79-46.31,8.95-19.17,31.62-33.12,37.44-46.56,4.76-11,2.31-23.1-10.59-24.8-24.96-3.31-52.19,33.3-60.07,54.14-22.61,59.81,9.22,115.1,62.98,141.98,1.66.83,4.54-.47,5.71,3.27-2.02,10.75,3.41,21.51,4.29,30.73.25,2.62-.28,5.39,0,8,.02.21-1.87,1.44-1.71,2.91,3.89,35.54,9.29,44.63,35.71,67.09,6.16,5.23,9.51,7.68,16,12,31.79,21.15,71.91,31.68,110.76,27.76,3.8-.38,31.91-6.69,33.24-7.76,1.09.95,2.55,1.88,4,2,16.48,1.36,30.91.1,45.77-7.23,5.35-2.64,11.26-8.86,16.23-10.77,1.57-.61,4.45-.62,8-2,22.96-8.94,14.99-7.38,32-20,1.09-.81,4.65-1.54,8-4,2.01-1.48,6.39-2.43,9.82-5.18,14.12-11.29,21.68-30.38,11.08-46.73-9.78-15.08-20.26-11.83-34.9-10.1-1.12.13-2.91,1.93-4,2-9.87.62-12.17-5.38-26-2-1.65.4-4.13-.27-6,0-2.49-2.52-16.07-9.49-20-10-1.92-.25-4.04.17-6,0-1-1.63-8.14-5.94-10-8-1.46-1.63-2.77-2.7-4-4-.3-.31-.31-2.99-2.05-4.95-1.52-1.71-4.81-2-5.95-3.05-.43-.39-1.97-1.86-2-2-2.08-8.26,2.05-24.98-2.97-34.03l-23.03,6.03Z"/>
  <path class="st5" d="M457.43,478.39c-57.09,19.39-114.26,14.82-170-6,2.48-10.29-5.64-8.6-11.83-13.18-15.08-11.18-27.51-25.73-34.53-43.46s-4.95-22.84,2.36-39.36c3.79,4.28,6.08,9.8,10,14-23.87,29.76,36.17,48.25,44,18,19.57-.3,37.73-11.2,45.74-29.26,6.44-14.51.3-25.07,21.29-22.78,16.2,1.77,10.7,13.25,13.91,24.1,5.63,19.06,27.6,35.91,47.06,37.94,8.26,29.87,72.82,14.04,44-16,55.37-52.61-32.95-136.23-81.05-74.05-3.63,4.7-9.9,20.54-10.87,21.23-1.34.96-23.86-6.45-30.07-1.18.42-30.99-39.33-60.1-68.01-46.01-1.14-1.37-8.58-5.8-10.53-6.47-4.3-1.47-15.1-.23-13.44-4.49,3.51-9.04,29.23-34.28,38.15-39.86,19.52-12.22,35.14-12.67,57.09-7.45,10.57,2.51,25.78,11.47,33.98,12.19,12.64,1.1,30.71-5.27,47.72-3.88,89.26,7.26,118.89,159.87,45.66,209.6-7.2,4.89-21.07,7.67-20.63,16.37ZM383.42,426.38c6.35-6.75-13.44-16.97-19.11-17.86-8.47-1.33-25.38,2.16-28.86,10.9s14.23-2.34,15.38-2.61c3.86-.91,9.53-.89,13.48-.28,6.41.99,16.74,12.38,19.11,9.85Z"/>
  <path class="st3" d="M277.43,470.39c2.9,1.45,7.45,1.05,10,2,55.74,20.82,112.91,25.39,170,6l23.03-6.03c5.01,9.05.88,25.77,2.97,34.03-5.69,6.3-15.07,13.76-20,20l2-9.99c-2.53-.36-5.66.45-8,0-13.97-2.75-26.57-4.74-40-10,1.36-3.78,4.91-13.56-2.99-9.99-2.22,1-6.89,14.7-9.37,18.63-3.09,4.9-8.34,11.47-12.59,15.41-11.72,10.87-32.41,15.82-41.05,25.95-27.26.4-53.07-10.24-76-24-.88-9.23-6.32-19.99-4.29-30.73-1.17-3.73-4.05-2.44-5.71-3.27,3.78-7.82,1.71-25.6,12-28Z"/>
  <path class="st6" d="M493.43,516.39c-3.19,9.36-1.79,17.86-5.05,27.95-2.09,6.45-7.44,14.95-11.32,20.68-34.78,51.47-111.35,67.21-167.63,45.37-26.42-22.46-31.82-31.54-35.71-67.09-.16-1.47,1.74-2.71,1.71-2.91,22.2,11.76,46.37,21.94,72,22-9.12,26.47,18.2,35.06,39.95,28.95,33.66-9.47,47.06-31.87,70.05-50.95,10.63-8.82,25.16-16.6,28-32,1.14,1.05,4.43,1.34,5.95,3.05,1.74,1.97,1.75,4.64,2.05,4.95Z"/>
  <path class="st6" d="M265.43,498.39c-53.76-26.87-85.58-82.17-62.98-141.98,7.88-20.84,35.12-57.44,60.07-54.14,12.89,1.71,15.35,13.8,10.59,24.8-5.82,13.44-28.48,27.39-37.44,46.56-4.01,8.59-11.99,39.48-5.79,46.31.84.92,4.47.55,6.49,2.42,2.63,2.44,9.99,18.76,15.11,24.96,4.75,5.74,19.8,19.99,25.94,23.06-10.29,2.4-8.22,20.18-12,28Z"/>
  <path class="st3" d="M507.43,528.39c23.44,37.94-3.67,89.29-37.57,110.48-1.03.65-.23,3.36-.43,3.52-1.33,1.07-29.45,7.37-33.24,7.76-38.84,3.92-78.97-6.61-110.76-27.76,39.14,9.17,81.72,3.94,116.61-16.39,29.36-17.1,58.58-49.51,55.39-85.61,1.86,2.06,9,6.37,10,8Z"/>
  <path class="st13" d="M279.43,302.39c28.68-14.09,68.43,15.02,68.01,46.01,6.21-5.27,28.73,2.14,30.07,1.18.97-.7,7.24-16.54,10.87-21.23,48.1-62.18,136.42,21.44,81.05,74.05-9.47,9-31.01,17.35-44,16-19.46-2.02-41.43-18.88-47.06-37.94-3.2-10.85,2.3-22.33-13.91-24.1-20.98-2.29-14.85,8.27-21.29,22.78-8.02,18.06-26.17,28.96-45.74,29.26-17.77.27-31.82-4.96-44-18-3.92-4.2-6.21-9.72-10-14,1.84-4.15,3.64-6.43,6-10,3.54,8.52,6.16,11.7,12,18,11.4,12.3,19.61,15.17,36,14,65.49-4.67,48.05-102.98-14-88-.09-.44-3.71-7.66-4-8ZM427.44,408.27c12.51.95,24.86-3.27,34.18-11.67,16.18-14.59,19.87-38.54,8.84-57.32-11.04-18.78-33.76-27.21-54.38-20.17-20.62,7.04-33.44,27.61-30.68,49.22,2.75,21.61,20.33,38.3,42.05,39.95Z"/>
  <path class="st5" d="M297.43,398.39c-8.19-14.19-20.93-15.18-36-14-5.84-6.3-8.46-9.48-12-18,.59-.89.49-3.13,1.91-5.01,11.51-15.15,36.78-27.32,32.09-50.99,62.05-14.98,79.49,83.33,14,88ZM314.46,322.4c-1.33.3-5.43,6.31-8.27,7.75-4.8,2.43-17.95,1.28-16.74,7.21,1.51,7.42,28.86.89,29.74-10.28.21-2.71-2.19-5.26-4.73-4.69ZM325.43,356.39c.02-.84,2.36-3.1,1.88-4.82-1.97-7.05-12.31.38-16.31,1.39-2.66.67-35.37,6.08-29.58,11.42,3.51-.98,5.52,1.12,8.01,2.01,2.47,15.05,18.93,19.96,30.76,11.75,7.16-4.97,5.03-14.23,5.24-21.75Z"/>
  <path class="st3" d="M533.43,538.39c1.48,1.5,8.42,14.6,9.54,17.46,9.7,24.74,4.08,47.96-7.54,70.54-4.97,1.91-10.88,8.13-16.23,10.77-14.87,7.32-29.3,8.59-45.77,7.23,38.58-21.34,60.27-75.04,40-116,3.93.51,17.51,7.48,20,10Z"/>
  <path class="st6" d="M565.43,540.39c1.49,6.53,7.57,10.58,10.34,16.65,6.45,14.1,4.6,32.99-.34,47.35-17.01,12.62-9.04,11.06-32,20,14.54-27.98,17.71-60.61-4-86,13.83-3.38,16.13,2.62,26,2Z"/>
  <path class="st9" d="M497.43,520.39c3.19,36.11-26.03,68.51-55.39,85.61-34.89,20.33-77.47,25.56-116.61,16.39-6.49-4.32-9.84-6.77-16-12,56.28,21.83,132.85,6.1,167.63-45.37,3.87-5.73,9.23-14.23,11.32-20.68,3.26-10.09,1.86-18.59,5.05-27.95,1.23,1.3,2.54,2.37,4,4Z"/>
  <path class="st3" d="M583.43,600.39c5.11-22.39,3.23-45.49-14-62,14.65-1.73,25.13-4.98,34.9,10.1,10.6,16.34,3.04,35.44-11.08,46.73-3.44,2.75-7.81,3.7-9.82,5.18Z"/>
  <path class="st9" d="M513.43,528.39c20.27,40.96-1.42,94.66-40,116-1.45-.12-2.91-1.05-4-2,.2-.16-.6-2.88.43-3.52,33.89-21.18,61.01-72.54,37.57-110.48,1.96.17,4.08-.25,6,0Z"/>
  <path class="st9" d="M539.43,538.39c21.71,25.39,18.54,58.02,4,86-3.55,1.38-6.43,1.39-8,2,11.62-22.58,17.25-45.8,7.54-70.54-1.12-2.86-8.06-15.95-9.54-17.46,1.87-.27,4.35.4,6,0Z"/>
  <path class="st9" d="M351.43,556.39c-.44.52-3.88,5.66-4,6-25.63-.06-49.8-10.24-72-22-.28-2.61.25-5.38,0-8,22.93,13.76,48.74,24.4,76,24Z"/>
  <path class="st9" d="M583.43,600.39c-3.35,2.46-6.91,3.19-8,4,4.94-14.35,6.79-33.24.34-47.35-2.78-6.07-8.85-10.12-10.34-16.65,1.09-.07,2.88-1.87,4-2,17.23,16.51,19.11,39.61,14,62Z"/>
  <path class="st9" d="M485.43,508.39c-2.84,15.4-17.37,23.18-28,32-.31-5.95,2.6-9.69,6-14,4.93-6.24,14.31-13.7,20-20,.03.14,1.57,1.61,2,2Z"/>
  <g>
    <path class="st0" d="M505.43,198.39c-6.21,2-2.98,8.81-2,14l-8.05-12.95c-34.06-16.91-65.95-38.49-101-53.2l-116.05,38.05-4.89,4.08,44.96,24.06c6.48-15.82,10.02-20.9,26.97-25.1,28.97-7.18,84.97-2.11,109.06,17.07,11.1,8.83,7.47,16.37,12.16,28.13,3.32.49,30.44-7.49,34.37-9.54,4.35-2.27,2.27-4.73,2.47-8.59.72,4.37,1.59,15.27,2,16l-38,10.01c-.76.87,1.36,8.2,2,9.99-6.59,1.63-19.62,8.18-20-2,3.54.79,8.17.55,11.99,1.99-4.26-20.18.11-34.41-19.9-45.08-23.89-12.73-79.49-20.57-103.5-7.33-11.35,6.26-13.28,27.1-16.93,30.14-1.08.9-2.86,0-3.66.27-1.05.37-2.97-.37-4,0l-1.98-11.03c-10.46-7.68-42.75-19.65-49.98-28.01-2.11-2.44-2.57-3.63-2.04-6.93l133.24-43.97c7.48-.5,26.86,10.87,34.8,14.9,26.78,13.62,52.06,30.33,77.96,45.04Z"/>
    <path class="st7" d="M509.43,200.39c-.08,8.6,5.63,16.6,8,24,2.1,6.58,2.09,16.73,6.24,22.76,2.57,3.72,7.95,5.05,10.69,9.31,3.8,5.91,2.27,10.99,4.9,17.1,5.27,12.24,36.12,25.4,8.64,36.31-30.38,12.07-27.82-14.27-33.01-33.94-.94-3.56-4.95-5.88-5.47-10.71-.84-7.95,5.13-10.6,5.07-14.98-.03-2.46-3.92-15.65-5.14-18.4-.96-2.15-3.82-1.27-3.93-1.45-.41-.73-1.28-11.63-2-16-.11-.65.12-1.36,0-2-.98-5.19-4.21-12,2-14,1.12.64,2.54,1.17,4,2ZM529.7,264.36c0-3.51-2.85-6.36-6.36-6.36s-6.36,2.85-6.36,6.36,2.85,6.36,6.36,6.36,6.36-2.85,6.36-6.36ZM533.01,276.83c-2.45-1.38-6.67-.13-9.59-.44-1.62,1.55,4.94,26.62,6.24,27.74,2.52,2.2,21.12-.31,19.69-6.61-.29-1.29-15.19-20.04-16.34-20.69Z"/>
    <path class="st10" d="M509.43,200.39c.77.44,3.65-.08,5.79,1.13,16.89,9.59,36.28,18.4,2.21,22.87-2.37-7.4-8.08-15.4-8-24Z"/>
    <path class="st11" d="M317.43,228.39c.8-.28,2.58.63,3.66-.27,3.65-3.04,5.57-23.89,16.93-30.14,24.01-13.23,79.61-5.4,103.5,7.33,20.01,10.66,15.65,24.9,19.9,45.08-3.82-1.44-8.44-1.21-11.99-1.99-1.77-.39-3.72-1.54-6-2-3.57-.73-6.96-3.29-10,0-4.6-1.34-9.13-2.32-14-2-1.7.11-3.43.08-4,2-1.71-.34-4.06.15-6,0-9.12-.7-17.84,2.63-24.81,1.98-11.59-1.08-28.85-12.09-47.19-13.98-5.35-.55-13.52,1.1-18,0l-2-2c-.39-.65.26-2.83,0-4Z"/>
    <path class="st0" d="M409.43,246.39c-22.47,15.03-42.64-3.13-65.39-7.72-3.69-.74-7.79,1.75-6.61-4.28,18.34,1.9,35.6,12.9,47.19,13.98,6.97.65,15.69-2.68,24.81-1.98Z"/>
    <path class="st0" d="M443.43,246.39l-1.03,4.03c-3.41.48-7.16-3.5-8.97-4.03,3.04-3.29,6.43-.73,10,0Z"/>
    <path class="st0" d="M419.43,244.39c.66,7.8-2.43,2.31-4,2,.57-1.92,2.3-1.89,4-2Z"/>
    <path class="st0" d="M319.43,234.39c-2.06-.51-1.43-1.06-2-2l2,2Z"/>
    <path class="st11" d="M503.43,212.39c.12.64-.11,1.35,0,2-.2,3.86,1.88,6.32-2.47,8.59-3.92,2.05-31.04,10.03-34.37,9.54-4.69-11.76-1.06-19.3-12.16-28.13-24.1-19.18-80.09-24.25-109.06-17.07-16.95,4.2-20.49,9.28-26.97,25.1l-44.96-24.06,4.89-4.08,116.05-38.05c35.05,14.71,66.95,36.29,101,53.2l8.05,12.95Z"/>
    <path class="st1" d="M533.01,276.83c1.15.65,16.05,19.4,16.34,20.69,1.43,6.31-17.17,8.81-19.69,6.61-1.29-1.13-7.86-26.19-6.24-27.74,2.92.31,7.14-.94,9.59.44Z"/>
    <circle class="st1" cx="523.33" cy="264.36" r="6.36"/>
  </g>
  <path class="st1" d="M425.43,418.39c12.99,1.35,34.53-7,44-16,28.82,30.04-35.74,45.87-44,16Z"/>
  <path class="st1" d="M297.43,408.39c-7.83,30.25-67.87,11.76-44-18,12.18,13.04,26.23,18.27,44,18Z"/>
  <path class="st12" d="M383.42,426.38c-2.37,2.52-12.7-8.86-19.11-9.85-3.94-.61-9.62-.63-13.48.28-1.16.27-18.79,11.15-15.38,2.61s20.4-12.23,28.86-10.9c5.67.89,25.45,11.11,19.11,17.86Z"/>
  <path class="st6" d="M457.43,516.39c-5.91,31.24-61.27,76.69-92.58,69.56-7.11-1.62-12.28-8.84-11.08-16.05,2.59-15.56,29.73-22.03,41.68-32.49,8.41-7.36,18.22-20.56,21.98-31.02,13.43,5.26,26.03,7.25,40,10Z"/>
  <path class="st12" d="M351.43,556.39c8.64-10.13,29.34-15.08,41.05-25.95,4.25-3.94,9.5-10.52,12.59-15.41,2.48-3.93,7.15-17.63,9.37-18.63,7.9-3.57,4.35,6.21,2.99,9.99-3.76,10.46-13.57,23.66-21.98,31.02-11.95,10.46-39.1,16.93-41.68,32.49-1.2,7.21,3.97,14.43,11.08,16.05,31.31,7.13,86.67-38.33,92.58-69.56,2.34.46,5.47-.35,8,0l-2,9.99c-3.4,4.31-6.31,8.05-6,14-22.99,19.07-36.39,41.48-70.05,50.95-21.74,6.12-49.06-2.47-39.95-28.95.12-.34,3.56-5.48,4-6Z"/>
  <path class="st5" d="M461.62,396.6c-10.59-4.63-32.8-2.13-34.18,11.67-21.72-1.64-39.29-18.34-42.05-39.95-2.75-21.61,10.07-42.18,30.68-49.22,20.62-7.04,43.34,1.39,54.38,20.17,11.04,18.78,7.35,42.73-8.84,57.32ZM409.44,328.4c-7.85,8.69,27.58,28.2,29.98,16.96,1.14-5.35-10.78-5.37-14.81-7.15s-12.11-13.19-15.17-9.81ZM401.43,362.39c-.06,4.02-3.53,6.49-1.11,14.11,5.04,15.92,33.96,17.42,35.11-2.11,2.45.39,5.43-.25,7.99-.01,1.72-9.36-7.99-7.93-14.52-10.46-4.29-1.66-27.89-13.15-29.46-11.52-1.46,3.35,2.02,8.23,1.99,9.99Z"/>
  <path class="st1" d="M297.43,398.39c-16.39,1.17-24.6-1.7-36-14,15.07-1.18,27.81-.19,36,14Z"/>
  <path class="st1" d="M461.62,396.6c-9.32,8.4-21.67,12.62-34.18,11.67,1.38-13.8,23.58-16.3,34.18-11.67Z"/>
  <path class="st2" d="M325.43,356.39c-.22,7.53,1.92,16.78-5.24,21.75-11.83,8.21-28.29,3.3-30.76-11.75,1.45.52,4.47-.5,6,0,1.62.53,6.72,11.05,8-4,7.45-1.59,14.66-4.04,22-6Z"/>
  <path class="st12" d="M325.43,356.39c-7.34,1.96-14.55,4.41-22,6-4.48.96-9.31-2.68-8,4-1.53-.5-4.55.52-6,0-2.49-.89-4.5-2.99-8.01-2.01-5.79-5.34,26.92-10.75,29.58-11.42,4.01-1.01,14.34-8.44,16.31-1.39.48,1.72-1.86,3.98-1.88,4.82Z"/>
  <path class="st12" d="M314.46,322.4c2.54-.57,4.94,1.98,4.73,4.69-.89,11.17-28.23,17.69-29.74,10.28-1.21-5.93,11.95-4.78,16.74-7.21,2.84-1.44,6.94-7.45,8.27-7.75Z"/>
  <path class="st2" d="M405.43,364.39c-1.65,9.29,6.04,15.02,8,4,3.56,1.2,18.79,5.49,22,6-1.15,19.53-30.07,18.02-35.11,2.11-2.41-7.62,1.05-10.08,1.11-14.11,1.61-.06,3.03,1.71,4,2Z"/>
  <path class="st12" d="M401.43,362.39c.03-1.76-3.45-6.64-1.99-9.99,1.57-1.64,25.17,9.86,29.46,11.52,6.53,2.53,16.24,1.1,14.52,10.46-2.56-.24-5.54.4-7.99.01-3.21-.51-18.44-4.8-22-6-.69-.23-2.93-2.46-8-4-.97-.29-2.39-2.06-4-2Z"/>
  <path class="st12" d="M409.44,328.4c3.06-3.38,11.12,8.02,15.17,9.81s15.95,1.8,14.81,7.15c-2.39,11.24-37.83-8.27-29.98-16.96Z"/>
  <path class="st4" d="M303.43,362.39c-1.28,15.05-6.38,4.53-8,4-1.31-6.68,3.52-3.04,8-4Z"/>
  <path class="st8" d="M413.43,368.39c-1.96,11.02-9.65,5.29-8-4,5.07,1.54,7.31,3.77,8,4Z"/>
</svg>